P1
200 200
00000000000000000001100000000000000000000000000000000000000000000000000000000000000000000010000000000000000000000000000000000000000000000000000011000000000000000000000000000000000000000000000000000000
00000000000000000001100000000000100000000000000000001000000000000000000000000000000000000001000000000000000000000011000100000010000000000000000000100000000000000000000000000000000000000000000000000000
00000000000110000000000000000001110000000000000000001000000000000000000000000000000000000101000000000000000000000011000100000011110000000000000011000000000000000000000000000000000000000000000000000000
00000000001000000000000000011110010000000000000000010100000000000000000000000000000000000010000000000000000000000000000101111000000000000000000000000000100000000000000000000000000000000000000000000000
00011000001110000000000000000010000111000000000000000000000000000000000000000000000000110000001000000000000000011000000001000010001100000000000011000001010000000000000000000000000000000000000000000011
00000000011100000000000000001110000111000000010100000000100100000000000000000010000000110000010010000000000000000000000000111011000100000000000001100001100000000000000000000000011100000000000000000100
00000011101100000000000000000000001000100000001000000011100111000000000000000101000000110000000001000000001100000000000001010000110100000000001100000000000000000000000000000000011100000000000000000100
00000001011000000000000010000000001011000000000000001000010000010000000000000001100000000000010010000000001100010100000011100000001000000000001100010000000000000000000000000000100010000011100000000011
00000000100000000000000010000000000111000010000000001110000000011000000000111111100000000001000000000000001100110000000001011100000000110000000010110000000000000000000010100000100001100011100000000000
00010001000000000000000100011000000000000001000000001100000001100000100001000000100000000000111000100000000111010100000100110111110000001000000010010000000000000001001110000000100000100000100000000000
00010001000000000000000001000000000000000010000000000000111000110000010010000000101000000000000000100000001011010110010010111001110111110000000001110000000000000100000010001100000001100000000000000000
00001110000000000000000001000100000000001010000000000000000000011000110010110000011000000000000001000000001010100100010000001001110111100000000000101000000000000100001000000100000101000011011000000000
00000000000000000000000000000000000000001100000011000011100000011000000001000000000000000000000000000000101101110110010110110110100010000001101100011001000000000101110000011000001110000001001001000000
00000000000000000000000000001001000000000100000100000000000000001100000000000000000000000000100000000000010000110100000101011111000000000001000010001001000000000011000000000000001110000100000001100000
00000000000000000000000000000000100110000000001000000100100000000100000011000000000000000001010000000100000000010100010000000000000000000000000010000001000000000100100001000000001010000000001001000000
00000000000000000000000000100110100000000000000101000100000000000000000010010000000000000000000000011110000000001110000000110100000000000000001100000000000000100010100001000000000110000110001000000000
00000000000000000000000001010100100100010000000010000010010000000000000010010000000000000010100000100001000000000000100110001010000000011000000000001011000001011111000001000000000000000010001000000000
00000000000000000111000010000011000000010000000000000001010000000000000000000000000000000001000000101110000000000000000001110010010100100010000000001010000010000100000000000000000000000010000000101100
00000000000000001000100010010000000110010000000000000001110000000000000000000000000110000001000000010010000000000000000110001000000001000000000000000100000010000010010100101111100000000100000000001100
00000000000000010000100000000000000110010100000000000000000000000000000000000000000110000000010000000110000000000000000100010000010111000001000011100000000010100110010010100000001000001000000000000110
00000000000000000000100000000000000110110100000000000000000000000000000000000000000000000000110000001010000000000000000000000000001001010001000111100000000001001100010100000000001000001000000010000000
00000001000000001110011000101000001100101100000000000000000000000000000000000000000000000001000000001001000000000000000000100000000000110110000001000000011100000000000000001010100000001000000011010001
00000001011000000011001000011100011100011100000000000000000000000000000000000000000011000000110000000001000000000000000000000000000000000000000000000000011000000000000000000100100100000000011110010011
00000010110100000000111000001100011000000000000000000001000000000000000000000000000011000000010000001001000010000000000000000000000001100001100000000000010010000000000011001110000000000001101010001011
00000010000100000000010000000000110000010010000010101001000000000000000000000000000000000000000000000001100010000000000000000001100000000001100000000000000110000000000000001010001000000000101101100010
00000001011000000000100000000000000000110110000100110001100000000000000000000000000000000000000000000111100000010000000000000001011000000000100000011100000100000000000000000110000000000000001100000100
00000000111000000001010000000000000001111000000100110000100000000000000000000000000000000000000000000011000001100000000000000000111000000001110000000000000000000000000001000010000000000000001000111000
00000000000000000011000000000000000110110011100111001100001100000000000000000000000000110000000000000001001101100000000000000000011000000111110000000000000000000000010010000000000000000101000000110000
00000000000000000110110000000000000111000111110110100000110110000000000000000000000000110001000000000000000100000000000000000011000000010100001000000000000000000000100000000000000000001001000111100000
11000000000000011000001000000000000000000100010100100000001110000000000000000000000000000010001000000000000000000000000000000000100000000100110000000000111000000000010100000000000000001000100001010000
10000000000000000011111000000000000000000111000110100000000000000000000000000000000000000001000100000000000000000000001000111000000001110000110000000011011111000000001000000000000000001000000000100000
11001100000000000000001000010000000000000000100010000000000000000000000000000000000000000001000101110000000000000000010100111001100011010000000000000010010000100000000000011001111000000100010000000000
10001100000000011101100001101100000000000001100000000000000000000000000000000011000000000001000110011000000000000000100100000010000001100010000000000011111000000000001010011111001000000000001000000000
01111010000000000111000010001100000000000001100000000000000001100000000000100001100000000001010011100010000000000000010000000000000001100111000000011110001011000000001010010001011000000000000000000000
00110110000000000000000100101100000000000011011000000000000010000000000000010101000000000000100000101010000000000000100000000000000101000110100000010100110000000000001100010001000000000001100000000000
00000011000000000000000110010000000000000001110000000000000010000100000000100000010000000000000000011010000000000001011000000000000010001100000000010001100000000000000000001010000000110000000000000000
00010011000000000000000011000000001100000000100000000011100001000010000000100000001000000000000000001110000000000011001000000000000010000000000000001110000000110000110001100100010001010000000000000000
00000000000000000000000000100100001100000000000000000000100000110100000000001000000100000000000000001000000000000010100000000000011100000000000000000001000000101001110000000000011000110000000000000000
00010010000000000000000000111000000000000000000000000001000000000000000001000111100100010000000001110000101111000111011100000001100000000000000000000011000001110001000000000110011100000000000100000000
00000000000000000000000000000000000000000000000000000000000000000000000010101010000100001000000000111100000111100000001100000000000001000000000000110111000000000000101000001110001010000000001110000000
00100010000000010000000000000000000000000000000000000000000000000000000000000000000000101000011110001110000000100000000000000010011000000000000000100000001110000000111000001010011100000000011110000000
00100010000001101100000000000000000000000011000000000001101100000000000001000100010000110000111100100000010011000001000000000011011011000010000000000100001100000000000000001100110100000000110000000000
00000100000000101000000000000110000000000101000011100001000000000000000000000000000000101001100100000001011110000001100000111001100000001100000000011100000000000010000000000101000000000001110000000000
00101000000000010000000000001011000000000110001000010000000000000000000000000000000000011001100011000010110100000100010000110101000110000101000000000000000000000111000000000110001000000000000000000000
01110000000000000000000000011011000000000011001000010000100100000000000001100000000100010001100000000010100000000111100000001101101101000100100000000000000000001001000000000010000000000000000000000000
00000001100000000011000000011011000110000100000000010000110100000000000001100000000100000000100000000011100000000111000000000000010010000000100000000000011100000100000000011010001000001000000000110000
00000010100000000011000110001010000000000100000000010000110100000000000000000000000100000001010000000000000000000000000000000000011100001110110001100010001000000000000000000000000100011100000000000000
00000001000000000000000110000100000000000000111000000000010100000000000000000000000000001001110000000000000000000000000000000000000000110100011001100000000000000000000000101000010110001100101000000000
00000000000000000000000000000000000011000001010000100000000000000000000000000000000001000000001000000010000000000000000000101000000000001010000101000001110000000000000000101001001011101000000000000000
00000000000000111110000000000000000100100000001001000000001100001000000110000000000011000100011100000101000000000000000001101100000000000010110010000000000000000000000000110101001100011001001000000000
01110000000001111001100000000000000000000000000000000000000000001000000110110000000110001110011000001000100000000000000010110100000000000000001111000000000000000000000000011101000011011000001000000000
00000110000011010000010000000000000101000000000000000000000000010110000110100000000110011100000000000100100000000000000000000000000000000000010000000000000011000000000001001010000011101001000000000000
00010100000001010000010000000000000000000000000000000000000000000011000001000000000010001000000000000001100000000000000010100000000000010101011010000000000011000000000000010011100000001111100000000000
00101101000000111010000000000000000000000000000000000000000000000001100000000000000000110000000100111000000000000000000011100000000001110000000010000000000000000000000100001011000000000100100000000000
01011110000000011000100000000000000000000000000000000000000000000011000000000000000011000000001111101000000000000000000010000000000011110000001100000001100000000010001000000000000000000011000000000000
01001100000000000000100000000000010000000000000000000000000000000010000000000100111111000000001111100000000000001100000000000000000000000011111100000010010000000110001111100000000000000000000000000000
01001000000000000101000000000000101000011011000000000000000000011100000000000110111001100111000000000000110000010010000000000011000010000000000000000000011000001100000000000000000000000000000000011100
00010000000000000000000000000001001000000011000000000000000000011000000000000111001100110000100010000001010000010010000000000011000000000000000000000000100000000000000000011000000000000000000000110000
00000000000000000000000000100011011000011100000000000001000000011111100000000000000000010000010100100001100000001100000000000000000000111000000000000000000000000000000000001100011000000000011000100000
00000000000000000000000100100000100000000000000000000011000110000010010000000000110000000011001110100001100000000000000000000000000001000101000000000000000000110001000000000100000000000000010100010000
00000000000000000000000100000000000000000000000000000110100111000011010000000000000000011100001001000000000000000000000000001100000010000111000100000000000000110001000000000010000011011100001000000000
00000000000000000000000010000000000000000000000000001001100001110000100000000010110000011000111000000000000000000111100000010010000100010110000100000000000000111000100000000010000010111000000000000000
00000000011100000000000000000000000000000000000000001111100000110000000000000100011100111011010000000000000000000000010000001100000100001100001011000000000001110000100000000010011100010000000000000000
00000001101010000000000000000000000000000000000000001000000000000000000011000011001100011101100000000000000000001010001000000000000110111101000110100000000001101000000010000000000001100000000000000000
00000011001011000000000000000000000000000000000000001100000000000001000100100000000000011000010000000000000001111110010000000000000110000001101101111100000000000001000101000000000000000000000001000000
00000001100011000000000000110000000000000000000000000000111000000000100000000000000001101111100000000000001000010110100000000000000001000100110111001010011100100000000100100000000000000000000110110000
01100001100100000000000001000100000000000010010000000000101000000001000100000000000001010100000000000000101000010110000000000000000000000100110100000111000000000001110000100000000000000000000010010000
01100000000000000000110111100100000000000010010000000001001000111000000010000110000001110000000000001101100011010110000011000000000000011100011000000001100000001000000111000000000111000000000001100000
00000000001000000001101010110000000000000000001000000001100001001000000000000011000000000000000000010010100100001001000011000000000000000000110000000011000000000001000010000000000111000000000000000000
00100000001101100000000000000000000000000100111100000000000000111000000000000000000000000000011000001100010000000101100000000001101100000000000000001110000000001010100000000000111100000000000000000000
00100011001101001000100000110000000000000100001100000000000000001100000000000000000000000000000010010001000100001001000000000100001100000000000000011100000110001000000000000001010000000000000000000000
00100011000011000100000001100000000000000001101000000000000000100100000000000000000000000010000011100000000100010110000000001000010000000000000000000000000001000000100000000011011000000000000001100000
00000000001010101000100000000000000000000000000000000000000001110100000000000000000000000100000010100000000000100100000000001001100000000000000000000000000111001000100000000000001000000000000001100000
00000000011011110000010000000000000000000000111000000000000001000000000000000000000000000000000010000100000100100010001100000000000000000000000000000000000011000101000000000000001100000000000000000000
00000000101100100000000000000000000000000001000000000000000000111000000000000000000000001010110111000001101100011110010000000000000000000011000000000000000011011000000000000010000100000000000000000000
00000000101010000000000000000000000000000111100000000000001000111000110000000000000000011011011011000011001010001101001011000000000000000011000001100000000010110000000000000101000000000000000000000000
00000000100001100000000000000000000000000001101000000000010100000100110000010000000000001001111000000001011110000000001010100000000000000000000001100000001110000000000110000010000000000000000000000000
00000000011110000000000000000001000000000000101000000000100010000010110001100000000000000110010000000011000001001010000000000000001000000000001000000000000000000000000001000000000000000000000000000000
00000000000100000000001000000010100000000000110000000000010100000001000000000000000000000000100000000000100001010010011000000000000000000000010000000000000000000000001001000000000000000000000000000000
00000000000000000000101000000001100000000001101011101110001000011111000000000000001000000000000010011010001010100001001100000000001000000000000001000000000000000000001001000000000000000000000000000010
00000000000000100000001000000000000000000000010010111010000001000001000000000000010100000001000010100000011000000010000010000010100000000000011000100000000000000000000010000000000000100000000000001101
00000000000011100001000000000000000000000001110001000110000001000100010000000000010100110010100000011100000000000000001110000001100000000011000000100000000000000000100010000000000001011000000000001001
00000000000110100001110000000000000000000000000000000100000000111110111000000000001000100101100000000000000000000000000000011001101000000110011000100000000000000000100100000010000010001000000001001110
10000000000011000000000000000000000000000001111111111000000000000000000100000000000000111010000100000000011000111000000000111100000000000011010000101000000000000001001100000001000001110000000100101100
11000000000010001000000000000000000000000001110011111000000110000000011000000000000000010100000100000000011000000000000011100000000001000000010000100100000000000011000000000010000000100000000111111000
00000000000110101000000110000001000000000001100000100000000111001000000000000000000000011000000100000000110000000000110000010000000010100000000101100100000000000000100000000000000000000010000011000000
00000000000100001000000001000110110000110000000010000000000001110000000000000000000000011100000000000000110000001100111010110000000100010000000011000000000000000000000000000110000000000010000000101000
00000000000111100000010001001010110001000100010100000000000000100000000000000000000000111000000000000000011110100000010001100000000100010000000001100000000000001100000011100111000000000000000001101000
00000000000000000110010000110001110000000010011100000000000000000000000000000000000000000000000000000000000000001011100000000000000100010000000000000000000000000000000001101010000000000000000000101100
00000000000000001000001101010110000000100010000100000000000000000000000000000000000000000000000000000000000000011000010000000000000010100000100000000000000000000001100000100000000000000000000001101000
00000000000000010000001001001000000000100010001110000000000000000011000000000000001000000000000000000000000000010011100000000000000001000001000000000000000000000011010000000000000000000000000011011001
00000000000000010001100011100000000000100100001001000000000000000011000000000000000100000000000000000000000000011100010000010000000000000000011000000010010000110010010000000000000000000000000001110011
00000000000000010000000111000000010000110100000011000000000000000000000000000000011100000001000000000000000000111100001110001100000000000000110100000010001000110000111001100000000000000000100000101100
00000000110000011000000101001110101000100100000010000000000000000000000000000000000000000001100000000000000001010000001100010100000000000001111100000010000100000000101001001000010000000000100000010000
00000000110000000010011100101101101000100110000000000000000000000000000000000000000000001001010000000000000011010000001110111000000100000000000000000000001000000000011100001011100000000000000000000000
00000000110000000001100100011000001000001100000000000000000000000000011100011000000000000000100000000000000001001000000011011000000100000001000000000110010000001100011010010011100000000000000000000000
00000000000000000000000011110000001010001000000000000000110000000000100010100100000000000000000000000000000000000100000000000000000100000000000000000110111100000110011000000000000000000000000000000000
00001000000000000000000000111100001001010000000001100000110000000001000000000100000000000000000000000000000000000000110000011000000000000001110000110110101011000001110111000000000000000000000000000100
00001100000000000000000000001010001000100000000001100000000000000001000100011100000000000000011000000000000000000000000001010110000001100001010001001100000000011111100000000001000000000000000000000010
00000000000000000000000000010000001000000000000000000000000000000001000110000001010000000000100000000010000001011001111101010000000001010001010000110011100110100001000000000011100000001011000000001001
00000000000000000000000000010110000000000000000000000110000001000000000000000000000110000000010010000010000001011001000101111110000000100000100000000000001000110110000000000100000000001011110000001001
00000001100000000000000000000010010000000000000000000000000001100001110001100000000010000000000001000010000000001000000000100000000000000000000000000000000000010110000000000011100000010000011000000101
00000001100000000000000001101111000000000000000000000000000000110000100000100001000010000000000110000000000011010000110101000000000000000000000000000000000000110110000001110011000000110011010000000001
00000000000000000000000110101110000000000000000000000000000000000000000011111000000110000100000000000000000100001000000101000000000000000000000000000000000000011000000001110000010001101001100011000000
00000000000000000000000110000000000000000000000000000000000000000000000100110000100100001010000000000000000111100000001110000000000000000000000000000000000000000000000000000110010000001110000101000000
01100000000000000000000000000000000000000000000000000000000000000000001111110000010000001011000000000000000011100000000000000000000000000000110000000000000000000000000000000100000000011100000100110000
10000110011000000000000000000000000000000000000000000000000000000000001111000000000100000110000000000000000000000000001110000000000000000000110000000000000000000000000000000000011100001000000100100010
01010011011000000000000000000000000001100000000000000000000000000000000000000000001010000110000000000000000000000000001001000000010000000000000000000000000000001100000000000000010011010000001001010110
00100110000000000000011000001000000001100000000000000000000000000000000000000000001010000110000101000000000000000000001000000000111000000000000000000000000000000000000000000000111011000010000001110000
00000000000000000000010100110000000000000000000000000000000000000000000000000000001100011001000100100000000000000000000111000001000100000000000000000000000000001110001100000000100010001000000101001110
00000000000000000000001000111000110000000001111100000000000000000000000110000000000001111010000101000000000000000000000000000000111111000000000000000000000101001000010010000001011001000000000010000010
00000000000000000000000000000001110000000010000010000000010100000000000110000000000001011100000000000000000000000000000001100000110110100000000000000000001001000000110110000000000110010000000000000111
00000000000000000000000000000000100100000011000001000010000100000110000000011100000001000000000000000000000000000110000000010011100000100000000000000000001001000000100100000111101000000011100000010010
00001110000000000000000000000010100000000000000001000100000100011010000000100100000000100000000000010000000100000010000001100011010000000000000000000000100110000000010010000100000000000100110000110100
00001101100000000000000000000011101000000000010010000100000111101000000000110001000000000000000000010000000100000000000000000011010110000000000000000001101000000000001110001000010000001100000000010010
00000000000000000000000000000000001100000000001110000000011011101000000000000101000000000000000000000000000000000000000000000011010000000000000000000000100000000011001010001111110000000001100000000000
00011000000000000100100000000000010010000000000000000000001001111100000000000001000010000000000000000000000000000010000000000011100000000000110001100000000000000101000000000001111100100100000000000000
00100100000001111100100000110000010100000000000000000000000000000000000000000000001101000000000000000110000000001000011101010000000000000001011001100000000000000100100000010000011011000110000000000000
00100000000101110100100001001000011100000010100001111010010000000000000000000000000000100000000000001001000000001010110101001000000000000001001000000000000000000010000000001011110010001011110000000000
00011100001101001000100000010000000000000100100111111011001010000000000000000000001000000000000000000110000000000101100100000000000000000000100010000000000001100000000000000011101100011001111000000000
00000000000000110000111111100101000000000011000100101010001110000000000000000111011111000000000000000000000000000000011100011000000000000000110101000000000010010000000000000010010000001010000101000000
11000000101001000010001110111100100000000010000011000000000100000000000111100110110010000000000000000000000000000000111000000000000000000000000001100000000010100011000000000000000000000110010111000000
11000000100000110010100010110000100000000011100111000000000000000000011000010011011100000000000000000000000000011001101101000000011000000000000100100000000001001001101100000010000000000011011000000000
00000000111000001100110100101110100000000000000111000010000000000000011110001011010010000000000000000000000000011000111110000000100110000000000011100000000000000001010001000000000000000000100000000000
00000000000000000000001000011101000000000001101100001101011000000000000001010000000111000000000000000000000000000000110000000000010010000000000011000000000000001010010001000000101110000000000000000000
00000000000000000000000000101000000000000000010000001101011000110000000000000011011000000000000000000000110000000000000000000000001110000000000000000000000000000100000001000001101000010000000000000000
00000000000000000000000001101100000000000010100010000111011000110000000000000011101111100000000000000000000000000000000000000000000000000000000000000000000010100000001000000001101100000000000001110000
00000000000000000000000001100000000000000010100000100000011000100000000000000010001101100000000000001100000000000000000000001100000000000001111000000000000100000000000101000001000010010000000010010000
00000000000000000000000000010000000000000010010000010000000000000000000000011000001111000000001000001100000000000000000000010000100000001110000110000000000000100000000001100001110000100000011000000000
00000000000000000000000000000000000000000000001000100000000000000000110000011000100111000000110000000000000000001110000000010000000000001000000001000000011010000000000000000000110000000000101110000000
00000000000000110000001101100000000000000000000011000000000000000001110000000000011110000000011000000000000000100010000000011000010000000000010000000000000011000011100000001010110001000000100000111000
00000000000001100000001101100000000000000000000000000000000000000110001000000000000000000000011000000000000000100000100000000011011000000000010100100000011101010010000000000100000011100000100001001100
00000000000000000000010001100000000000000000000000000000000000000000110001000000000000000000001100000000000000101010100000000001111100001000010010010000000000100000011000000111000000100000010001111000
00000000000000000000001001000000000000000000000000000000000000000000010011000000000000000000010010000001000000000000100000000000010000000100110110110000000001100011011000000000000000000000001101011000
00000000000000001110001010000000000000000000000001000000000000000111000100000000000000000000010010000010100000000010100000000100100000000001111011110000010001100000011000001000000000000000000011011000
00000000000000001110000000000000000111000000000011100000000000000000001000100000000000000000001010110001110000000000100000001000100000000000001000010001100111100010000000110100000000000000000010010000
00000011000000000000000000000000000111000000000100100000000000000000001000110000000000000000000110001001010000000011100000001101000000000000001001111110000111000111100000000000000000000000000001000000
00000011000000000000000000000000000101000000001100110001100000000000011010010000110000010000000110010000010000000000000000001110000000000000001010111000000010001111000001001000000000000000000001000000
00000000000101000000000001000000000000000000001111100001010000000000011000000011000000011000000100010000000101000000000000000100000001000000001110001000011011011000000000110000000000000000000000000000
00000000000001000100000011100000000011000000000001100001000000000000011000000000010011010100111110100000000000100000000000001000000110110000000000000101001100000001100001010000000000000000001100100000
00000000010001001010000010010000000011000000000000110000100000000000001100000011000011001100111001000000001000101000000000001000000110110000001100000000000100000001100001110000000000000000010111100000
00111000100010010000000001101100000100100000000001000000000000000000001100000000000110000000000000000000000000110000000000000000100000000000011100000000000000000000000001110000000000000000001000100000
00100100000010001100000010100100000011000000000000000000000000000000001100000000000001000000001000000000000111001000000000000001010011011000100100000000000000000000000000000000000000010000001001000000
00101100000000000111100110000100000010000000000000000000000000000000011100000000000100000000011110000000000001111000000000000010001011011000110000000000010000000000000000011100000000010000000101000000
00000000010001000110011010111000000000000000000000000000000000000000000000000000000101000000100110000000000000100100001100000100010000100000000000000000100100000000000000100010000000000000000000000000
00000000000001111100000000110000000000000000000001100000000000000000100010000000000101000001110000001000000000011000001100000111100000000000000000000001100010000000000000110110000000000000000000000000
00000000001110000101011111000000000000000000000001100000000000000110110001000000000010100000000000001100000000000000000000000010000000000000000001111011000001001000000000100001000000000000000000000000
00001000000000000010100101000000000001100000000000000000000000000000101000000000000001100000000111001000000011100000000110110000000000000000000011000100011000101000000000011011001100000000000000001110
00101000000000000000000000000000000001100001000000000000010111001010000010000000000001110000000000010100000011100000001000110000000000000000000001000100011000111010000000010001000110000000000000001010
00101000000000000000001010001000000000000001000000000000100100100000000010000000000000000000001000000100000000010000010000001100000001100100000000110000011110010000100000001110000000000000001100010010
00000000000000000000001100110110000000000001000000000010110100111100001011000000000000000000011001000010000101000100001101001100000001001100000000000001011011011000100000000000000000000000010011001100
00000000000000000000001000000000000000000000000000000000100000100110001110000000000000000000000100000100000011010110000001110000001101001000000000000010011000000001000000000000000000000000011000000000
00000000000000000000000000000001000000000000000000000001000110000010001100000000000000000000111000010100000011010110000000000000000010000000000001000000000000000001010000000010000000001100011000100000
00000000000000000000000100010000011000000000000000010000000000000010000000000000000000000000000000000000000010000000000000000000000000000000000000100011001000000000010000000101000000001100000101100010
00000000000000000000001010010000000100000000000000100000000000000011000000000000000000010000000000000000000000011000000011111000000000000000000011100000101000000010010000000101000000000100001001000110
00000000000000000000010010001100000000000000000000010100000011001010000000000000000000110000000000000000000011111010000011011000000000000000000000000000010000000011010000000010000000100011000111000010
00000000000000000000001100000001001000000000000000000000000110001110000000000000000000000000000000000000000001000011000011111000000000000000000000000000000000000000010000110000000011001101010001000000
00000000000000000000000000000000010000000000000000000000000011000110000000000010000000101000000000000000000001100000000000000000000000000000000000010000000000000000111001001000000011001010001110000000
00000000000000000000001000000000000000010000000000000000000000000100000000000010110000001100000000000000000000011000100000000100000000000000000000111000000100000000000000000000000001000000000110000000
00000000000000000000010110000000000001101000000000000000000000001000011000100110100000011100000000000000000000000110100000011010000000011000000000101000001010000000000100010000000000000000000000100000
00000000000000000000001110000000000110100100000000000000000100000000101100010101000001100100000000000011100000000010000000001010000000001011000000000000001010000000000100100000000000000011000000100000
00000000000000000000000000000000000010011100000000000000000011000001000000001000000001010100000000000011000000000001100000000100000000001001000011100000000100000000111111000000000000000011000000110000
00000000000000000010000000000000000110011100000000000100000001000000101001110000000001101100000000000110100000000011100100000000000000001000000100000000000000000000000000010000000000000000000000000000
00000000000000000011000000000000000011000000000000001010000000010000010000000000000000110000000000000100000001101000000101110000010000001001000000000000000000000000000000101000000000000000001100011100
00000000000000000010000000000000000001101000000000000000000001001000000000000000010100100000000000000010000000001010000001001001011000001000000100001000000000000000000000100100000000000000001100000000
00000000000000000100000000000000000000111000000000110011000100001000000000000000011111100000000000000100100001001001000001001000010000000000000000001000000000000000000000011000000000000110101011000000
00000000000000111000000000000000000000110000000001101110000010001000000000010000010001000000000000000000011000100011000010001100010000000111000001110000001110001100000000000000000000000100000001000000
00000000000001100000000000000000000000000000000000101000001110000000000000101000001110000000000000010001000000000000000010010010100000000000000000001000011001111000000000000000000110000011101001000000
00000000011011010000000000000000000000000000000000011000000000000000000000011000001110000000000000011010000000000000000001100001000000000000000000101000010000011101000000000000000000000000001010000000
00000001000010000000100000001100000000110000000000000000000000000000000010010000011100000000000000011000000000000000000000000000000000001100000000000011000101101111000000000000000110000000011000111110
00000001000000000001100100000000011011001000000000000000000000000000000001100000010000000000000000001000010000000010000000000000000000100010000000010001101101000110000000000000000011110000001011110001
00000010001000000111100000000000011010001000000000000001110000000000000000000000000100000000000000001100001000000101000000001100000001100000000000000000100110000000000000000000000101001000001000111101
00000000100000000110010100000000011000110000000000000001001000000000000000000000000110000000000011001000000100000100000000010010000001000001100000001101000110000000000000000000000010000000000000000110
00000001110001000000000000000001101000000011011100000000000000000000000000000000000101000000000011000100000110000000000000010010000000100101100011000000011000000000000000000000000011011000000000000000
00100000000001000000000000000001111011000100001010000000100000000100000000000000000000000000000000000100000100000000000100000000000000110000010111000000010000000000000000000000000111100000000000000000
11000000000000000000000000000000111110000100100010000000000000001000000000001000000010001000000000000000000100000001000100000000000000000001110100000000000000000000000000000000000100100000000000000000
01100000000000000000000000000000000000000010000010000000000100000000000000000010000000000100000000000010010000000001111000100000000000000011001100000000000000010000000000000000111110010000000000000000
00000000000000000000000000000110000000000000100100000001001000010001000000100000000001000000000001011101110000000000000000100001000000000000000000000000000000110000000000000001110000010000000010000000
00000000000000000000000000001000000000000000001000000000110000011001000000100001000001000000000010101010000000000000000000100001100000000000000000000000000001101100000000000010001001100000000000010000
00000000000000000000000000000000000000000000000000000000000000100011000010111100010010000010000001111110000000000000000000000011100011011000000000011100000000000000000000000100110000000000000100010000
00000000011111000000000000010010000000000000000000000100000000011000000101100100001100000100000000000000000000000000000000001100000100010100000000010010000000000000000000000011100000011100001000100000
00000000011110100010000000010000010000000000000000010011000000011100000100000110000000111000000000000000000000000000000000010000000010000110000000100010000000000000110000000000000000011000000101000000
00110001000000010101000100001100101000000000000000100011100000000000000110000010101010000000000000000000000000000000000000111100100011010010000000100110000000000000110000000000000000110000000000000000
01001000101100100110001000100101101000000110011000100000100000000000000010001101000100000000000000000000000000000000000001101101000000010100000000100100000000000011110000000000000011100000010000100000
10011001001110000000001000010111000000001100101000101001000011100000000100001101100000000000000001000000011000000000000001100000000000011100000000010100000000010000110000000000000100000000010000000000
10110000100010000000001100010011000000001000010000011001100010010000000000000101100000000000000000100000011000000000000001101000011100000000000000000101110000010011001000000000001000010110100000010000
10100000111111000000000111011111000011100000000000000110100001010000000000000100100000000000100001111100000000000000000000101000011100000000000000111001001000000000010100001100001111111000000000000000
11000000000110100000000100110110000000010000000000011111101101011000000000000011110000000001000001101110000000111000000000010000011000000000000000111111001000000000001000001101100000011000011000000000
00000001111000110000001101011010110010011000000000100010111100001000000000000011011000000001011100011001000000110000000000000000000000000100000001001111000100000000000000010000000000000000000101100011
00000001100100001000000101111101110001101100000000011001110100011000000000110000011100000000111110010011000000110000000000000000001110001100000001011010000110000000000000011011010000001000110000100000
00000010000101110000000000110000110000001010000000000000000011010000000000100100011100000000011000111010000010100001100000000000000110000000000001110001000110000000000000011000010000000100101000111000
00000001100001100000000000000000011110001010000000001000000000000000000000001110011100000000000001011100000100100000000000000000011010000000011000000000000110000000001110010011100000000000011100001000
00000000110000000000000000000000001000111001000000001010000000000100000000000010000000000000000000011100000100100000000000000000010110000000010000000001111000000000001011101100000010000000011000000000
00000000000000000000000000000000001000101011000000001000001110000100000000000000000000010000000011100000000001110000000000000000000010011110011100000000000010100000010001110010000101000000000000000000
00000000000000000000000000000001000100001010110000000000001100000100000011000000000000100010000001010000000000000000000011000000000000000010000000010010000000100000001110001000000101000000101000000000
01100000000000000000000000000010100011101010000000000000000000000000001101000000000001000000000000010000000000000000001100100000000001101010000000100001000000000000000000001000110010000000011000000000
01100110000000000000000000000011100100001010001011000000000000000000000000000000000001000000010001010000000000000000010000100001100000000000000000100011000000000000000000001000001000000000000000000000
00000110000000000000000000000011000111011111010001000010000000001001100010000000000000000110010000100000000000000001000110000001100000000000000000010000000000000000000000000100011000000000000000000000
00000000000000000000000000000010000010000000010110000100010000000100000000000000000000101000000000000110000000001011111000000000000000000000000000000000000000000000000000000000000001100000000000000000
00000000000000000000000000000011000000000000011100000011110000000100011000000000000000011000000000000110000000001111100000000000000000000000000000000000000000000000000000000000000001100000000000000000
