P1
200 200
00000000000000000001100000000000010000000000000000000000000000000000000000000000000000000000000000000110000000000000000000000000001000000000000011000000000000000000000000000000000000000000001000000000
00000000000000000001100000000110011000000000000000000000000000000000000000000000000000001110000000011111000000000011000100000010101000000000000001000000000000000000000000000000000000000000001000000000
00000000000110000000000000001000111000000000000000010000000000000000000000000000000000001110000010001000100000000011000100001000000000000000000000000000000000000000000000000000000000000000000100000000
00011000000110000000000000011011100000000000000001111000000000000000000000000000000000000010000100110001000000000000000100000001001000000000000000100000110000000000000000000000000000000000010100010110
00010101100000000000000000000100000001000000000111001000000000000000000000000000000000000000000101100000000000011000000000011101011000000000000000100001000000000000000000000000000000000000000010100001
00001110010000000000000000000000000010000000001100110000000000000000000000000000000000010000000010000000000000100100000000100001001100000000000000100001100000000000000000000000000000000000010101000010
00000100010000000000000000000000001011000000001011011010011100000000000000000000000001101100001000000000000000011100000001111100010000000000000000000000000000000101000000000000000000000000001000100000
00000000010000000000000000000000001100000000001110001010100111000000000000000110100000101110111100000000011000011000001001000001010111000000000111000000000000000100100000000000011100000001100000011110
00000000000000000000000000000011000000000000110110000010111000011000000000000100100000000111100110100000101000001000010001001110111011000000000100100000000000000100000011000000110110000001100000000100
00110110100000000000000111000000000000000000110000000000000001010000000000010101000000000010000000010001001000001000001101100000000000100000000000100000000000000000010000000100110001000000010000000000
00011110000000000000000100010000000000000111100000000000000000100011100000111100010000000111000001000001000000110000001011011001100011010000000100111000000000000010001001011000001110000001010010100000
00010000000000000000000100011000000000001001000000000000000000000011100001101100111000000111000000110001000110110000000001010001000100000000000000010000001000000010010000011000001110000001010000010000
00000000000000000000001011000100000000000001000011000001100000000101100011101100110000001111110000000001111110010100110001100011000000000000110001010010001000000010010000000000000000000001100010100000
00000110000000000000000001000001000010000110000011000010010000000010000001111000000100001110000000000000100000000011110000100000000010000001000101010010000000000010100000000000000011100000110001100000
00001000000000000000000000100001000010000000000011000000010000000010000001100000000000001110000000000000000010000001001111100110000001010001100010000010000000000010100001000000000100000110100000000000
00000000000000000000000000011110100100000000000000000010010000000000000001100000000000001110000000000000000010001111000000011011011100000000100100000010000000000001000001000000001000100001000000000000
00000000000000000000000000000001000010010000000001100010110000000000000001010000000000000101000000000010000000000000001101110000101000000000010000001010000000000000000001000000010000100101000000111000
00000000000000000000100000000011100000100000000000000001000000000000000000010000000000000011000000111101000000000000001100000101000000011000011000001100000010010000000000000000000000000010000011100000
00000000000000000111000001111101000010100000000000000000000000000000000000000000000110000000000000000110000000000000000011110000011000101100001011000000000010111000001010000000000010000000000101011000
00000001100000000100000000000001000011000100000000000000000000001000000000000000000110000000001101111100000000000000000010010000111000100010000100000000000001001000001000100000000000000000010100000000
00000010000000000011100000100000000001001010000000000000000000010010000000000000000000000000001111110100000000010000000001100000000000011100000000100000000000011000001000110001010010000111010100001100
00000000100000000110010000100000001011001010000000000000000000000000000000000000000000000000010000000100000001000001000000100000000000001000000000000000110000100000000010001011101000001001110010011000
00000010001000000000000000010010000011000100000000000000000000000000000000000000000011000000011001001010000010000010000000000000000000000000000011100000011110000000000000101010001000001000001100011010
00000110000100000011110000000001000000001000000000011100000000000000000000000000000011000000000001001001000100011000000000000000000001100001100000000000011110000000000000100000001000000010000000000110
00000110101000011100000000001101000000110000000000110010000000000000000000000000000000000000000010000001000011100000000000000000000001100001100000000000000000000000000000110111110000000000000000000000
00000000010000000000000000000000100000111000000001000001011000000000000000000000000000000000010000000011100100100000000000000001110000000000000000011100000000000000000000010001000000000000000001000000
00000000000000000000010000000000001000001000000001001011111100000000000000000000000000000000000001000000000010001000000000000010000000000000000000000000000000000000000111010010000000000000000110110000
00000000000000000001111001100000001011111000000001100000000000000000000000000000000000011000000101000000000110000000001000000000010010001110100000000000000000000000000001000000000000000000000000100000
00000000000000000000001111100000000011010000000000000001111110000000000000000000000000101100001000000000011101000001010100000101110000001101100000000000000000000000001110010000000000000110000001110000
01100000000000000110001100000000000000000001110001100000001100000000000000000000000000100011001111110000011000001000000010000001001000110000100000000000000000000000001000000010000000001011000000000000
11010000000000001110001100000000000000000001010001100000000000000000000000000000000000100000001101110000000000000101110001010100000110100000000000000001101000000000000000000010000001001011000000000000
00010000000000000100100000010000000000000001001000000000000000000000000000000000100000100000100000010000000000000000001111100010000101000000000000001100100100000000000000100000001110000100001000000000
00111000000000000010000000010000000000000000011000000000000000000000001100000000100000010000100000111000000000000000000010000100011100000000000000000001000010011000000001100001001110000000010000000000
00000000000000000010000000010000000000000001011000000000000000000000010000100000100000000101100000000000000000000000010001000000011000000011000000001100000110111000000110010110101000000000100100000000
00011100000000000001010101010000000000000001100000000000000001100001000010111000000000000000000001110100000000000001010000000000110100010011000000001111101001100000000111011000000000010000100000000000
00001010000000000000000100000000000000000000000000000000000011000111100100011111000000000000000011010110000000000001000001000111111110110011101000001100010001100000001000100000000000100000011000000000
00001001000000000000000100110000001100000000000000000000000000000111010000010000100000000000000000001000000000000000110000000110100010110100100100000011101101101000001110000001010001001000000000000000
00000101000000000000000000001000001100000000000000000111000000000110000001100010010000000000000011100000000000000010100000000001010100010101000100000000000001110000010110000011100000100000000000000000
10100100000000000000000011011000000000000000000000000000100000000000000010010100010000000100000100000000000000000011011100100110110000010100101000000000100100100110011000000011001100010000000000000000
00010111000001010000000000000000000000000000000000000100000000000000000010100100010000110100000111000001100000100000000000111111000001101001010000100001111100000000010000000111010010000000000100000000
00001000000001101000000000000000000000000000000000000001001000000000000001001000100000110000001101000011010001100000000000001100100100000010000000110000100100000000000000000101001100000000001010000000
10000010000000011000000000000000000000000000000000000000111000000000000000000101000001001000110011000010010011100110000000001101001100011100000000111000011000000000000000001001000000000000001010000000
01000000000000000000000000000000000000000001000011000000010000000000000000000000000000011001011000000000110001111110000000001000001111100111000000001000101000000000000000000101000000000000010001000000
00111000000000000000000000000110000000000110100011000000000000000000000000000000000000110000100111000010100000110001000000001101001000000000000000000000110000000000000000000000000000000000001111000000
00000000000000000000000000001101101100001000110101000000000000000000000000000000000100001001000000000011000000110101000000001000010100000000000000000000110000000111100000000000011100010000101110100000
11000001100000000011000000000001110100001000100101000000001000000000000001110000000100000100000000000000000000001110000000000000001010000001100000000000101000001010100000001100010011011101000001100000
11000010100000000011000011111001111010000010010010100000011011000000000001100000000100000000000000000000000000000000000000110000010000100001100001100000111000001010000000010010000000001111100000000000
00000001000000000000000100010000000010001010011011000000001000000000000100000000000000000110000000000000000000000000000000000000000000011011100001100001000000000000000000001010001001000001000000000000
00000000000000000000001000000000100010001000000110000000011000100000000100111000000000001000100000000000000000000000000000000000000000000100000000000010000000000000000000001010001011000110000000000000
00000000000000000000100000000000100110000110001000000000011000000000000100011110000001110000110000000000000000000000000001111100100010000110101100000000000000000000000000001011111011001001000000000000
00000000000000110001000000000000000110000000000000000000000100011000000011101111100010010001110100000010110000000000000001100100010100011110100010000001000100000000000000000000110011001000100000000000
11000000000000101000010000000000010100000000000000000000000000000100000000000001100011010000101100000110000000000000001000000000000000110010000010000001000010000000000000110000000010001000010000000000
11010000000000011100001101000000001000000000000000000000000010000010000000000000000000010000101100000011000000000000010001010000000000110100000001000000000001000000000001111011000000001000011000000000
10000011000000010101100000000000000000000000000000000000000000110110000000000000000000000010001000000000000000000000000001100000000001110011100001000000000001000000000010010111000000000011000000000000
01101101000000000001100000000000000000000000000000000000000001111100000000000110000000000001100100011100000000000000010000100000000001001000001010000010100000000010100100011011000000000000110100000110
00110000000000001011100000000000010000001010000000000000000000111000000000001000000010000000000010100010010000000100000001000000000000110000001000000001100100000010100100011110000000000000001000000110
00000000000000001000110000000000101000000010000000000000000000010000000000001011010101000000001001010000010000001100001000100011000000110000011000000000000000000110100001100000000000000000000000000000
00000000000000000000111000111000101000110010000000000000000000000000000000000101111101000000000001011000100000011010001000000011000001000000011100000000011000000100000000000000000000000000000000011000
00000000000000000000011001101111110000111000000000000000001100000001000000000000010001000111000011100111000000000100000101000000000001010001101000000000000001101100000000000001110000011100011000011000
00000000000000000000010010010000100000110001000000000001011100000111100000000001000100001000100000000000000000000000000000000000000000000001110000000000000001101100000000000010010000101110010010011000
00000000000000000000001010000100000001100000000000000010111100010000010000101110101011001100010000000000000000000000000000001000000000110000100000000000000000101000000000000100110000000110001100000000
00000000000000000000000000000100001001010000000000000100000000100001100001100000000001000000010000000000000000000000000000001100000000101000001000000000000000010001100000000100001000111000000000000000
00000000000100000001000000000000101000100000000000000100000000100001000001000101000110000001000000000100000000000001010000000100000110010100001100000000000000011110010000000010000100000000000000000000
00000000011010000001100000000000000000000000000000000000000000001101100001011010001110000010000000000010000000000110100000000000000011100100010010000000000000010000000000000000000010000000000000000000
00000000110111001110100000000000000000000000000000000111000000000001100000001000000000001110000000000100000000001010000000000000000000100010000010000000001000100000000000000000101010000000000000000000
00000000100010001111100000000000000000000000000000000111110000000011000001110000000000010010000000000000000010011010111000000000000000011010000010011100001110110000100001100000000110000000000011100000
01000000010100000101100000010000000000000000000000000000110000000000000100010000000000110110000000000000010010010001000100000000000000001111000100011100000111111011110101100000000101000000000000100000
01100000001000000100010001111000000000000011000000000001110000010000000001000000000000010001000000001010010010001101000010000100000000000001010000001010000000100000001000000000000110000000000001100000
00110000000000000000110010001000000000000101100000000010000001100000000001000111000000011000010000010010010000000010100010010100000000000000001000001010000001101100000000000000000010000000000000000000
00110000000010010000101000000000000000000001011000000000000001100000000000000000000000000000010000010000001100000000100010000000100000000000000000001100000001101100000000000000000000000000000000000000
01100010000111000010010001100000000000000001001000000000000000001110000000000000000000000000110000000000000100000000000000000000111010000000000000010000000001101000000000000000100000000000000000000000
00000101001000000010000010000101000000000010110000000000000000001000000000000000000000000000000000010001000000000001000100001100000101000000000000000000000001000100000000000000100000000000000001100000
00000000100011100010001100000100100000001101000000000000000001100000100000000010000000000000001110010001000000001001001111001100010000000000000000000000000001000011100000000000100000000000000001100000
00000001000110110010010000000011000000000000101000000000000000111000100000000010000000000011100000011010100000011100110000000000010110110000000000000000000001011000000000000000011100000000000000000000
00000000101100001000000000000000000000000001101000000000000000010100000000000000000000000100101010000110110110100010000000000000000010000011000101000000000000100000000000000010000100000000000000000000
00001001000110000100000000000000000000000001010000000000000000000010100000100000000000000100011110000001100000010010000000000000011101000100100101000000000000000000000000000101000000000000000000000000
00000100001100000100100000000000000000000010000000000000001100000001100001100000000000000100010010000000000010001010000001000000110000000100000001000000001110000000000111000010000000000110000000000000
00000000000000000000000000000010000000010100001111100000011000000000000010010000000000000000011010000000000000001000000111100000000000000000000010000000000000000000000101000000000000000000000000000000
00000000000000000000001000000101100000001110000100001000011100000010000001000000000000000001010100000000000111000000001100000000011100100000000000000000000000000000000011100000000000000000000000000000
00000000000011000000001100000101100000000111100000011000000000000001000000000000001000000011000110000111000100101100000101100000011101000001100100000000000000000000011001110000000000000000000000000010
00000000000000100000001001100000000000000000010110000000000000011010000000000000001000001111011000001000100100001000010100000001100100000001000010000000000000000000000001101000000000000000001000010001
01000000000011100000110001100000000000000000000000001000000001110110000000000000011000011101100000001110000010000000100100000000110000000011011001100000000000000000100010000000000000010000010000000001
10000000000001010000100000000000000000000000000001111000000010010100001000000000000000100000000000000110110000000001001000000110110000000010001010100000000000000000010001000010000000110000001000011111
11100000000000100000000000000000000000000000000010110000000100011100011000000000000000010110000100000000101001110000100000001100000000000111100001011000000000000000001100000001000000101000000001000110
00000000000000001100000000000000000000000000000000000000000110111000010000000000000000001001000100000000100101011000110010101100000000000001000011001000000000000000111100100001000000010000000011000000
00000000000001110000000000000000000000000000000100100000000111000000000000000000000000000110000100000000110001011000000001000000000000100000000011011000000000000000101000011100000000110011000000010000
00000000000010100000000000000000000000001110110111000000001100000000000000000000000000000111000000000000011101011001000000000000000001010000000000100000000000010000001000111000000000000011000001000000
00000000000011100000001110000011100000010110010000000000000000000000000000000000000000000000000001000000000100000001101001100000000011010000000000000000000000001100000001001100000000000000000000100100
00000000000000000000010001000100100000110001011000000000000000000000000000000000000000001000000100010000000001101111000000000000000001100000000000000000000000001100000010000010000000000000000000010010
00000000000000000100010001101011000000011011010000000000000000000000000000000000010000010100000000010000000000100000000000000000000000000000000000000000000000010000000011001100000000000000000000000000
00000000000000011010000101000000000000000011000100000000000000000011000000000000001000100010000100000000000000001011000000000000000000000001000000000000000000000101101111001000000000000000010001101100
00000000000000111011010101001000000000000101011010000000000000000011000000000000111000010000000010000000000000001110110000000000010000000011011000000000000000011100100011101000000000000000001001110000
00000000001110000110010111101000000000000001001001000000000000000000000000000000000000011100000000000000000000100010000001110000100001000000000100000011010000011001011001110000110000000000110000000011
00000000000000001100001101110000111000011001000010000000000000000000000000000000000000000000000000000000000001000010001011011000000001101100000100000110001000000010000000000000110000000000100000000011
00000000011000010000000000110000111000011000000000000000000000000000000100000000000000000101110000000000000010000010001101010001000100001000001000000110101000001101100000000000000000000000000000000000
00000000000000000000000001110000000000001100000000000010000000000000001000010000100000000111000011000000000011110010001000000001000110010010100000000000011000000011100000011110000000000000000000000000
00000001100000000000100000000000000001010000000000100001000000000000001000010001000000000110000000100000000011001000000001100000000001100010000000000000010010000000100001100011000000000000000000000000
00000010000000000000100000000000100000100000000001000000000000000000001000010000100000000000000000000000000001101101100001111000100000010001000000010000100001000011100010000000000000000000000000011100
00001011100000000000000000000011010000000000000001000010111100000000000100010000000000000000000000000000000000111000101000000010001100000000100000110001000110001101000001101011000000000000000000000000
00001111010000000000000000000110010000000000000000100110011101000000100001010000000000000000010000000010000000010111000111100010000001100000100000100001110110001110000001000011000000000001000000000000
00001110000000000000000000001000100000000000000000000010010100100000011000000000110000000001011011000010000000000111000001000010000000011000100000000000110011001000000000000000100000000110100000000010
00000111010000000000101101011111000000000000000000000010000000000000110000000101100110000001000110000010000000111101000000000000000100000000000000000000000011101110000011000001110000000000010000000111
00000011000000000001100011000010000000000000000000000000000010100000000110001010011010000000000000000000000010001110000001000010000100000000000000000000000001010000000000100000001000011011100000000001
00000000000000000000000100010000000000000000000000000000000000110000001010010000001100011000000000000000000011110101000011100010000000000000000000000000000001000000100001100010101100011000000011100110
00000000000000000001111000100000000000000000000000000000000001000000001001100010000000000100000000000000000001000011000110011100000000000000000000000000000000000000000000000100001100011100000000011100
00000100000000000000100000000000000000000000000000000000000000000000001100000100000000101100000000000000000000000011000100000000000000100000110000000000000001000000000000000101100000011000000100011000
01101010011000000000000000000000000000000000000000000000000000000000000000000000000011110100000000000010000000000011001101100000000000000000110000000000000000000011000000000010100000000000001001100000
01100010010000000000000000000000000001100000000000000000000000000000000010010000001100100000000000100100000000001010001001100000000000110000000000000011000000100010000000000011100011000000000111011010
00011100000000000000011000000000000001100000000000000000000000000000000000000000000101100110000010000000000000010001000000000000001000000000000000000000000000001000001000000010010101000111000000010010
00000000000000000000010100000000000000000000000000000000000000000000000000000000100001100011000010000110000000000000000000000000110000000000000000000000000001010000001000000001000111011000100000001000
00000000000000100000000100011100000000000000100000000000010000000000000110000000010010100000000010100000000000001010000000000000100100000000000000000000000001001000001000000000000100000000010001000100
00000001100000100000000000001000011000000000110010000001101000000000000110000000001000110000000000000000000000000000011000000001101111100000000000000000000001010000000000000000001001001000011001101110
00000100000000000000000000010000100100000000100101000010000000000100000000000000000010100000000000000000101000000000000100000000100011000000000000000000001100000000011000000001101100000001000000100000
00001000100000000000000000011101000100000000001101000000011000000110000000001000000001000000000000000001001110000111000001110000111000000000000000000000101000000000100100000011011100000000110110010110
00011010000000000000000000011000000100000000000010000011100000001001000000010100000000000000000010011100000000000100000011001010010100000000000000000001000100000000010100001100001000000010000110000111
00010010000000000000000000001011100000000000000000000000000000001101000000110110000000000000000010011000000000000100000000000100110001000000000000000000100000000010000110001011101100000111000000000000
00010110000000000000000000001110010100000000000000000000000111001110000000010010000000000000000000010000000000000101000001001010001000100000100001100000000000000101000101000001100100001101100000000000
00100100000000000011000000000110001100000000000000001000110101000100000000001011000011000000000100001000000000001100000010110000000000000001010001100000000000000100101100010000010110000010100000000000
00011000000000000100100000011100000000000011000000000101000110000001000000001000001000100000000100100110000000000000001000010000000000010001011000000000000000000011000100001000110000010011110000000000
00000000000111110101011000111000000000000011100000011100000100000001000000001000100100100000000101000110000000000000011111110000000000000000100000000000000001100000000011001101111000010000011000100000
00000000001000110101000110010000000000000100100010000000101000000000000001001000110111000000000000000000000000000000010001100000000001100000000000000000000010010000000001000010000000001111000011110000
11000000010011101000001111010011000000000100100111000000000000000000100001101000110000000000000000000000000000000000001110000000000010000000000111000110000010100011000000100010000000000011010010101000
11000000011100000010001000000010100000000100111101100000000000000001001001001100000100000000000000000000000000011000000100000000000000000000000111000001000001000011000000011111100000000000000000000000
00000000000000000000100011100011100000000010100111000000000000000011011000111000000100000000000000000000000000011000000000000000111000000000000000010001000000000000000100001111100000000000000010000000
00000000000000000000010010100000000000000000000010000110000000100000000000000000000111000000000000000000100000000001110000000000001000000000000000100000000000000001001001011100000000000000000000000000
00000000000000010000000011001000000000000000000000010010001111100011000000000011100000000000000000000001100000000000010000000000101000000000000000000001000000000110101001011011000011000000000000000000
01000000000000000000000001010000000000000010000110100010010011100000000000000001100000000000000000000100000000000000100000000000110000000010010000010000000000010000011000111011000010100000000000100000
10000000000000000000000001110000000000000010001001100000001100000000000000000000110011000000000100001000010000000000000000000001100000000000101100000010011000100001000000000100000100100000000001001000
00000000000000000000000000100000000000000010001100000000000000000000000000011000011101000000011000001000010000000000000000000010110000000011000110000000011001100010100011000000001100100000000001001000
00000000000000000000000010100000000000000000000000101000000000000000000000011000001000100000001100000110000000001100000000001100010000000011000000000000001000010000000000000001100001000000110011010000
00000000000000110000000000000000000000000000000000000000000000000101100000000000000000000000000000000000000000001100000000011010110000000000000000000000000000000000100000000010000101000001011011010000
00000000000010011110000100100000000000000000000000000000000000010000100000000000000000000000000000000000000000001100000000100000011000000110000011000000010000110001000000000010011000000000000100011000
00000000000010100000001101000000000000000000000000000000000000010000100001010000000000000000000000000011000000000000100000010000010000000110000110000000001110100001010000000001110001010010000001011000
00000000000000001000001110000000000000000000000000000000000000000111000001010000000000000000011000000010010000000101010000000000010000010010000000000000000110000010110000000000000000100000000001000000
00000000000000011000000000000000000000000000000000000000000000000000000011000000000000000000101000000000010000010101100000000111100000010010000001100000000000000110100000001010000000000000101111000000
00000000000000100000000000000000000000000000000000000000000000000000000000000000000000000000001000100000000000100110000000011100000000010010011011100000000000000011000000001010000000000000111101000000
00000011000000001100000000000000000111000000000001000000000000000000001011000000110000000000000000100000010001111100000000110110000000001100010111100000111000110001000000011000000000000010111111000000
00000011000000000100000000000000000000000000000011100000000000000000000000001000111000000000011001010111101001110000000000110110000000000000001000000001100100010000000000000000000000000001110001000000
00000000000000000000000000000000001001000000000100110011000000000000011011110001000000100000010100010010001001100000000000001000000000000000001100001101000100100000000000100010000000000000100010000000
00000000000011000110000011000000001000000000000011000001100000000000000011000001000000111000010100010000101100101000000000000000000000000000000000001010000100100001100000000010000000000000010001000000
00000000000110000101000100100000001000000000000010101111000000000000010000000001110001101100010010000000011100011000000000000000000011100000000110000000000000000001100001110100000000000000001111000000
00000000001110000101000100100000000111000000000001110000000000000000010000000000011000001000000100000010000010000000000000000000000010010000000000000000000000000000000000000000000001000000000100100000
00101000000110000000001110100011000000000000000001001000000000000001011010001010001100101100100100000000000010000000000000000000000001110000110100000000000000000000000000000000000000110000000010000000
00100100000000011000011000110100000000000000000000000000000000000001000100001010001110001100101001110000001100011000000000000000100000000000011000000000000000000000000000000000000000000000000010000000
00101000001001111000101011000011000000000000000000000000011000000001100000001000000010101000010000000000000000011000001100000011011000000000000000000000000000000000000000001000000001010000000000000000
00001000000001000111101010000000000110000000000001100000000000000011000000000000000000001000000001110000000000011000001100000011000000000000000000000000000000000000000000011100000000100000000000000000
00101000010001111000011000000000000110001000000000100000000000000100001011000000000000001100001101101100000000000000000000000000001000000000000000000001100000000000110000010010001010000000000000000000
01100110001110000100011000000000000011000000000000000000000000000000101010000000001010010010001100001100000000000000000000000000110000000000000001100011011111010001011100001110001010000000000000000000
01101000000000000000010100000000000010000001000000000000001100000100000010100000000001010000001001100000000001000000000110110000000000011000000110110001000011101111011100000100000100000000000100100100
00000000000001010000011100000000000100000000000000000000011010001011011101100000001000000000110000001100000111010000000110101000000110011100011110000000101110000001101110000000000000000000000100101011
00000000000000100000011000000000000100000101100000000000110011000100000000000000000000000001101100000100001100111100001010100100001000001000010000000001000001110000100000000000000000000000001000001000
00000000000000000000000000011100000000001000000000000000110010000001100000000000000011000000100010111000001100010100011010011000001000110000001000000011000100000000000000000000000000000000000110000000
00000000000000000000000000010011001000010000000000000110000100000001100000000000000000101111000101000000001101001000000011000000000111100000000001000000001100000000000100000010000000001100000100000100
00000000000000000000000000001110010001000000000000000110100000000001010000000000000000000110000000000000000110110001001011000000000000000000000111000100000100000001001000000101000000010100000001010011
00000000000000000000000000000100010010000000000000001000010000010000100000000000000000000000000001100000000000111110001110000000000000000000000000000100011000000001100110000101000000000000000000110110
00000000000000000000001110000000100100000000000000001001100001100000011000000000000000111000000000000000000000100010111100111000000000000000000000000001000000000001000011100010000000100010110001000100
00000000000000000000001010000000011000000000000000000101000001101001010000001010000001101000000000001100000000011101110001100000000000000000000000000000100000000000000000010000000000100010110011111100
00001000000000000000010001000000000000000000000000000000000001001011011100010010000001100000000001011100000000010010000101000000000000000000110000000000000000000000000100010000000000100011101000010000
00001000000000000000001001000000000000010000000000000000000000110010011010010001000000100000000010110000000100001010000010000100000001100001001000111000001000000000001101100000000000110000010000100000
00000000000000000000001001000000001100101000000000000000000000000010000010100011000001001000000010100000000100000000000000001010000001110000010000000000001010000000000110000000000011110000000000000000
00000000000000000000000110000000001110011000000000000000000000000010001100100010101100010000000000000000000011010001111100001010000001101110010001000000000001000000000000000000000001100000001000100000
00000000000000000011000000000000000100011001000000000000011100000000110000011010100110000000000000000001100000000001110100000100000001111110100000110000000100000000001100000000000000000111011001100000
00000000000000000000100000000000001001000001000000000000110110000000000000000110000000011000000000000001011010000100011100000000000000110001100000000000000000000000011100010000000000000100110111000000
00000000000000000001000010011000000100101000000000000000110100000110000000000010100010000110000000001101011001000000000000000001010000000000010001110000000000000001000000101000000000000100000110001000
00000000000000001100000010000000001000001000000000001000010000111111110000000011000001000000000000001000000001000000000001100001001000000010000010001000000000000010001100100100000000000100010100011010
00000000000000001000000000110101000000000000000000010111000100000110111000100111100000100010000000000000101100101110000000110000001000000011100010001000000000000001110000011000000000000010100000011010
00010000000000000000000000000000000000011000000000011010011100011010001000101011011000111100000000000100001100011001000010100000100000000000000001110000000000000001110000000000000000000001000001101100
00101000001111100000000000000000010100000100000000001100000000000011111100000000010110000000000000000100110000000000100011000001100000000000000000000000001011001000000000000000000000000000000010111000
00000000001001100000000000000100000001000010000000000000000000000000110000111000010000000000000000000100100000000000000000000001000010000000001000000100001000001100000000000000000111000000000011001000
00000000010000100000000000000100000000000000000000000000000000000000000001000000110000000000000000000001000000001000000000000000110100000000000100001010001001000110000000000000001000100000000011111000
00000001110011000000000000000110000000100000000000000000000000000000000001010000000000000000000000001110000000001000000000000000001000010100000001001001000110000000000000000000000000000000000010110000
01000010001111000000101000000000111011111000000000000001000000000000000000100000001000001000000001101100000000000000000000000000000000100100010000000001000000000000110000000000000001100000000010001100
10000011011101000111010100000000110110001000000000000010110000000000000000000000000100000100000001111000111000000111000000011000000000100100010001001011111000000000000000000000000101010000000000001010
10000000001101000010010100000011000000001001000000000000010000000000000000000000000010000010000001000111001000000000001100001000000000011100000001001010010100000000100000000000000111110000000001100010
00011000000010000100000100000000101100000100110100000000100010001000000000000000000010000000000001100001011000000000010000001000000000001100000010000000100000000000000000000000000110010000000000110110
00111000000000000001011010000011101000000100001010000000010000100110000000000000000010001100000000000001100000000000010000010000000000000010011100000001101100000000000000000000000100010000000000110110
00010000000000000000010000000011110000000000101010000010100100000011000000000000000000100000001000000000000000000000011001100010000000000011001000000001100000000000000000000000000010100001000000001000
00000010000000010100100000000000110000000000000100000010100010001010000000011000000000010000010110000000010000000000000110000101000000000000000000000000010000000000000000000001000001000000100000101000
00000111100000100100000000000010000000000000000000000000100000001010000000100011000000010000100000100000000000000000000000001001000001000000001000000000000000111000000000000111100000000010000010101000
00000110000000100000000000000100010000000000000000000000000000010010000010110010000000101000011011011110001000011000000000000110000001000000001000000000000000010100000000000100100000000000100101000100
00000001100000100100000000000001100011000000000000000000000000010010000101110100001000100100000000000000100000000000000000000000000010111000000000001000000000011100000000000011000000010101001000110100
00000000101000110110000000010110110011001100000000000010000000001000011001000000010100011000000000000000000000000000000000001110000000010100000000010100000000011100011000000000000000000100000110000000
00000000101100110100000001000100010001111000000000001101010000000001111011000000100100000000000000000000000000000000000000100001100111101000000000110110000000011000100010000000000000101100000000000000
00111000100100110000000010000000000001001000101100011011010100000000000110000011011000000000000000000001000000000000000000100000000110001000000000000110000000111001000001000000000010101100000000000000
00100000101100111000000010000011100001010000000000001000010100000001111000000010011000000000000000100000101000000000000001000101010110010000000000001110000000111001100000000000000100000100001111000000
01000000000011010000000011111000000000000110100100000000010101100000110000000010010000000000000000110000011000110000000000110000001101100000000000000011000000000000011000100000000100011000000000100000
11100000000101100000000000011010000000000000011000010000010101100000000000000001110000000000000010000000000000000000000000010000000000000000000000100011100000000000011000000000000100010000100101100000
10000000000111000000000000010000100001000000000000010000010000010000000000000000111000000001100011011001000000111000000000111000100010000000111000111000100000000000000100100100000010000000111000000010
10100000101001100000000110001000100010100000000000000010011100100000000000010000010100000000110010001101000000001110000000111000000011000011111100010001010000000000000000001100000000000001000000011010
01000000010010100000000011000010100100010100100000011010011000111000000000010000000010000000000001111110000000000100000000011100011101000100001110000001001000000000000010000011110000000010100000000010
00000001111100100000000001110000000100010100010000011111001100111100000000101000010000000000000011000000000000011000010000000000011000101010100110000000000011000000000010000100110000000010010000010100
00000010100101000000000000010000000100011100010000001101100100011110000000000111010000000000000011100000000110001110000000000000011101001000101010000000100011000000000000000011000000000010001000001000
00000110000000000000000000000000000100010000000110001101000010000110000000000110100000110000000010100000000110000100001100000000000001001111110100001100011000011000001100011100000010000001001110000000
00000100110000000000000000000000000100010000000000100000000000000100000000000011011000000010000000100000000000000010100000000000000000010100000000000000010000000000010101100011001001000001101110000000
00001000100000000000000000000001100000010001100000000000001000101000000001010110000000000001000010000000000000001111000000000000000000110000000000000010001000010000010000000100001001000000000000000000
01101000000000000000000000000010000000000101000000000000101100000000000011010110000001100001000001100000000000001111001010000000000000001010100010100001000111100000000000000011000010000000000000000000
01100101000000000000000000000001000000111000000110110001001100000100000010000000000000110000000011100000000000001101100111000001100000011110100000011011110000000000000000000110100000000000000000000000
00000010000000000000000000000000110011001000100110000001011000001010000011100000000000010101100000000000000000000101100001000001100000000110100100011000111000000000000000000100110000000000000000000000
00000000000000000000000000001001000100000000011000000110011000001001010001100000000000001101100000000100000000001100000100000000000000000000000010000100000000000000000000000010010001100000000000000000
00000000000000000000000000000101000000000000000000000001100000000000110000000000000000000000000000000110000000000110000000000000000000000000000000000000110000000000000000000001000001100000000000000000
