P1
200 200
00000000000000000001100000000000100000000000000000000000000000000000000000000000000000000000000000000000000000000000000000000000000000000000000000000000000000000000000000000000000000000000000000000000
00000000000000000001100000000101010000000000000000001000000000000000000000000000000000000000000000000000000000000011000000000110100000000000000001100000000000000000000000000000000000000000000000000000
00000000000000000000000000001000000000000000000000011100000000000000000000000000000000000011000000000000000000000011000001010000000000000000000000000000000000000000000000000000000000000000000000000000
00000000000100000000000000010000010010000000000000011100000000000000000000000000000000000000000000000000000000000000000100010000001100000000000010100000100000000000000000000000000000000000000000000000
00000000000000000000000000000001000011000000000000000000000000000000000000000000000000110000000000000000000000000000000010000000000010000000000010100001010000000000000000000000001000000000000000000000
00000011100000000000000000001110011001100000000000000001100110000000000000000001000001001000000000000000000000000000000001111000000010000000001000010001100000000000000000000000011100000000000000000110
00000010100000000000000000000110011101110000000000000001001011010000000000000001000000110000000000000000001100010000000011011000000110000000001000000000000000000000000000000000100001000001000000000110
00000010011000000000000000000000001101100000000000000000101011101000000000110111100000000000000000000000001111111000000000000010000000000000001000001000000000000000000000000000001100100010100000000000
00000010011000000000000110000000000111000000000000011001000001000100000001000011000000000000010000000000000001000100000000000000000100000000000010001000000000000000000011000001111101100000110000000000
00000000010000000000000010000000000010000101000000000100000000101100000000000010100000000000111000000000000000010110000001000000011100011000000010001100000000000000000010000000100010010000000000000000
00000101100000000000000001000000000000000000000000000000000000000000110010001101101000000000110000000000000000000111011001000000001100011000000011011100000000000100010100001100000110010010001000000000
00000000000000000000000000000000000000001000000000000000000000000000110010110000011000000000000000000000011000001001010000000000001110000000000010011000000000001100001000010100000100000010000000000000
00001110000000000000000000000000000000011010000110000001000000000000000000100000000000000000000000000000000010000110000000100000000000000001100010000011000000000101001000001000001001000010001110100000
00000000000000000000000000000000000000001100001001000001000000000100000000000000000000000000000000000000011011101110000101000000000000000001100110011011000000001101010000000000000011100011110010010000
00000000000000000000000000001010110000000000001001000111000000001100000000100000000000000000110000000010000000110010000000110000000000000000000110000100100000001000110001000000001101000110001100100000
00000000000000000000000001100000110000000000001001000111000000000000000110000000000000000001100000011001000000011110000000011100000000000000000000000011000001000001100001000000000110000000001000000000
00000000000000000111000010000000111001010000000110000000110000000000000000000000000000000000000000100001000000001110000001000000000000110000000000000000100010001001100001000010000000000001001000001000
00000000000000001000000010101011000110101000000000000010011000000000000000000000000000000010100000101101100000000000000100101000000001010000000000000001000100010011000000001101000000000101000000011000
00000000000000001000010001000000001010000000000000000011011000000000000000000000000110000000110000010000100000000000000100001000001101010000000000000110000100000110111101000000000000000000000000010010
00000000000000000000010000000000000101011000000000000000100000000000000000000000000110000000010000011000100000000000000101000000000001010000000010000000001000001010010111000101000000010010000000001110
00000000000000001100001000000000000001110110000000000000000000000000000000000000000000000000110000001000100000000000000000000000001101001100000011100000001001001011011110001101011000010100000011100000
00000001110000001000011000000000000001111010000000000000000000000000000000000000000000000001000000000000000000000000000000000000000011000010000000000000010100000100000000000000100000001000001110001011
00000010001000000100000100000100000000010110000000000000000000000000000000000000000011000001010000000000100000000000000000000000000000011110100000000000111000000000000000000101100000000001101000001110
00000110110100000011111100000000011000000000000000000000000000000000000000000000000011000000110000000100100000000000000000000000100000000011100000000000011010000000000000000111000000000000000001000110
00000010100110000001001000000000011000110000000011000011100000000000000000000000000000000000000000000100000000000000000000000001110000000000100000000000001001000000000000000000100000000001100011011110
00000001001100000001110000000000010001110010001111000000010000000000000000000000000000000000000000001110000011100000000000000001011000000000000000011100001010000000000000000001000000000000000111111110
00000000111000000011010000000000000010000000001110000000001100000000000000000000000000000000000000000100000100010000000000000000001100000000000000000000000000000000000000000111000000000000001000001000
00000000010000001000010000000000000101000000010000010001001100000000000000000000000000110000000000000010001000100000000000000001011000001100000000000000000000000000010000000000000000000010001011010000
00000000000000001010111000000000000101011100111000101000100010000000000000000000000000110000000000000000001011000000000000000011010000000100001100000000100000000000101000000000000000010001000110000000
00000000000000001010001100000000000011011001010101110000011100000000000000000000000000000011000100000000000100000000000000010010010000110000101000000011100111000000100100000000000000010001000000000000
00000000000000001100001100010000000000000111101000100000001100000000000000000000000000000100011010100000000000000000001000101101100011011000110000000011100100000000011100000001001000010100000000000000
11000100000000001100001101111000000000000010100001000000000000000000000000000001000000000100100001101000000000000000110000101101000011010111100000000111001000100000000000000001001000000000000000000000
10000010000000000001110000001100000000000000000010000000000000000000000000000001100000000000010000001100000000000000000000011010000000001010000000001000011001000000001101100001000100000000000000000000
11000000000000001100100010100110000000000000000000000000000000000000000000000000100000000011101111001000000000000001001000000000000000100010000000110000100110000000011001100101011000000000000000000000
01010000000000000011000101001100000000000000000000000000000010000000000000110001000000000000000001000011000000000000001000000000000001100100000000110001000000000000000001000000110000000000000000000000
00110000000000000000001100011000000000000010101000000001100010100100000000001000000000000000000000000000000000000011101100000000000100100100000000110000000000000000110100100000110000110000000000000000
00010111000000000000000110001000001100000001110000000010100010110100000000111010001100000000000000000111000000000010101100000000000001000100000000001110010000010000010000010001011001001000000000000000
00000011000000000000000010001000001100000000100000000000100001110100000000110101010010000000000000000100000100000100100100000000100000000000000000001001100001001011000000001011011000110000000100000000
00000000000000000000000000101000000000000000000000000000000000000000000000101000001010000000000111000100001001000110010110000000000100000000000000001001100000010011010000001010000000000000001100000000
00000000000000010000000000111000000000000000000000000000000000000000000011001011000100010000000100100110001101110110010000000010000010000000000000100100000100010001100000011000100000000000011010000000
00000000000001101100000000000000000000000000000000000000000000000000000000000000000001101100000011000010011110100001100000000100000010000000000000000100001000000001101000011110010110000000100000000000
00001110000000000000000000000010000000000011000001100001100000000000000000000000000001101100000000100110100011100010100000010000000001001100000000100010000000000011110000000000000100000001000000000000
00110110000001000100000000001110000000000101000001000001100000000000000000000000000000101000000010000101100101000010010000100000000000001110000000010100000000000101100000000000001000000001000000000000
01001000000000111000000000001111000000000000000011001001000000000000000000000000000000101000001010000111000010000110010000100000000011001101000000001100000000001101100000000100010000000000100000000000
00000000000000000000000000000000000000000010000001000000111100000000000001100000000100011100111000000110000000001100110000011110100001000010100000000000011100000010000000001001000000001000000000000000
01110001100000000011000000000001000000000000000000101000110010000000000001100000000100000000011000000110000000000101000000001000000010011000000000000000000000000000000000000000000000011000000000000000
00000010100000000011000110001110000000000000111000010000101110000000000000000000000100000000010000000001000000000000000000000000011100010000001000000000000100000000000000001100000000110000000000000000
00000001000000001110000110001110000000000000111000000000001110000000000000000000000000000000011000000000000000000000000000000000011100100000001110000001000000000000000000010010000010110000000000000000
00000000000000001100000000000000000011000000010000000000000000000000000010000000000011000110000100000111000000000000000000001100000000011100000000000000000000000000000001111110110001100000000000000000
00000000000000000000100000000000000100000000000000000000000000000000000111100000000001101110000110001000100000000000000001000110000000001100010000100000000000000000000001111100000000000000000000000000
00110000000011000100100000000000000011000000000000000000000000011010001000010000000010010011001000001000010000000000000000110000000000000001001111000000000000000000000000000011010000000010000000000000
00111000000110000001100000000000000000000000000000000000000000010011000110010000000001011110000000010000010000000000000000001000000000000001000001000000000011000000000000010001100001111001100000000000
00111000000011000000000000000000000000000000000000000000000000001100100011100000000100001000000000011001110000000000000110100000000000000000000110000000000011000000000000011100110001111000110000000000
00100000000001001110000000000000000000000000000000000000000000000000110000000000001010110000000000001100000000000000000110000000000000011001000010000000000000000000000000001101000000011100100000000000
11100000000000011101100000000000000000000000000000000000000000000110100000000011110000000000001100101000000000000000000111000000000110000001001110000001110000000110001001000000000000000001000000000000
11011100000000011111100000000000010000000010000000000000000000001011000000000111110000000011000000010000000000001100000000000000000001000010000100000001001000001001001000000000000000000000000000001000
01111100000000000000000000000001101100000011000000000000000000011101000000001000010000111000100000000000110000010010000000000011000000000001001000000000000000001010001000010000000000000000000000101000
00011000000000000000000000000010000100001001000000000000000000111001100000000100001100001100010000000001011000010010000000000011000000111000110000000000111000000100000011000100000000000000000001100000
00000000000000000000000000000000000100001110000000000011000000110011100000000010001100000000010000000010010000001100000000000000000001000000000000000000000000000000000000010000000000000000011000000000
00000000000000000000000000000011011000001000000000000100100010000100010000000010010000010100010010000001100000000110000000000000000001000010000000000000000000100000000000000000000000000000010100000000
00000000000000000000000000000000100000000000000000001100111010000011010000000000100000000000000111000000000000000010100000001100000110100001100000000000000000110001100000000000000111001100001000000000
00000000001100000000000000000000000000000000000000011001110000100011100000000000100000000000100100000000000000000010010000010010001011000000001100000000000000000001100000000101001000001100000000000000
00000000101110000000000000000000000000000000000000011101100000100000000000000000110000000010001000000000000000000110001000001100001001100011001100000000000000000000000000000010011011000000000000000000
00000010101110000000000000000000000000000000000000010011100000000000000011000000001000000000111000000000000000010000001000000000001011010001110000001100000001000000000010000000001000000000000001000000
00000010100011000000000000000000000000000000000000001000110000000000000011000000000000000010010000000000000000010000011000000000000111110101000000001100000001100000000100100000000000000000000110110000
00000001100000000000000000010000000000000000000000000001101100000000000000000000000000000011100000000000100000000000000000000000000000001001000000001110001100100000011000100000000000000000000000010000
01100000100000000000111000101000000000000000000000000001101100111000000000000010000011101101100000000111111110110000000000000000000000001010000000000010111000000001111000100000000010000000000100010000
10010000000100000001001100000000000000000000011000000010010000111000000000000101000001111000000000001110001111111001100011000000000000001010011000000000100000000011100000100000000001000000000011100000
01100000001000000010000011111000000000000000011000000001100001001000000000000101000000110000000000010000001011001100000011000000001000001100010000000001100000000001100101000000110000000000000000000000
00010000010100000001010010000000000000000001000000000000000001100000000000000010000000000000000000000010101100011100010000000000011100000000010000000001000000001101100010000001110010000000000000000000
00100011111001001000100010010000000000000000001000000000000000110110000000000000000000000000000110000011010000010000100000000000100100000000000000011000000000000000000000000010000100000000000000000000
00100011101100011100000001010000000000000011111100000000000001000110000000000000000000000000001000001000000000100011000000000001101000000000000000000000000011000011100000000011101000000000000001100000
00000000011100001100000000100000000000000000000100000000000011011100000000000000000000000000000110110000000000100000000000000000100000000000000000000000000000100000000000000000010100000000000001100000
00000000010000010000000000000000000000000000110000000000000011011000000000000000000000001100000000000000101101100110000000000000000000000000000000000000000000110000000000000000001100000000000000000000
00000001110100110000000000000000000000000000110000000000000001100000000000000000000000010011000000000001111011110000110011000000000000000011000000000000000000000100000000000010001100000000000000000000
00000001100000110000000000000000000000000000000000000000011100100100010000000000000000100001000000000001000010111000111011000000000000000011000001100000000101101000000000000101000000000000000000000000
00000001100000100000000000000000000000000000000000000000100010011110101000000000000000010010000000000011110000011100000011000000000000000000000001100000000111110000000010000010000000000000000000000000
00000000011001000000000000000001000000000000001100000000100010010000000000000000000000001100000000000111110000010001110010000000000000000000000000000000000100000000000100100000000000000000000000000000
00000000000001000000001000000010100000000000010001000100100010001011100000000000000000000000000000000111010000011101000010000000000000000000000000000000000000000000000000100000000000000000000000000000
00000000000000000000011000000001100000000000010000000110011100011111100000000000001000000000000001000000010001100101010010000000000000000000000000000000000000000000000000000000000000000000000000001110
00000000000001110000110000000000000000000000100000000111000000110100000000000000010100000001000001001000010110000000000010000000000000000011110001010000000000000000001000000000000001001000000000001101
00000000000110110001010000000000000000000000010001111111000001000100001000000000010110100010100000111000001000000000000111000110000000000111110010010000000000000000110000000000000001001000000000001101
00000000000111110001010000000000000000000000110110010110000000000000000100000000001001010100100000011000000000000000000110000101100000001000011010000000000000000010000000000000000010001000000000000011
11000000000000000001100000000000000000000000001100000110000000000011100100000000000000000111000100000000000000111000000000000101100000000111000000000000000000000000000010000000000010001000000000000010
11000000000010001000000000000001000000000011101100000000000010110000000000000000000000000010000100000000000000000000000110000000000011100011110000100000000000000000010000000101000001010000001110001100
00000000000111111000000000000111100000000001100000000000000010100000000000000000000000000000000100000000000000000000011110100000000100010000000000010000000000000011100000000110000000100000000110011100
00000000001000101100000011101000110000000000111111000000000000011000000000000000000000000000000000000000010100000000001011011000001000001000000000100000000000000000000001110101000000000000000010100000
00000000000100100000000001011010011000000000110110000000000000110000000000000000000000001000000000000000010010011011101000110000001000001000000001000000000000000000000010111101100000000000000001101100
00000000000101000110010000010000110000000101010110000000000000100000000000000000000000000000000000000000000100000011111000100000001000001000000001000000000000000001000010001011000000000000000001011100
00000000000000010100100001010111100000100001110010000000000000000000000000000000000000000000000000000000000000011000001000000000000100010000000000000000000000000011100001100000000000000000000000000000
00000000000000100000010011010101000001010000011100000000000000000011000000000000000000000000000000000000000000010010000000000000000011100000111000000000000000000110100000100000000000000000000111000101
00000000000000000000001000010100000010000001001001000000000000000011000000000000000100000000000000000000000000000000000100001000000000000000011000000010000000110010110000000000000000000000000011000000
00000000000000000000000001001100010010000000000100100000000000000000000000000000010100000011100000000000000000000000000111110100000000000000100100000010001100110001110010010000000000000000000000011011
00000000110000111000101011111110101111000100000101000000000000000000000000000000001100000010000000000000000011101000011001100110000000000011000100000001011100000000100110000111100000000000000000011000
00000001001000000001010011101111101100010010000000000000000000000000011100000000000000000011000000000000000100011000000010101100000100000000101000000100011000000100110010010000010000000000000000000000
00000000110000000001010101000010100000100010000000000000000000000000100000011000000000000000100000000000000010101000000001000000000100000000100000000100111110001000100000001110100000000000000000000000
00000000000000000000100010001110000100000100000000000000110000000001000100110110000000000000000000000000000001000000000000100100000100000000100000000010101010001001000010000011000000000000000000000000
00001100000000000000000001000000100001000000000001100000110000000010000010010000000000000000000000000000000000000000000001100100000000000001011000100001101011000000000111000010100000000000000000000000
00001100000000000000000000000000010101110000000001100000000000000010100110010010000000000000010000000000000000000001011111010100000001100011011001000110111110111000000110000010100000000000000000000101
00000000000000000000000000011010001000000000000000000000000000000010100000001000000000000000010000000010000000001001010101100100000001010011011000111111001000000110100000000100100000000100000000000001
00000000000000000000000000101110000000000000000000000000000001100001000100100000000111000000000000000010000000010111000100001100000000100000100000011101000001010011100000000100100000100010011000001101
00000001100000000000000000100010000000000000000000000000000010010010010000100000000000000000000010000010000011011100101111111100000000000000000000000000000001010001000000101110000000100001100100000101
00000001100000000000000010001000000000000000000000000000000001010001010010000000000000000000000010000000000111111000001001100000000000000000000000000000000000101110000001010010100001000011111100000000
00000000000000000000000100101110000000000000000000000000000000100000110100000000001000000110000000000000000110000000010001100000000000000000000000000000000000111100000001000001000001100000111111000000
00000000000000000000000111000000000000000000000000000000000000000000000000000000001010001011000000000000001110110000001110000000000000000000000000000000000000011000000000100000100001100111001100000000
00000011110000000000000010000000000000000000000000000000000000000000000000000000010010011011000000000000000011110000000000000000000000000000110000000000000000000000000000001010010101110111000000011100
10100110001000000000000000000000000000000000000000000000000000000000000100000000011000011100000000000000000000000000011010000000010000000000110000000000000000000000000000000000011110110000001000000010
01111000001000000000000000000000000001100000000000000000000000000000000100000000000010000000000000000000000000000000010011000000101000000000000000000000000000000000000000000000000010110000000000010010
01110111010000000000011000000000000001100000010000000000000000000000000000000000010000000011100111000000000000000000011001000001001000000000000000000000000000000100000000000000000000100000000001000000
00000010000000000000010100100000000000000001000100000000000000000000000000000000011000000011000101000000000000000000000111000001010000000000000000000000000000001100011100000001001101000000000011010100
00000000000000000000001000100000100000000001000010000000000000000000000110000000000000100010000111000000000000000000000001000000000000000000000000000000000111011100100010000000111001000000000000010000
00000000000000000000000000010000100000000010000001000000000100000100000110011100000000001100000000000000000000000000000000110000000001100000000000000000011101100001000110000011110110000011000000011010
00000110000000000000000000000001000000000011001000000000000011101010000000010010000011101000000000000000000000000110000000110000011000000000000000000000100001100000100100001101001110000110010000110101
00001011000000000000000000000000010000000000000000100000001101100010000000100010000000000000000000000000000000000110000000001110011000000000000000000001000010000000110011001000011000001000001001000110
00011001000000000000000000000010101100000000001000000000010100101100000000111111000000000000000000000000000000000000000000001110100000000000000000000010000110000000111011010001010000010001010000101100
00010100000000000000000000000001100010000000001001000000010000001100000000010001000000000000000000000000000000000000000000000110111000000000010000000001010000000011001011010010000010000000100000010000
00100100000001101101100000000001000010000000001110000000010100001100000000000001000101000000000000000000000000000000111000000011110000000000111001100000100000000100100000001000000101000001000000000000
00101100000111100100010000010000110110000000000000010000001100011100000000000000000001000000000000000110000000000001110100000001000000000001000000000000000000000001100000001010000000011100000000000000
00100100001001001100000000101000110110000000000000010111100000010000000000000000010000000000000000001001000000000000000110100000000000000011000001100000000000000000000000000110000001000100010000000000
00011100000001011000001000011000001000000100100000000000011000000000000000000010011001000000000000000110000000000101001110010000000000000001000000100000000001100000000000000111001110000000001100000000
00011000010000010000000000000000000000001101100000000111100011000000000000100110000100100000000000000000000000000001100110000000000000000001100000100000000010010001000000000000011100011100010100000000
11000000000000001000110000000000110000000100100000010000001010000000001100001100000101000000000000000000000000000011100000000000001000000000010001010000000010110001110000000000010000001000110001000000
11000001001000100010001111000000010000000111100001100000000100000000010000000010000011000000000000000000000000011000000000000000011110000000000001010000000001100100011000000000000000000010000110000000
00000001001000100111000111100010110000000010010000000110000000000000010010100010100001000000000000000000000000011000000000000000100110000000000001110000000000000101011110000000001100000001010100000000
00000000110000001000000110010011000000000000100110000101101000000000001011010001010011100000000000000000000000000000000000000000010001000000000001000000000000001000100011000000001110000000100000000000
00000000000000000000000001110110000000000000000100001101000110100000000100000110111010100000000000000000000000000000000000000000001110000000000000000000000000000110000010000001010010000000000001110000
00000000000000000000000001111100000000000001000000000101010111000000000000000101000000000000000000000000000000000000000000000000001110000010000000000000000000000000000010000000001010000000000001010000
00000000000000000000000000011100000000000010001000011111111000100000000000000010000000000000000000001100000000000000000000000000000000001000000010000000000000000000000100100011010100000000000011010000
00000000000000000000000001110000000000000011010001110000010000000000000000010010000000000000000000001100000000000110000000111000000000001000000010000000001100000000000010100000010100000000011010100000
00000000000000100000000000110000000000000000000001010000000000000011100000010100011000000000000000000000000000001101000000100000010000001011100010000000001111000011000001000011001001000001100000010000
00000000000001010000001111110000000000000000000001100000000000000011111000000000011100000000000000000000000000101001000000111001111000000000010000000000001001100010000000000001110110100001000101010100
00000000000001010000010100100000000000000000000000000000000000000010101000000000011100000000000000000000000000111011100000000110010100000000111000000000001101000100001000001000110010110001000100010100
00000000000000100000110001100000000000000000000000000000000000000010100011000000000000000000000000000000000000101000110000000000100000000000010000000000001010100010001000001011000001000000100110000000
00000000000000000100010001000000000000000000000001000000000000000011000000100000000000000000010010000000000000000001001000000011000000000000100000011000000000111000000100000010000000000000011110000000
00000000000000001010000101000000000010000000000010100000000000000110000000000000000000000000011011000011100000000000001000000010010000000001100100001010110000001110001000010000000000000000000110001000
00000000000000001010000000000000000111000000000010100000000000000000010000010000000000000000001001010111010000000000000000000010010000000000101011001000110000011110001000000100000000000000000010010000
00000011000000000100000000000000001101100000000100000000000000000000001101001000000000000000011000101101001000000010010000000011100000000000100011000100111100101100100000000000000000000000000011110000
00000011000000000000000001000000000011100000001100000011100000000000000001010001100000011000011001001000101000000001100000000000000001000000000010001000011100000001110001000000000000000000000001000000
00000000000001000000000010100000000001100000000000000010000000000000000000000001010000010000010010001000000000100000000000000100000011100000011011000000011101011000110001001000000000000000000000000000
00000000000000111100000110100000000011100000000000000011000000000000000000000000100001010100110000010000000001010000000000000100000100010000001011000000010010000000010011101100000000000000001101110000
00111000000000001100000110101100000100100000000000000000000000000000000000000000000011111100010110100000000000000000000000000000001110111000001110000000001000000001100011111000000000000000010000110000
01001000000010010010000010100010001100100000000000000000000000000000000000000000000000000000001100000000000110100000000000000001110000001000110110000000000000000000000000000000000000000000010000000000
01000100000000001011011010100010000100100000000000000000000000000000001110000000000000000000011100000000000111001000000000000000000001011100101000000000000000000000000000110000000000000000011010100000
00111100000000001011000010100110000101000000000000000000000000000000010110000000001100000000111100000000000000001100000000000010000000001000110000000000100000000000000000011100000000000000000010000000
00001000000011010000001000001100000000000000000000000000000000000000000100000000001110000001010000000000000000010100001100000100000111110000000000000001110000000000000001000001000000000000000000000000
00000000001100000000000011010000000000000000000001100000000000000001000000000000001101100001010000010100000001011000010010001101110000100000000000000000000000000000000001010101000000000000000000000000
00000000000000011000000100000000000000000000000001100000000000000000000000000000000110100001110000010100000001001000001011101111000000000000000010000000001011010000000000000000000100000000000000000100
00001000000101100010000001000000000001100000000000000000000011000001000000000000000010100000000011010100000010000000000000010000000000000000000100000000001010001100000000101010111010000000000000011011
00001000000000000001110110001000000001100001000000000000001001000000000000000000000001100000001110000110000001000000000100000000000000000000000011111000100010101110000000100000111010000000000100011011
00000000000000000000011000010100000000000001000000000001100000110100000110000000000000100000010010001000000000000000010000100000000001100100000001000000000010000101100000001110000100000000001110010011
00000000000000000000010000010010000000000001000000000000000000000110000011000000000000000000100100000001000000000000001000000100000001000010000000000000011011111001100000001110000000000000010001001100
00000000000000000000011100001100000000000000000000000000100110110000011111000000000000000000100100001010000010000000000110011000000101110100000000000001100111110001100000000000000000000000110101100000
00000000000000000000001100000000000000000000000000000000011111000001000000000000000000000000111000001000000101101110000010001000000110000000000000000011000100000000000000000010000000000100110100000000
00000000000000000000000100000000000000000000000000010000000000000100000000000000000000000000011000000000000111110000000001110000000000000000000000100000000000000000111000000101000000000010010100100101
00000000000000000000001010000000000000000000000000010000000010000011000000000000000000110000000000000000000100000000000011111000000000000000000010100001001000000011000100000101000000001111100000001001
00000000000000000000010010000000000000000000000000010000000110000111000000000000000001000000000000000000000011001001000110001100000000000000000001100000110000000000011000000010000001100011101111100101
00000000000000000000010010000000000000000000000000000000001000000000000000000000000000100000000000000000000010011100100011101100000000000000000000110000000000000011000000110000000000101010101101000000
00000000000000000000010010000000000000000000000000000000000110001010000000000001100000011000000000000000000001000001100001100000000000000000000000101000000000000000101000110000000010101101010101100000
00000000000000000000010010000000000000110000000000000000000010000100001000000110010000100100000000000000000001000001000000000000000000001000000001101100000100000000101000000000000001000000000111100000
00000000000000000000010010000000000110001000000000000000000000000100010100001100010000100110000000000001000000000000000000000010000000011110000001101000001010000000011000000000000000000000000000000000
00000000000000000000001010000000000110100100000000000000000011000001100010010110100001010001000000000001000000001010000000010010000000000001000000110000001010000000010100100000000000000011000001010000
00000000000000000000000100000000000110101110000000000000000100100001000100101000000011100000000000000000000000000110110000011100000000000001000010000000000100000000100000000000000000000011000000010000
00000000000000000101000000000000000000111110000000000000000010100001000000110000000000000110000000000010000000000000000000110000010000100000000011000000000000000000010000000000000000000000000000100000
00000000000000000000100000000000000110010100000000000100000000100000110000110000000000000000000000001100000000110101000010010000101000010100000000000000000000000000001110001000000000000000000000010000
00000000000000000001000000000000000000001100000000010001000000100100000000000000110000000000000000000110000000101000000000001000000000000010000000000000000000000000000000100100000000000000010010000000
00000000000000000000000000000000000000001100000001000000100100010100000000000000110000000000000000000000110000110011000000000000000000000110000000101000000101000000000000011000000000000110011111100000
00000000000001100000000000000000000000010000000010001011000011001000000000010000010001100000000000000000110000000011000100000000010000000011000001101100010000110100000000000000000000000100100000100000
00000000000110101000000000000000000000000000000001101100001010000000000000101000000000000000000000011000000000000000000010000000010000000000000000000100000000110110000000000000000000000010010100001000
00000000000000000000000000000000000000100000000000110000000110000000000001101100000000000000000000011000000000000000000001101101100000000000000000110111010100000011000000000000000000000011000000110010
00000001000101000000100000000000000010010000000000000000000000000000000001001000001000000000000000000000000000000000000000000000000000101000000000001110000100110011100000000000000001110000101001100010
00000011100010000000011000000000010110001000000000000001110000000000000001110000010000000000000000001000000000000000000000000000000001011010000000000010000000010000000000000000000111110000011000001001
00000011100000000000111000000000010110101000000000000001010000000000000000000000010010000000000000011100001000000110000000001100000010010001100000000100000011100000000000000000000000000000000000001101
00000000010000000000010000000000000000010000011100000001010000000000000000000000000000000000000011100000010010000000000000001100000010010000000000000000000110000000000000000000000000101000000000001110
00000001010000000000000000000000000011100011100000000000000000000000000000000000001110000000000011001100010000000000000000000000000001010100010000000000000100000000000000000000000000111000000000000000
00000001110000000000000000000000000000000101101011000000000000000000000000000000000000000000000000000000010010000000000000000000000001010100010000000000100100000000000000000000000000110000000000000000
10100000000000000000000000000000001001000100100001000000000000000000000000000000000000000000000000000110000000000001010000000000000000000100010110000000000000000000000000000000001111110000000000000000
11000000000000000000000000000000001110000010000101000000010000000000000000000000000000000000000000101111001000000001000000100000000000000011011000000000000000100000000000000000100110001000000000000000
01000000000000000000000000000000001000000000000110000000101000101000000000000000000000000000000001111000001000000001001000100000000000000000001000000000000001000000000000000011000010010000000000000000
00000000000100000000000000000000000000000000000000000000101000100001100000011000000011000000000010001100110000000000000000100010100000010000000000011100000001100000000000000011110000001000000000000000
00000000001110000000000000000000000000000000000000000000000001101100100010101100001001001000000001101000000000000000000000001000000010001100000000100100000000000000000000000100001000101000000101110000
00000000110111000000000000000000000000000000000000000000000000111001001101101001000010010100000001101100000000000000000000001001000100000010000000000011000000000000000000000010010000110100000101110000
00000000110010001110000000010101110000000000000000000110000000011100001001100110010000100100000000011000000000000000000000001001000100001001000000000001000000000000010000000011000000000100000100000000
00110000001110100001000000110111100000000100000001110110110000001000001001001010110100011000000000000000000000000000000000000110000100011001000001000101000000000000001000000000000001111000000000000000
01101000001000000010011100000000110000001011011001000110100011100000000110000000001000000000000000000000000000000000000000000000000001010110000001010100000000000000011100000000000100010000000000000000
10001110001011000100010000110000000000000011101001101101100010100000000000000000001000000000000000000000011000000000000000001110001000010110000000110101110000000000011100000000000100001000000000000000
10101000001100000000011000011000000001000100010000011000000100010000000000000000000000000000000000000000011000000000000001011100011000001000000000000011110000000000011100000100010000000000110000000000
10110000010000000000000000000000000011000100000000000000000100010000000000001110000000000000000000000100000000010000000000110000110000000000000001100001001100000000010100001010010000001000000000000000
11100001000100010000000010000000000010011000000000010000000010011000000000000110000000000000100011000011000000110000000000110000111000000000000001100000000010000000001000010010000001111000010000000000
00000011101000001000001100000000010011011000000000101000000000100100000000000110000000000000100101000001000000000000000000000000010100001100000001100000000010000000000000110110000010011000101000000000
00000011001100001000001101100010001100100100000000111000000000000100000000110010000000000000000010000000100000000000000000000000011000001100000011000000011010000000000000110000000000000001101001110000
00000010100100011000000010000011001101110011000000011000000001101000000000101010000000000000000011000100000001110000000000000000011011000000000011010000011100000000000101000010010000000001100100010000
00000010010011000000000000000000000100101011000000000100000000010000000000000010011100000000000011000111000110110000000000000000111001100000011000110000000010000000011000000111100000000000110110010000
00000001010000000000000000000000001111101001000000001100000100000100000000000100001000000000000011000000000110000000000000000000001101001010100100000000001111000000011100000111000010000000010100000000
00000000100000000000000000000000001100101010000000001000001010000100000010000000000000000000000100100000000001110000000010000000000100111000111100000001001001100000010011010000001101000000011100000000
00000000000000000000000000000001000000101010000000000000000000000100000101000000000001100000000011011000000001110000001001000000000011001001011000000001000000000000001111100100010001000000001100000000
01100000000000000000000000000010101001010001000000000000000000000000001001000000000001100000000000011000000000000000001000100000000000000010000000110011000000000000001101100010000000000000011000000000
01100110000000000000000000000110111101111010010011000000000000000000000110000000000000000000000000111000000000000000001001000001100000000000000000110011000000000000000000010100100010000000000000000000
00000110000000000000000000001110001101111011111101000000000000000100000000000000000000000000000000000000000000000000000100000001100000000000000000000000000000000000000000000000011100000000000000000000
00000000000000000000000000000101000101111010010101000011010000000100000000000000000000011100000000000110000000000100001100000000000000000000000000000000000000000000000000000000000001100000000000000000
00000000000000000000000000000010000010000100000110000011110000000100000000000000000000011000000000000110000000000000001000000000000000000000000000000000000000000000000000000000000001100000000000000000
