P1
200 200
00000000000000000001100000000000100000000000000000000000000000000000000000000000000000000000000000000000000000000000000000000000001000000000000011000000000000000000000000000000000000000000001000000000
00000000000000000001100000000010011000000000000000000000000000000000000000000000000000000110000001101111000000000011000000000010111000000000000101000000000000000000000000000000000000000000010100000000
00000000000110000000000000001101100100000000000000000000000000000000000000000000000000010110000000001000100000000011001110001111010000000000000000000000000000000000000000000000000000000000000000000000
00011000000100000000000000001011000000000000000000111000000000000000000000000000000000000000000110110010100000000000000000001101001000000000000000000000110000000000000000000000000000000000001100000110
00010000000000000000000000001000000001000000000011001000000000000000000000000000000000001100000111000000000000011000000000011001011000000000000001110001001000000000000000000000000000000000011100111101
00001011110000000000000000000000000010100000001100110000000000000000000000000000000100000000000000000000000000100100000000000001001011000011000000000001100000000000000000000000000000000000011100110010
00000101110000000000000000000000010010000000010010001110011000000000000000000000000001101100000000000000000000011000000010111110110000000000000000000000000000000011000000000000000000000000000000110100
00000000000000000000000000000010001100000000000010000110011011010000000000000010100000101100011100000000011000001000010001000101010111000000000110000000000000000111000011000000001000000001000000001110
00010000010000000010000000000001000000000000010100000000010001010000000000000111100001000001100100010000101000000000010101001100001010000000000011000000000000000011000000010100110110000001100000000000
00010000010000000000001000000010000000000000110100000001000001110000000000000100000000000010001001010000110000010100001001100000100000000000000001100100000000000001010010000000010001000000100000000000
00011111000000000000000111100000000000000000000000000000000000000001000000111000000000000010000000100000110000100100000101000000000111110000000011001000000000000001110010001100001110000001010001100000
00000000000000000000010101110000000000001111000000000000000000000110110001001000111000000100100000110001010100010000010000011101100000110000010110001100000100000001110000110000000100000001100011100000
00010100000000000000010001001100000000000110000011000001100000000000000010001000010100000100100000000000101110010100010101101110000010100000010111001100010100000001000000000000000000000000100011100000
00010100000000000000000000110111000000000100000011000001100000000101000001011000000000000100100000000001000001011010010000100000000001110000101101001100000000000010100000000000000001000000000000000000
00000100101000000000000000110101000111000000000000000001100000000010000000100000001100000100000000000000011011111011001111001110000100110001110000001100000000000010100000000000000011101100110000010000
00000000000000000000000000001010000000010000000001000011100000000000000000100000000000000100000000000000000001100110000001000001001000000000001100101010000000000001000011100000000110111101000000010000
00000000000000000000100000000001100011100000000001000000100000000000000000110000000000000100100000100110000000000000001101101000101000000000001100001110000000000000000000000000010110000111000000000011
00000000000000000000000000000000000001100000000000100010100000000000000001010000000000000011000010010001000000000000001100100000010000010000001000010000000011000000000000000000101100100000000011011000
00000000000000001011100001100101000010000000000000000000000000000000000000000000000110000000000000010010000000000000000001101011011000101100010010000000000011111000001000000000001100000000001001000000
00000001100000000100000010110111000011000100000000000000000000001100000000000000000110000000000100111100000000000000000001000000010000100100000111000000010000001000001111000000001100000000100101001001
00000001000000000001100000101100000001001010000000000100000000010001000000000000000000000000001111000000000000001010000001100000000000011100000011000000100000010000000011100000000110000000010100001000
00000010100000000010100001001100000010001010000000000100000000001010000000000000000000000000000000000100000000110001000000010001000000000000000011000000000000010000000100011011101000001111011010011000
00000000111000101101100000011000011110000100000000000000000000000000000000000000000011000000011111001010000001110110000000000010000000000000000001100000110011000000000000111010011000001110000100001010
00000011011000011100110000001101111010000000000000000000000000000000000000000000000011000000001011001001000110110000000000000000000001100001100000000000001100000000000000100000110000000010000000000110
00011010111000001000000000001101111011011000000000111110000000000000000000000000000000000000011000000101001011000000000000000000000001100001100000001000000000000000000000011111100000000000000000000000
00000000000000000000000000000000000110100000000001001110001000000000000000000000000000000000011100000001100000000000000000000000110000000000000000001000000000000000000000010100000000000000000010100000
00000000000000000001010000100000001100000100000001111001011000000000000000000000000000000000000111000000000011101000000000000011001000000000000000001000000000000000000110001100000000000000000010010000
00000000000000000000110000000000001011111000000000100000100010000000000000000000000000010000000111000000000011111000000000000011011110000101000000000000000000000000000011001100000000000000000010100000
00000000000000000010001001100000000001000000000000000001101100000000000000000000000000011000000000000000011000011011011100000111001110001100110000000000000000000000011100011000000000000100000000110000
01100000000000000100001101000000000000000000100000100000000100000000000000000000000000101010001111110000011000000111011010000000000101100001000000000000000000000000000000001100000011001011000000000000
01010000000000000100000101100000000000100001110001100000000000000000000000000000000000011111000100001000000000000011001100001010000010100000000000000110100000000000000000001110000000001010000000000000
01010000000000000100100011100000110010000001001000000000000000000000000000000000000000011010100000000000000000000000000110110010001000000000000000010000111100000000000000101100000101000100001100000000
00011000000000000011100001100000000000000000011000000000000000000000000100000001110000011101100000110000000000000000000000110100010010000000000000001000101100011000000000110101001100000000010000000000
00001000000000000001110101100000000000000001010000000000000001000001001100000000000000000101000000011000000000000000010001111000001000100010000000000000111100100100000010010110100000000000011100000000
00001100000000000000110101010000000000000001100000000000000001000010011101110000000000000000000000110100000000000001110000110000010000010011000000001101100001000000000111010000110000001000011000000000
00001000000000000000000100100000000000000000000000000010000011000000111000011010000000000000000011000100000000000001000000110001101100110000001000000100000000100100000000100000110000110000011000000000
00000110010000000000000101101000001100000000000000000000000000000110000000000011000000000000000001010100000000000000110000111110000110010100111000000011101100100000010110000001100000111000000000000000
00000111000000000000000011000000001100000000000000000010000000000110000000100011100000000000000011000000000000000010101000011000101000001100111000000000111000110100000100000001000000110000000000000000
01100000000000000000000001111000000000000000000000000111000000000000000001100000110000000100000010000000000000000011000000110000100000010000101000000000100100100010101000000010001100001000000000000000
11100011001010100000000000010000000000000000000000000111010000000000000011100111100000011100000011000000100000100000001100100111000000101000000001000000011000010100010000000010001100000000000100000000
11100110001010011000000000010000000000000000000000000001001000000000000000000111000000110000000100000011010001010000000000000100000011010010100000110010100100000000000000000101001100000000001010000000
01101110000000011000000000000000000000000000000000000000111000000000000000000110000001000000011010000010010010000100000000000101100111110111000000010000011000000000000000000111000000000000001010000000
00111000000000000000000000000000000000000000000011000000000000000000000000000000000001011011011011000000100001001110000000001001111000000010000000001000000000000000000000000110000000000000000100000000
00010000000000000000000000000010000100000011100100100000000000000000000000000000000000010111000011000010100000110001000000001100110000000000000000000100110000000000000000000000000000000000011111000000
00000000000000000000000000001101001000001101100000000000000100000000000000000000000000001110000000000011000000010101000000000000000010000001000000000000010000000001100000000000011000000001000000100000
11000001100000000011000000001001100100001100001010100000001000000000000000110000001110000000000000000000000000000110000000010000001010000001000000000000000000001110100000001100010110111001000000100000
11000010100000000011000001011001001100000010101000100000001010000000000001101000000000000000000000000000000000000000000000100010001100000000100001100000111000001100000000001100001110001011010101000000
00000001000000000000000011000000001010001100000011000000001011000000000010000000000000000011000000000000000000000000000000100010001111110001000001100001001000000000000000001010000110000000000000000000
00000000000000000000000110100000011100001100001100000000011011000000000111110000000000001100000000000000000000000000000000000000011011101101000000000001111100000000000000000100000010000110000000000000
00000000000000000000010110000000110100000011000000000000001011000000000010011000000000100111010100000000000000000000000001001000011100001100001000000001101100000000000000001010011010000110000000000000
00100000000000110001100111000000010100000000010000000000000101010000000001000111000011010100011000000010110000000000000001101100011000110000111100000000111000000000000000001110110010001001000000000000
01000000000000100000110111000000011100000000000000000000000011101100000001000001100011011110001000000011010000000000000000011000000000000011101110000000010000000000000000011110000101001111100000000000
11010100000000011000100110000000000000000000000000000000000001101100000000000000000000001111101000000100111000000000011100010100000000100010110001000010111111000000000001100010000000000110110000000000
10011001100000001101100000000000000000000000000000000000000000100100000000010000000000000010111000000000011000000000001111100000000000110101001110000001101111000000000001000010000000000001010100000000
01111010000010000101000000000000000000000100000000000000000001000100000000000010000000000000110000001000010000000000011100000000000001000000001110000011101000000001100010110010000000000000011000000110
00000000000010001110000000000000000000000000000000000000000000101000000000000110000010000000000110011100110000000000001001000000000000101000000000000000001100000011100111010110000000000000000100010010
00000000000000001000110000000000111000010101000000000000000000010000000000001110100101000000000001011011100000001110001011000011000000010000001000000000011000000010000001000000000000110000000000000000
00000000000000000000010000110000111000010100000000000000000000000000000000000000011101000000001101000111000000001000000111000011000001000000011000000000011000101001000000000000000000000000000000000000
00000000000000000000001000101100000000010000100000000000000100000000000000000000100010000110000001100010000000001010000110000000000001100000100100000000000000101000000000000001100000000000011010111100
00000000000000000000001110010011000000100000100000000000001100000011100000000000000110001011000000000000000000000000000000000000000000110001100000000000000000101000000000000010110000111110001100000000
00000000000000000000001100000111100000100010000000000011101000001100100000000110100011001101100000000000000000000000000000001000000000110000010000000000000000100100000000000100100000110001000100000000
00010000000000000000000000100011111001000100000000000011000001011101100101110110111000000001110000000000000000000000010000001110000000000000000000000000000000010001100000000101000000010000000000000000
00000000001010000000000000100000101000110000000000000011000000101101000101000111011101000001000000001100000000000001000000000000000110011000001100000000000000001110111000000011111100001000100000000000
00000000010010000011100000000000000000000000000000000010000000000101000000110000000010000000000000000010000000000010110000000000000010011100001100000000000011001001000000000000111100000010010000000000
00000000010011010000100000000000000000000000000000000110010100000001000000110000000000000110000000001100000010001010000000000000000100100010001100100000001000010111100000000000100010000000000000000000
00000000011000001100000000000000000000000000000000000100100001000011000110110000000000011010000000000000000000001110000000000000000000011010011100001000001111000111100101100000000010000000000011000000
01000000011100000101100000000000000000000000000000000000100000100000000000000000000000010100000000000000001110001001111100000100000000000101110100001100000000011000000101100000000100000000000001100000
10100000000000000100100000111000000000000010000000000001100000000000000011100010000000010010000000001100011100001101011010000000000000000000110000010010000000101000011000000000000111000000000001000000
00010000000000010111100011001000000000000011000000000100001011110000000000000010000000001111001000001110010000000010000110011100000000000000000100000010000000101100000000000000000000000000000000000000
10100000000000010110100011000000000000000101011000000100000000000000000000000010000000100011110000001100001100000010101100011001100100000000000100001100000000100001000000000000100000000000000000000000
01100000000111011000011101100010000000000000011000000000000000000100000000000000000000000000100000001110000010000000111000001000010010000000000000010000000000101000000000000000000000000000000000000000
00000111000010011100001100001001000000000101100000000000000000101110000000100000000000000000000100000110000000000001011001001100001010000000000000010000000000111001000000000001010000000000000001100000
00000110010101101110101000000011000000000100000000000000000001000101000001000010000000000000000100110101000000000000110010000000000000100000000100000000000001011001000000000000100000000000000001100000
00000011000000010000010000000011000000000100111000000000000000101011100000000101000000000001000100001010100000011100100010001000011100010000000010001000000001010001000000000000011100000000000000000000
00000110001100000100000000000000000000000000101000000000000000010011000000000000000000000011100000000010100110001000000000000000010110010011000000000000000000100000000000000010000100000000000000000000
00000111100100000100000000000000000000000001000000000000010000000001100000000000000000000110001110000001100011100110000000000001011000111110100111000000000100000000000000000101000000000110000000000000
00000100000100000011000000000000000000010001100000000000001000000000100001110000000000000011010010000000000010001110000000000000100000110001100110000000000100000000000110000010000000000000000000000000
00000010001000000011100000000010000000010001111000100000011010000000000010000000000000000001110000000000000000000000000011100000000011100001111000000000000100000000000011000000000000001001000000000000
00000000000000000111111000000101000000001111010111010000001000000110000001100000000000000001000101000000000010001000001101000000001000100000101100000000000000000000000001000000000000000010000000000000
00000000000011000111101000000100110100000000100011111000000000000001000000000000000000000000010110000110000111001000000101000000011000000000111100000000000000000000011000100000000000000000000000000110
00000000000011000010101001100010000000000000011010000000000000011101000000000000011100000011010000001001100011101000000101000000100011000001000000000000000000000000011000110000000000000000001011011110
00100000000001000011110001100000000010000000000000010100000000100000000000000000000000011100100000001111100001110000111000000010111000000001111011010000000000000000111010011000000000000000010111110010
11000000000000010110000000000001010010000000000000001000000011000100001000000000100000100100000000000000110000100000111000000010000000000010010000100000000000000000000111011000000000111000001001110110
01100000000001101100000000000000000000000000000011100000000011011100111000000000000000010110000000000000001000100000100000000101000000000011100001000100000000000000000110011111000000100000000101000010
00000000000000001100000000000000000000000000000011100000000011100000000000000000100000001001001110000000100101010000010100110100000000011000000001011000000000000000110000111110000000010000000001000000
00000000000001100000000000000000000000000000000111000000001000000000000000000000000000000110000000000000110101011000010101000010000000000000000001000000000000000000101000000000000000110011000000110000
00000000000010100000000000000000000000001000100010000000000100000000000000000000000000000010100000000000001111010000111111000000000001011000000001010000000000001000001000000000000000000011000001110000
00000000000001000000000110000011000000010111110000000000001000000000000000000000000000000000000000000000000000100001100011011000000001100000000000000000000000101000010001111100000000000000000000001100
00000000000001000000001101000101100000010001010000000000000000000000000000000000000000000000000011100000000001111100000000000000000001000000000000000000000000101000000001110010000000000000000000001100
00000000000000001100011000101010000000010000010000000000000000000000000000000000100000011100000111110000000000001010000000000000000000000000000000000000000000001000000001100100000000000000000000001100
00000000000000000010001000111000000000001011001100000110000000000011000000000000011000011100000111000000000000001000000000000000000000000001000000000000000000000001101100001000000000000000110001101000
00000000000000110010010100111000000000000001011010000000000000000011000000000000110000010010000000000000000000000110100000000000001101000001110000000000000000001010101100110000000000000000001000110000
00000000010000110110001100100000000000000101000001000000000000000000000000000000000000001000000000000000000000010010110000100000011110000100011000000001010000011000011010110000110000000001010000000011
00000000001111111000001001000101101100001001000110000000000000000000000000000000000000001000100000000000000001100010110011011000111100101000001100000110110000001010000000000000110000000000100000000011
00000000011011000000000000101000010000011010000000000000000000000000000011000000000000000000100001010000000001101010110001010000110001011000010000000010101000001101000000000000000000000000000000000000
00000000000000000000000001100000000001001000000000000000000000000000000111110000110000000110010001010000000001001011101010010000111000010001000000000000001000000001100000000100000000000000000000000000
00000001000000000001010000000000000001010000000000100111000000000000001101010001000000000110000001000000000010000001001111000000111101000101000000000000000110000000100010111011000000000000000000001000
00000001100001000000100000000000100000100000000000111110000000000000000111000000110000000000000000000000000001001111001100010000011011000000000000000000110110000001000000111010000000000000000000001000
01010001100000000000000000000001010000000000000001010010100100000000000011110000000000000000000000000000000000111001000110011010000101111110100000111001000110000101000011101011000000000000000000001000
00001100000000000000000000000110010000000000001100100010110111000000010000010000000000000000001010000000000000000011000011101110000000101111100000100000110000001110000000000000000000000000000000000000
00000100110000000000000000000010100000000000000000000011100011000001010000000000110000000000101010000111000110000010000000001100000000000011000000000000100010000000000000000001000000000011100000000000
00000010000001100000001000110111000000000000000000000001000001000000110000000000100110000011000110000000000000110100000000001000001100010000000000000000000011000110000011000000110000001011100000000111
00000010001000000001111101110000000000000000000000000000100001100000000010001110011010000000000000000000000110100111000001011100000010000000000000000000000001010110000100100000100000001001001000001001
00000001000000000000101100010000000000000000000000000000000010100000000110001100000100010000000000000000000001100000000010111110000000000000000000000000000001011011100001100011101100001000000001100010
00000000000000000001110001100000000000000000000000000000000000100000001100001110000000101100000000000000000000010010000100000000001001000000000000000000000000111101100000000101001000001100100011000100
00000000000100000000000000000000000000000000000000000000000000000000000101110000000000001100000000000001000001000011000100000000000000000000100000000000000001101001000000000101100000001000000101011000
01101110110000000000000000000000000000000000000000000000000000000000000011110000000011100000000000000000000000000000001101100000000000110000110000000010000000111111000000000010000000001000001001100000
00101100001000000000000000000000000001100000000000000000000000000000000001100000000100100010000000001101000000000010001001000000000110000000000000000010000000111000000000000001000011000000000110001110
00001000000000000000011000000000000001100000000000000000000000000000000000000000101101000010000001111101000001011110000100000000010000010000000000000001000000000000000000000001100011000000000000001110
00000000000000100000011000001000000000000000000000000000000000000000000000000000011001000011000011100100000000001110000000000000010000000000000000000000000000110000011100000001110100001111100000001000
00000000000001000000000100001000000000000000010000000000000000000000000110000000011110100000000010100000000000001100000000000000100000010000000000000000000001110000000000000000011000101111000000000110
00000001000000010000000100010100001000000001100100000000111000000000000100000000000010100000000000000000010000000000011000000000111110000000000000000000000100110000000000000000001000101011011011100000
00000111100000010000000000000000011000000000010101000011011000100000000000000000000011100000000000000001000100001100011000100000100001100000000000000000001000000000010000000000101010000000110000010100
00001001100000000000000000011000111000000000000111000011010000001110000000000000000000000000000000100001000100000001101000100000011000000000000000000000111000000000011000000011010000000000011110000010
00001110000000000000000000001010111000000000000000000001000000000001000000011100000000000000000010010011010010000010111110010100010000000000000000000000110000000000011100000001001000000010000100011001
00001010000000000000000000000010011000000000000000000000000000000110000000010100000000000000000011011011000000000111001110000101010110000000000000000000101010000000000000011101101000000101000000000010
00010100000000000000000000001100001100000000000000000000000011010110000000010010000000000000000001100111000000001001001100010100001111000000000001100000000000000111000101000000100100001000100000000000
00100100000000000011000000100100000100000000000000010000110110000000000000001010001011000000000101000110000000000000000111000000000011100001110001100000000000000011000111110000010100001000100000000000
00011000000000000100100000000100000000000001000000001100110100000011100000000110000110100000000111000110000000001100001000011000000001100001010000000000000000000001000101110000110100011111000000000000
00000000000011000101010000101000000000000011000000011000111000000000000010000101100110100000000011000000000000000000001011100000000001100000010000000000000000100000000001001001000000001100011000000000
00000000000110111101011001010000000000000100100010000000011000000000000001000111100001000000000000000010000000000000010001000000000101000000000000000000000001100000000000111010001000000011011001110000
11000000001100001001011011100010000000000100100101000000000000000000100000101010001000000000000000000000000000000000001100000000000100000000000011000100000011100011000000110100000000010001011110100000
11000000011000100011100000010011000000000011101000100000000000000000111001011001001000000000000000000000000000011000000010000000000000000000000110000110000000000011000000001100100000010000000010001100
00000000000000000000101011000001100000000011000101000000000000000001010000110000000010000000000000000000000000011000000000000000010000000000000000011111000000000000000100000001100000000000000101000000
00000000000000100000001010010000000000000000000010000110000000000011000000000001001000000000000000000000000000000001100000000000111000000000000000011000000000000000001010001001000000000000000000000000
00000000000001001000000001001000000000000000000000001010001101110011000000000001000011000000000000000001110000000000110000000000110000000000000000011111000000000011100111011011000011000000000000000000
10100000000000001000000001110000000000000101000010011100010010000000000000000001000000000000000000000010000000000001000000000000000000000010101000001110001000000110110010001010000011000000000000100000
10000000000000000000000000100000000000000001000111101100001100000000000000000000100011000000001000000111110000000000000000000000100000001110100100000010010000111110010011000100000000100000000000111000
01000000001100000000000000000000000000000000001100011000000000000000000000011000011001000000001010001101010000000000000000000001100000000011001000000000010000101100011011000000000111000000000001011000
00000000000000000000000011100000000000000101000001001000000000000000000000011000000100110000001100000010000000000100000000000110100000000000000011000000001010000000011000000000110111000000010001100000
00000000000000110010010011100000000000000000000000100000000000000101000000000000000000000000000000000000000000001100000000011011100000000010000000000000011010100000111000000011000100000000110001000000
00000000000011100100000001000000000000000000000000000000000000011101100000000000000000000000000000000000000000001000000000010000010000000100000011000000011000100000010000000011011000100001100100011000
00000000000011000100000110000000000000000000000000000000000000001011000000110000000000000000000000000011000000000000010000011111010100000100000010000000000111100001110000000000100001000001111110001000
00000000000000000000010110000000001011000000000000000000000000000110000001110000000000000001011000000010101000000101010000000111110100001100000010010000000010000010100000000000000000110001101011000000
00000000000000011000000000000000000000000000000000000000000000000000000001000000000000000000001000000000001000011101100000000000000000011100000000000000000000000010000000000110000000000000100100000000
00000000000000011000000000000000000000000000000000000000000000000000000010000000000000000000101011000000000000100100000000001000000000010010011001100000011000000011100000001110000000000010010000100000
00000011000000101110000000000000000011000000000000000000000000000000001111001000010000000000001111100000001001001000000000110110000000001100010101100001000000110000000010001000000000000010100111000000
00000011000000000000000000000000000110000000000011100000000000000000001000001000110000000000011001000110110001001000000000010100000000000000001000000001001001010000000000100000000000000001010010000000
00000000000001000000000000000000001011000000000100100011000000000000011001110001001000010000000000011100110000100000000000001000000000000000000000001101000111100000000000011110000000000000001100000110
00000000000010000100000011000000001100000000000011001001000000000000001011000001100001100000001100001000101000101000000000000000000000000000001101001010000010000001100000101110000000000000011010000000
00000000000100100110000011000000000110100000000000000001000000000000001100000000110000001100011100000100001100011000000000000000000101000000000000000000000001000001100000000000000000000000000111000000
00000000000100000011000100100000000011000000000010111010000000000000001100000000000000101000010100000001000100000000000000000000000010110000010100000000000000000000000001100000000001000000000000100000
00011000000100000001000110100010000000000000000001000000000000000011001000000110001100101000111000100001001100000000000000000000000001100000010100000000000000000000000000000000000010100000000101000000
00111000000010010001101000110011000000000000000000010000001000000000100110001110000111101000101000100000001100010000000000000000000000000000011000000000000000000000000000000000000000110000000100000000
00011000000111110101100110000011000000000000000010000000010000000000000000001000000000111000010000100000000000011000001100000001110000000000000000000000000000000000000000000000000001110000000000000000
00000000001100000010001010000000000110000000000000010000001000000011010000000000000000000000000000000000000000001000001100000011011000000000000000000000000000000000000000011100000000000000000000000000
00000100010100011000011000000000000110000000000001100000000000000010001011000000000000001000000101101000000000000000000000000100011000000000000000000101100000000000110000010010001100000000000000000000
01110100001011101100100100000000000000011100000000000000000000000011101010000000001100001100001101101100000000000000000000000001100000000000000001100011010100001001001000001110001110000000000000000000
10000100000001110000000000000000000001111111000000000000001100001101011000100000001110001110010000101000000010100000000010110000000000001000000000100000001011101001000110000000000000000000000011000100
00000000000001110000011100000000000011111111000000000000001010000010001101100000000111001110000000011000000100100000000110100100000100011000001110100000111000101001110000000000000000000000000111101010
01010000000000000000001010000000000110110001100000000000010010001010000000000000000001111101101000001000000100001100000010100100001011001000110010000000010001100000000100100000000000000000001000101011
00000000000000000000000000011010000100110000000000000001011010000000000000000000000001011000111100011000000101010100011010011000001011110000000110000011011000000000000000000000000000000000000111110011
00000000000000000000000000010010001101110000000000000010001100000001110000000000000001000110001101100000000101010000011010000000000100000000000111000001101100000000001000000010000000000100000010100011
00000000000000000000000000001110000111000000000000000110110000000001000000000000000000000010000001100000000110000001110010000000000000000000000010000011000000000001001010000101000000001100000001010011
00000000000000000000000000000000011000000000000000000100110000100000010000000000000000000000000001000000000000011100100010010000000000000000000000000110111000000111000100000101000000011000100000110000
00000000000000000000000100000000011000000000000000000111000000101000010000000000000000110100000000000000000000110010110100010000000000000000110000000001010000000001000001000010000000011010000000001100
00000000000000000000001110000000011000000000000000000110000000101001110000001100000000100100000000001100000000001100100110010000000000000000000000000001001000000000000001100000000000011110110001111000
00001000000000000000010010000000000000000000000000000000000000110001000000001110000000100000000000001100000010000000000111000000000101000000110000000000000000000000000110110000000000011100101011000000
00010100000000000000001101000000000000010000000000000000000000110010001110010000000000101000000011100000001000011110000000000100000000100000010000011000001000000000011101000000000100010000000111000000
00000000000000000000000110000000001100101000000000000000000000000011110110011011000101101000000001100000001000000110000000001010000000100001110000110000001110000000000000000000000100100000001111000000
00000000000000000000000010000000001100010000000000000000000000000001111000011010101000110000000000000000000011000011001000001010000100100111100000110000000110000000000100000000000001100010001101100000
00000000000000000011000000000000000001010011000000000000011000000000000000011010110011000000000000000001100001111100110110000100000000111000000000100000000101000000000000000000000000000010000000100000
00000000000000000011000000000000111000110000100000000010010110000000000000000010100011110000000000000001010001111100001000000000000001000000100000000000000000000000001100010000000000000100110000000000
00000000000000000111000011011011111000111000000000000000010100000010000000000001100001101100000000001101011001010000000000000001100000000001100000000000000000000001101100101000000000000011011111001000
00000000000000011100000011101111001000001000000000010100010010001101000000000010000000010110001100001101001000110000000000100001110000000001100011111000000000000010001000100100000000000011010100001110
00000000000000000000000000110100000000000000000000010001110111110000111000110100000000110110000000000011101100111100000001100000011000000001000011101000000000000001110000011000000000000011100000001010
00010000000000000000000000000001001000000000000000001010110011110100000100111001110000011000000000000010001000000011000010100000001000010010000000010000011000010000100000000000000000000000000001001000
00101000000110000000000000000000001000111100000000001100000000000011100000000001010110000000000000000011100000000011000011000001101100001000000000000000000010000100000000000000000000000000000010110000
00101000001101110000000000001100100011111010000000000000000101000000101100111111010110000000000000000101100000000111000000000001101100000000010000000000000111000100000000000000000010000000000001001000
00000000000110000000000000000010000000000001000000000000000000000000000000100110110100000000000000000100000000000110000000000000011100000000010100001110001111000110000000000000000111000011000010011000
00000000110010000000000000000000010000100000000000000000000000000000000001010000001110000000000000001110000000000110000000000000000000011000000111001100000000000000110000000000001101100000000101000000
01000001100010000000010000000110000001010000000000000001100000000000000000100000001111100000000010100000000000000110100000010000000000011100001110000001100000000000000000000000001101100000000000010100
10100011011001000011010100000000110110001100000000000010000000000000000000000000000001111100000000110000010000000011000000010000000000100100110110001110000000001000100000000000000100000000000010001010
10000000000101001010010111000111011000000000000000000010011000110000000000000000000000011100000100001100111000000000000101101000000000011000001110001100011100001001000000000000000100110000000001000100
10010000000010001000100100000000101000000111100000000000011110000100000000000000000011110010000010111011010000000000001111110000000000000100001010000000011010000000010001000000000010110000000000111100
00011000000000000001110011000111001000000011101110000001001011110010000000000000000011101000000000101101000000000000011001010000000000000010011100000000100000000000000000000000000011000000100000010100
00100001100000001000010000000000010000000000101110000010000111000010000000000000000000101000000000111000000000000000001001000010000000000001000000000001101000000000000000000000000011100001000000000100
00000000000000010001100000000000100000000000000000000011100000000110000000001010000000000000011101101111110000000000000110000101000000000010000000000000001000010000000000000000000000000001100000100000
00000011100000011100000000000011100000000000000000000000100000001100000000011010000000010000011010101101110000010000000000001001000000000000000100000000000001001000000000001011100000000111000000111000
00001100100000011000000000000100110000000000000000000000000000001000000011011010000000101000011011001100011000010000000000000110000011100000011000000000000000010000000000000100100000000000100111001000
00000000110000010100000000000100100011000100000000000000000000001110000100000100001000100100000000000000010000001000000000000000000000001100000000000000000000001100000000000011000000001011000110010100
00000000101000011100000000000000100010000100000000000110000000001110001001001000010100011000000000000000011000000000000000000000000010010000000000011100000000001000000000000000000000101000000110010100
00000000001000010100000000111101100000001000000000010001010000000011011011000000100100000000000000000000111000000000000000011111000100001000000000010100000000010000111100000000000000100000000000000000
00011000111000010000000001111101100001110000101000010011011100000001000100000001011000000000000000000000110000000000000000111101100010110000000000010100000000010000111110000000000011101100000000000000
00110000111000010000000011001011000000110000111100001000010100000001111000000011010000000000000000000000100100000000000001000101010011110000000000000010000000010010010011000000000010001100000110000000
00001000000010010000000001011000000000000010111100000111010101000000000000000001100001000000000001110000010000110000000000110101001000000000000000001001000000010010001011000000000101110000001101100000
01100000001101100000000000001000000000000110000000001111110111100000000000000000100000000000000000001000001000110000000000010000011000000000000000010001000000000000001011000000000011100000010101100000
11000000100001000000000010000111000000000110000000011010010000010000000000000000010000000001100011100011000000010100000000010000111110000000001000111001000000000000100110000000000010000000111000000010
10100000011000100001000010011111100011100011000000000100001010110000000000000000011000000000100010001111000000000010000000010010000010000001110100000000010000000000000001101110000000000000000000001110
01000000011000100000000011000000100011100010100000011010001000011000000000111000001100000000100000110000000000010010000000100100001000100110100010000001110000000000000001110000110000000001100000011000
00000000000111000000000000111000000011100011010000001001001000000000000000000000001110000000000001000000000000001000010100001000011000100110100100000000110001000000000001111100100000000011100000011100
00000011100011000000000000000000000011100101110000000001000101100110000000010011001110000000000011000000000110001111111000000000001010101000101010001100100011000000000001111000000000000010010000000000
00000010100000000000000000000000000011001100100000001101000011110100000000001010100110110000000000100000000110000001101100000011000000001101100100000000010000001100001011000110100010000001111010000000
00000100110000000000000000000000000010010110011111001101100000111000000000000000011011011100000010100000000000000001100000000000000000100100000000000100001111110000010101000000001110000000100101000000
00000110000000000000000000000001100011110110111111101110111000011000000001000110000001001110000001000000000000010010001100000000000000010100000001000010001111110000010000101010000101000000000000000000
01100111000000000000000000000000111011000100000000111100101000000000000001111100000001100111000001100000000000001100000000000000000000010000100001000001000000000000001000000010000010000000000000000000
01100111000000000000000000000011011110111001011101000110001000000000000010010000000000011001000101000000000000000001100110000001100000000011100100010000100000000000000000000110000000000000000000000000
00000000000000000000000000001000001110000000111100000110011000001110000001100000000000001101100000000000000000000101000011000001000000011011000011110110011000000000000000000001110000000000000000000000
00000000000000000000000000000111000000001000000000000010010000001101010001000000000000000101000000000101000000000110000100100000000000000000000011000000010000000101000000000010100001100010100000000000
00000000000000000000000000000110000000000000000000000001100000000000110000000000000000000000000000000110000000000100000010000000000000000000000000011000110000000101000000000001000001100000000000000000
