P1
200 200
00000000000000000001100000000000000000000000000000000000000000000000000000000000000000000100000000000000000000000000000000000000000000000000000011000000000000000000000000000000000000000000000000000000
00000000000000000001100000001000011000000000000000000000000000000000000000000000000000001010000000000001100000000011000100000000011000000000000011000000000000000000000000000000000000000000001100000000
00000000000110000000000000010011000000000000000000011000000000000000000000000000000000000011000000100000000000000011000100000011000000000000000000000000000000000000000000000000000000000000000000000000
00011000000110000000000000000000100000000000000000001100000000000000000000000000000000000000000010000000000000000000000100010110001000000000000000100000100000000000000000000000000000000000001000000010
00011001100000000000000000011000100000000000001100001100000000000000000000000000000000010000001100010000000000011000000000111111010000000000000000100001010000000000000000000000000000000000000000100010
00001100001000000000000000000110000111000000011100001100011100000000000000000000000001110000001101000000000000100100000000000100101000000000000010000001100000000000000000000000000000000000000000001110
00000111111000000000000000000000001001000000000000011011111100000000000000000010000000000000000001000000000000000000000001000000001010000000000101000000000000000100000000000000011100000001000010000010
00000100010000000000000000000000001011000000000000011010000010000000000000000111000001110001010010000000011100001100000001001000000000000000000100100000000000000100000000000000010010000001000000100001
00000000000000000000000110000000000100000000000000001101101110111000000000000100100000000001110100000001000100001100010101000100111111100000000100100000000000000000000001000000111101000011011000000010
00000011000000000000001011010000000000000111010000000000110000001101000000101000100000000000000111100010000110001000010110001000001110110000000001100000000000000000000001101000000001000000010000000000
00111101000000000000000001101000000000000110000000000000000000011111100001100000011000000000000000010000001011010000000100011101000110100000000001110000000000000010111100000100000011000011011000000000
00000010000000000000000000000100000000001100000000000000000000000111110011000000001000000000000000000000010000001100011000000110100010000000000000001000000000000101000000101000000000000011011000110000
00001000000000000000001000001100000000000100000011000001100000001100000000000100000000000000000000000000001010110100001000010111000000000000100000001110000000001000000000010000000111000001000000000000
00000000000000000000000100000011000000000010000100100001001000000110000000000000000000000001100000000001101010110100010100010000100100000001010101000001000000000000000000000000000111000010010001110000
00000000000000000000000000000000100110000000000110100001000000000000000000001000000000000001100000000000000000000101001111100000000010000010001010000000100000000110110001000000000110000110010000100000
00000000000000000000000000100010100110000000000010000001000000000000000011100000000000000011100000001100000000000101010000000000000000000000001000000000000000000001000001000000000100000000010000110000
00000000000000000000000000100011000000000000000000000010001000000000000001010000000000000001100000010110000000000101001100010110000000001001000000001011000000110000000001000000000000000001100000110000
00000000000000000101000000100000000001110000000000000001110000000000000000100000000000000011000000110010000000000000001000000100001000010100000100001100000001101000000000000000000000000000000111010000
00000000000000000100100001000010000000100000000000000000000000000000000000000000000110000000000000000000000000000000000111101000001100100010010001000000000010001100001000100000000000000001001100101000
00000000000000000100100000101000000110100100000000000000000000000000000000000000000110000000000000000000000000000000000010000000001000100010001111000000000001000100001101010000000000000110110000010100
00000001100000000100110000110000000110101010000000000000000000000000000000000000000000000000011000001110000000000000000010010000010000100010000011000000000000111000001000001111111000000100010110010100
00000001100000000110110000000000001100101010000000000000000000000000000000000000000000000000110000000001000000000000000001010000000000010100000000000000000011011000000000000010100100001000000010010100
00000011101000000000010000011000000100000000000000001100000000000000000000000000000011000000011000001000000000000000000000000000000000111000000001100000111111000000000010000000000000000011011100001010
00000000010100000000010000000101100000001100000000100010000000000000000000000000000011000000000000000111000100110000000000000000000001100001100000000000001011000000000001001010101100000000111000001110
00000010000100010000100000000111100000001000000001000010000000000000000000000000000000000000000000000100101100000000000000000001100001100001100000000000001100000000000010000011110000000000000001000100
00000010111000001011110000000001100000010000000011010101000000000000000000000000000000000000000000000011100100010000000000000001010000000000000000011100000000000000000010010111100000000000000010110000
00000000000000000000010000000000000000011100000010000111000110000000000000000000000000001000000000000011100011000000000000000000010000000100000000000000000000000000000100000000000000000000000110110000
00000000000000000000100000000000001010011100000011100010100110000000000000000000000000010010000100000000000011000000001100000000010000000101110000000000000000000000001001000000000000000010000010000000
01000000000000000110110001100000000110011000100000000001110111000000000000000000000001100000000000000000001000000000000000000100000100101100010000000000000000000000011010000000000000000110000001110000
10100000000000000010010000000000000000000011011001100000110000000000000000000000000000000001110000000000001000000001000000000101000001001001110000000000100000000000001000000000000000001001000001110000
00000000000000011011011000000000000000000011011001100000000000000000000000000000000000001010011000000000000000000000000000011011010000001000000000000001011000000000000000000000000110001010000000000000
11001000000000001001001000010000000000000000011100000000000000000000000000000000100001010000000000101000000000000000100100010110000001100000000000000010011011000000000010010000000001000110000000000000
01111000000000000100100000101000000000000000001100000000000000000000001100000000100000000001010001110000000000000000101100010100000010000000000000000100111001010000000010011101111100000000111000000000
00100100000000000101000001001000000000000001011000000000000001000000001111100010000000000001110011000100000000000000000000000000000111000010000000000000100000010000000100000001100000000000100000000000
00011110000000000000000100101000000000000001110000000000000010100000000011100101000000000000000000000110000000000000100000000000000001001101100000011001110000000000001100000100000000000000101000000000
00010010000000000000000100110000000000000000100000000000000010110000000000100100100000000000000011010000000000000000010000000110000110000110100000001100000100000000011110010110000001010000010000000000
00001010000000000000000010111000001100000000000000000011000001001110000000010110110000000000000000010110000000000001110000000000000100000100000100000111000000000000011111100000000001001000000000000000
00001100000000000000000000101000001100000000000000000101000000000000000001000000001000000000000011111000000000000010001000000000011100000100000000000000000001111000010111000000110101010000000000000000
00000000000000000000000000011000000000000000000000000001000000000000000010000010001000010000000000100001000000000011111000000000100000000000000100000001000001111000100100000000100100000000000000000000
00000101000000100000000000000000000000000000000000000000000000000000000010100000001000110000001001100011100001100001101000000000100001100000001000110011001000100000111000001110110010000000000100000000
00001110000001001000000000000000000000000000000000000000000000000000000001111111110000110000010010100110011110100000000000000000101110000000000001001001100000000000000000000001011100000000011011000000
00110000000000111000000000000000000000000000000000000001101100000000000000000100000000000000101101000001001011000000000000000000110000001001000000001101101100000000000000001001100000000000011011000000
01010000000000010000000000000110000000000111100011000000101000000000000000000000000000010001001001000000000100000011000000110100111010000111000000010001101000000000000000000111000000000000011011100000
00001000000000000000000000001010000000000110000100100000010000000000000000000000000000001001111010000010010000000001100000010100110001000110000000000001101100000111000000000000011000000000011001100000
10010000000000000000000000010000000100001000000100010000001000000000000000100000000100010000111010000011100000010101000000000100110110000001000000000011111100000110100000000000010010110000011110110000
00000001100000000011000010000110001010000010000100010000010100000000000011010000000100001100000000000000000000010000000000001000010100000000100000000011001100000110100000001100010000001000110111100000
11000010100000000011000100000110000010000011000001100000010100000000000000000000000100000110000000000000000000000110000000000000001000010110010001100010001000000000000000010011001000001000110011000000
00000001000000000000000100001000000000000001001001000000001000000000000000000000000000010001100000000000000000000000000000010000000000011101100001100001010000000000000000100010000100001110100000000000
00000000000000000000000010000000000000100100010110000000001010000000001000000000000001000110110000000000000000000000000000100100000000001101111000000000100000000000000000011010011010101000100000000000
00000000000000000000000000000000000011000100000010000000000100000000001000100000000001000011011000000010000000000000000001000100000000000000010000000000000000000000000000011101001100100000100000000000
01000000000000110000000000000000000010000000000000000000001000011100000011100000000010000100000100000111000000000000000011000100000000000000101111000000000000000000000000000001010101000000100000000000
01100000000001101111101000000000000100000000000000000000000000011000000011100000000011001000000000001000100000000000000011100000000000000010000100000000000011000000000000100001100000110011001000000000
10101110000000110100001000000000000100000000000000000000000000001010000000000000000001110000000000000001000000000000000011000000000000000100000100100000000011000000000001100001000000000111001000000000
00000001000000010001000000000000000000000000000000000000000000000011000000000000000000000001100000010001000000000000000001000000000000001101100101000000000000000000000100100000000000000011000000000000
10000001000000000001010000000000000000000000000000000000000000000110000000000000000000000000001101110000000000000000000000010000000011101001101110000001100000000000000100000001000000000001001000000110
01001100000000000010000000000000010000000010000000000000000001011100000000001001100010000000000100000100000000001100000001100000000011011000001000000001000000000111000110101110000000000000001000000000
00110000000000000110000000110000001000010010000000000000000000111000000000001001001101100000000100000000110000010010000000000011000011011000000000000001110000000111000000011111000000000000000000010010
00000000000000000000000011111011010000101110000000000000000000010000000000000100000101100111000000000000010000010010000000000011000001010000000000000000010000000110000000011001110000000000000000010000
00000000000000000000000000001111010000001000000000000000000000000010100000000000010101100100100011000000100000001100000000000000000000110000000000000000000000000000000000000001110000000000011000100100
00000000000000000000001111111100000000000000000000000011001110000010010000101000010001001000010011011011000000000000000000000000000000010001100000000000000000010100000000000110001000000000010100011000
00000000000000000000000000010000110000100000000000000100111100000010010001000000010101101100010000000000000000000000000000001100000001001000111000000000000001110111000000000000100100011100001000000000
00000000000000000000000000000000000001000000000000000110111000110000100000000001000101100000110000000000000000000001000000010010000011001000000100000000000000000000100000000111100100111100000000000000
00000000011000000001100000000000000000100000000000000110000000110000000010000011000111000001000000000000000000000110100000001100000100000010000010000000000001000100100000000000001100010000000000000000
00000000111010000001110000000000000000000000000000000000000000000000000010000010001010000111000000000000000000001000110000000000000110100010010001000000000000000101000000000000000111000000000000000000
00000001100011100000110000000000000000000000000000001110000000000011000001000000000100010100100000000000000000010010100000000000000001100010001001001000000001101000000001000000000111000000000001100000
00000000101010000000111000000000000000000000000000000000000000000011000010000100000000100000100000000000000010000010000100000000000000100001000101001100011100010001001110100000000101100000000011100000
01100000011100000000011000111000000000000001000000000000111000000001000010001000000000110101000000000000011110110000000010000000000000010111110100000110000000000110000010100000001101100000000010010000
01000000011100000001011001001100000000000001100000000001010000100000000010100000000000100000000000000100110000001100000001000000000000001011110000000011000000001010001101000000001101000000000001100000
00000000000110000010001010000000000000000010011000000001100001011000000000000111000000001100010000001100100100001100100101000000000000000000000000010010000000000111110000000000000110000000000000000000
00100000000101000001001011000000000000000011011000000000000001000100000000000000000000000000001000001000010010000011000010000000101100000000000000000000000000001100000000000000000000000000000000000000
00100011000100100000010001100000000000000100001000000000000000000100000000000000000000000000100100000000001100000000000000000001101010000000000000011100000110000110000000000000100000000000000000000000
00100100100100111100010001000000000000000000110000000000000000000000000000000000000000000000010100000001000000001110010010001100100000000000000000000000000100000001000000000001110000000000000001100000
00000000000000000001010000000100000000000000010000000000000001101100000000000000000000000011000010111110110000010000000000001100000000100000000000000000000000001000100000000001000100000000000001100000
00000000001100000000001100000011000000000100100000000000000001001100000000000000000000000010101011100000010000100000000010000000001100000000000000000000000011010101000000000000010100000000000000000000
00000001001101000010000000000000000000000000010000000000000000111111000000000000000000001000100010011000000011100000011100000000100000000011000000000000000000110000000000000010000100000000000000000000
00000000110011010100000000000000000000000011110010000000001000000010100001010000000000001110100000000011111011011111000000000000000100000001000001100000000000000000000010000101000000000000000000000000
00000000001110000000000000000000000000000011010001000000001000000010100010010000000000000101110100000001101101011110000011100001000100000000000001100000001110000000000100000010000000000000000000000000
00000000000100000000000000000011000000000000010000000000010100000001100001100000000000000001010011000000000101000100001111100000101000000000000000000000000000000000000100000000000000000000000000000000
00000000000000000000010100000000100000000000000000101000001000000001000000000000000000000000010110000111000001010010001010000000000000000000000000000000000000000000001100000000000000000000000000000000
00000000000000000000010001000001100000000010101011000100001000001101000000000000000000000000010110000111001001000010001100000000001000000000111110000000000000000000001100000000000000000000000000000000
00000000000001100000100000100000000000000010110000000100000000001000000000000000011100000000000110001000110110110100000110000000000100000010000011000000000000000000000001000000000000000000000000000011
00000000000001110000100100100000000000000001000011101100000011100111000000000000011100110001010000011000111011111001010000000000011100000001100000000000000000000000010010000000000000110000000000001101
10000000000001000000110000000000000000000000000011101100000001100000011000000000000000100101000000000000001011110000001000001111110000000010000011010000000000000000011000000000000001101000000001111001
10100000000001101000000000000000000000000000000001001000000101100000100100000000000000011111000100000000001110010000000000110001100000000001111110001000000000000000100010000111000000001100000010110000
11000000000001000100000000000000000000000000000011110000000010011000011000000000000000000010000100000001101001001000010000011000000000000001100000000100000000000001110000001011000000101100000100010000
00000000000011111000000000000000000000000111111100000000001101110000000000000000000000001110000100000000000100101000000011011000000001100000000001011000000000000000110000011100000000010111000010010000
00000000000010000000001110000011100000011111110001000000000000100000000000000000000000001100000000000000110100101001110001100000000011010000000001111000000000001000000001111100000000000011000000110000
00000000000010000000000001000010100000110010000001000000000000000000000000000000000000001110000000000000001001000100010000000000000100010000000000100000000000010100000001110100000000000000000000000000
00000000000001000000010000100100100001000000111100000000000000000000000000000000000000010010000000000000000000011111100000000000000011100000000000000000000000000100000001010010000000000000000000101000
00000000000000000111111000010101000000101100010000000000000000000000000000000000000000100100000000000000000001000000000000000000000001000001000000000000000000000000100000001100000000000000000000111100
00000000000000010110110011010100000000001100010100000000000000000011000000000000001000000000000000000000000000000001100000000000000000000010110000000000000000000001100000011000000000000000000001000010
00000000000000000000000000110000000000000000000011000000000000000011000000000000101000000100000000000000000000011010110001110000000000000000110000000010000000110100000000011000000000000000100001011011
00000000001000000100010100011000010000011000011011000000000000000000000000000000011000110010000000000000000000001010110001111000000010000000010100000011000000110111110000010000110000000001001000111000
00000000000000001111111100011100101000011000000000000000000000000000000000000000000000000110100000000000000000000000001111000100000000000010001100000000111100001110010000011000110000000000110000000011
00000000110000001000000110011000101000011000000000000000000000000000000000000000000000001101100000000000000011100001110001111000000100000010000000000011100000001101110000100001100000000000000000000000
00000000100000000000000001110000010000101000000000000000000000000000010100010000000000001101100000000000000000010000111101000000000100000110000000000010100000000110110001000001000000000000000000000000
00000011100000000000000000100000100001101000000000000000110000000000010010101000000000000000000000000000000000011001011101000000000100001011000000000001100010000001110001000001000000000000000000000000
00000111000000000000000000000001100000100000000001100000011100000000010100000100000000000000000000000000000000000100011010100000000000000011100000110001000100000101110010000000000000000000000000011100
00001100000000000000000000000100010000000000000001100100001100000000010100001000000000000000010000000000000001100000000100001101000001100010010001001001010100101010000010010001000000000000000000000000
00000000000000000000000000001100010000000000000000000000001000000000011000010000100000000000101100000010000001110001101100100101000001000001010000110011000100110000000000000000100000000010100000000110
00000000000000000000100000010000100000000000000000000111000010000000100100000001100000000000000001000010000000100001100000100010000000110000100000000000011000011100000010000110010000000110100000000101
00000001100000000001000011001110100000000000000000000000000001000000100010001000001110000000001001000010000000000001100010000000000000000000000000000000000000000100000000100001110000011000010000000101
00000001100000000001000000001111000000000000000000000000000001010000100011010000010010000000000110000000000001110011100011100000000000000000000000000000000000010100000010100000111000011101100001001101
00000000000000000000000011100000000000000000000000000000000000000000000000110101011100000000000000000000000110100011100100000000000000000000000000000000000000011000000001100000010000100001100000000111
00000000000000000001001011000000000000000000000000000000000000110000010010110000001000001110000000000000000011101011100010000000000000000000000000000000000000000000000000000011101000111100000011001010
00100000000000000001000000000000000000000000000000000000000000000000010001000000000000001110000000000000000000000000011100000100000000000000110000000000000000000000000000001101000000001000000011000110
01100110011000000000000000000000000000000000000000000000000000000000001100000000001110000000000000000000000000000110011000000000000000000000110000000000000000000101000000001100001000000000000101100110
01000010011000000000000000000000000001100000000000000000000000000000000000000000000000000001000000000000000000000000001000100000000000000000000000000000000000000101000000000111110110000011000100010100
00111100000000000000011000000000000001100000000000000000000000000000000000000000001100010000000010000000000000000000000111000000111000000000000000000000000000100110001000000111011100111000100110100000
00001100000000000000010100011100000000000000000000000000000000000000000000000000001000000101000011000000000000000000000000000000111000000000000000000000000000000000001000000000000001000000000000001100
00000000000000000000001000010100000000000001010000000001010000000000000110000000000000111010000010000000000000000000000000000001000100000000000000000000000010001000000100000000010000001010001001000010
00000000000000000000000000010110111000000001001010000000001000000000000110000000000000110000000000000000000000000000000000000000000001100000000000000000001010110000011000000001111010110000100000001110
00000000000000000000000000000110100010000001100101000010001000001010000000000000000001010000000000000000010100000110000001110000001001000000000000000000010100000000100100000100110100000001000000000000
00011001100000000000000000001000101110000000001001000010001000001001000000011100000000100000000000001000010100001010000010000011100100000000000000000000000100000000010100000100100000000011100000011100
00000111000000000000000000000010101000000000001110000010010000011001000000100010000000000000000000010100000100000000000000000100001100000000000000000000111000000000001110001000000000000110101001001001
00000001000000000000000000000000001000000000000000000001011110000000000001000110000000000000000000110000000000000010000000000001010000000000000000000000100000000010000000000001000000001000100100000110
01000000000000000000000000000000100100000000000000000000000101101000000000000001000000000000000000110100000000000000000000000011010000000000110001100000000000000101001100000110110010011100000000000000
00100010000001000111100000010000011100000000000000000001011100000100000000000111000011000000000000010100000000001110000001000000000000000001001001100000000000000100111100001101101110000100000000000000
00011100000100111100010000110000000000000001000000000010011100000100000000100001100110100000000100010010000000000100011111001000000000000001000000000000000000000011011000010001000110000000011000000000
00000000000100010101000000000000000000000110100010010011001110000000000000000001101000100000000100000110000000000000110100011000000000000000111000000000000001100000000000000000011000001110100000000000
00000000001000010001100101100010000000000000010011011000000100000000000010000011010101000000000000000000000000000000010001100000000001100000000010000000000010010000000010000010110000001011000010110000
11000000010000101110101000000011000000001000000010110000000000000000000010001010110100000000000000000000000000000000010001000000000000000000000101100000000010100011000000001001110000000011111010000000
11000000010000100100010010100100100000001000010001110000000000000010001110000100000000000000000000000000000000011000011001000000011000000000000100000000000001000100100000001000000000000000000001000000
00000000011010000000010111110010100000000011100010100000000000000010001000110110001010000000000000000000000000011000101100000000100100000000000010100000000000000100001100000001110000000000000000000000
00000000000000000000001100110001000000000000000100100111001110000000100000110111001010000000000000000001100000000001010000000000100100000000000001000000000000000100010011000001100000000000000000000000
00000000000000000000000000000000000000000000001000000111001111110000000000000010000110000000000000000000010000000000010000000000001100000000000000000000000000000100000001000001100111000000000000000000
00000000000000000000000000011000000000000010001000010000010001100000000000000010000101000000000000000001100000000000000000000000000000000000100000000000000000100000000110001101001000110000000000100000
00000000000000000000000000111000000000000010001000000000001111000000000000000001000101100000000000001100000000000000000000000000000000000000100010000000001011010000001001111110000000010000000001011000
00000000000000000000000000100000000000000010001111010000000110000000000000011000110001100000010100001000000000000000000000001110000000000110100010000000000110000011000000111110010000000000011011000000
00000000000000000000000000000000000000000000000000100000000000000000000000011000011110000000011000000000000000001100000000010011010000000100100100000000001000000000000000000001100000100000100110000000
00000000000000010100000101000000000000000000000000000000000000000001110000000000001000000000001000000000000000010010000000100000010000000101000010000000010100000000000000000010100010100000100000011000
00000000000000111100000111000000000000000000000000000000000000000100010000000000000000000000000000000000000000010001000000001000100000001101000101000000001110001011100000000010000000000000011101011000
00000000000000001100001001000000000000000000000000000000000000000010110000000000000000000000000000000010100000010011100000000001111000001001000000100000011000011101000000000010001100110000001001100000
00000000000000011000000110000000000000000000000000000000000000000010000011100000000000000000011100000010100000001000010000000100010000000000100000100000000011101100011000000001000000000000000001010000
00000000000000011100000100000000000000000000000000000000000000000011000011100000000000000000000100000001000000000001000000000100100000100000100110100000000000001101110000000000000000000000000011100000
00000000000000010100000000000000000000000000000001000000000000000000000011000000000000000000010100100001100000000101100000000011000000100001111001110000011000001100110000011100000000000000000000010000
00000011000000000010000000000000000111000000000011100000000000000000001000000000010000000000100000110000010000000010000000110000000000001100110000100011011000111011000000010100000000000000000001100000
00000011000000000000000000000000000010000000000110010001000000000000001100110001001000000000000011000000001000000000000000011100000000000000010000000100000011001000000000010000000000000000000000000000
00000000000010000000000000000000000110000000000100011001100000000000000011110001000000000000000010010000100010000000000000011100000000000000011110001000101110110000000000101000000000000000000011100000
00000000000110000001000011000000011100000000000110011000010000000000001011000011011001111100110001000000010010101000000000001000000011100000001000001011000100000001100000100000000000000000011000000000
00000000001001001100000010110000010010000000000011001010100000000000010100000001001011111100010001000000000010111000000000000000000010100000001010000000000000000001100001110000000000000000000111100000
00000000011000001100000000110000000011000000000011001010000000000000010000000000101100100000010000000000000011000000000000000000000010010000011100000000000000000000000000000000000000000000001000100000
00111000001000000000000000001000000110000000000000000000000000000000000100000000000010000000000010000000000010000000000000000000100001010000100000000000000000000000000000000000000000110000000110000000
00100100000101000100010110010110000000000000000000000000000000000001000100001000000010000000100001000000000000011000000000000001110001110000101000000000000000000000000000001000000000110000000010000000
00000010000101000010100010010000000000000000000000000000000000000000001000001000000111000000011101110000000000100100001100000010000000000000010000000000000000000000000000010100000001110000000000000000
00000000000110011100100010100000000000000000000001100000000000000010010000000000000000000000011011101000000000011000001100000010001000000000000000000001111100000000000000110110000001100000000000000000
00000000001000000000010110000000000010000000000001100000000000000010010011000000000000100100011101110100000000000000000000000010000000000000000001100011100010001000100000010010000011100000000000000000
00000100000000001001100000000000000001000000000000000000001000000100010110000000000000100100010010001100000000000000000000000000010000000000000001010100000010100110100000011011000110000000000000000000
00110100001000000001111110000000000101000001000000000000011110000111111000100000000000110000111100010000000011100000000101110000000000001000000000010010010100100000000000001010000100000000000000001110
00100000000001000000110110000000000101000001000000000000011001001000101010100000000000000001110010001100000001000000011010101000000000000110000001100000010001000110100000000100000000000000001100010010
00000000000000000000001000011000000000000001000000000001001000100100111011000000000000000011000001100100001010101000000000100100001001111000000000000000001001110000100000000000000000000000010010001100
00000000000000000000000000010110000000000000000000000011001101000111101000000000000000000011111000001000000000001100100000101000001010001000000000000100100000100000100000000000000000000000001010000000
00000000000000000000000000010001010000000000000000000100000110000010010000000000000000001111010000001000001110000100000001100000000000010000000001000011010001000000000000000010000000001100001110000000
00000000000000000000000000011000001100000000000000001000010000000001011000000000000000000010000010010000000110001011001000110000000100000000000101000000010010000010110010000101000000001100000000101001
00000000000000000000000100001110000000000000000000011000000000000000101000000000000000100100000001000000000100000111000000110000000000000000000011000000101000000010001000000101000000000000000000101010
00000000000000000000011011000101100100000000000000001000010001000011111100000000000000100000000000000000000000100010000001010000000000000000000000000000010000000010100000100010000000100000010110000010
00000000000000000000000000000000011000000000000000000000100011000101100100000100000000010000000000001000000000101100000011010000000000000000000000000000000000000000001000010000000001010111001011000000
00000000000000000000100000000000000000000000000000000001000001111000001101010101000000010000000000001000000000110010000001100000000000000000010000000000000000000000001000010000000001010110101100000000
00000000000000000000000000100000000000010000000000000000000000111000011110000000100000110000000001100000000000000010001111000100000000001101001000011000000000000000010000100000000001000001110000000000
00000000000000000000011000100000000100101000000000000000000000000100000000000010101000110000000000000000000000000011111110001010000011001110001000110000001100000000011000100000000000000001001000000000
00000000000000000000000110000000000100100100000000000000011100000001000111001010100010101000000000000000101001000000010110001010000000000010000001100000000110000000010001000000000000000111000001100000
00000000000000000001000000000000000010101100000000000000011110000000110100111010100000011100000000000001110001000011101110000100000000000100001001100000000000000000010110000000000000000000001000110000
00000000000000000001000000000000001011101000000000000000001001000000010000011000000010000000000000000101000000000000001100000000000000000010000001010000000000000000110000010000000000000000010001101000
00000000000000000100000000000000001010111000000000000110000110000000000000000000000010000000000000001011110000100000001000100000100000000100000010010000000000000000110000101000000000000000000111111000
00000000000000001100000000000000000000110000000000001100010110110000010000000000000001110010000000001010100000111110000000110000101000000010100010001000000000000000011000100100000000001000001110001100
00000000000010001100000000000000000000011000000000010000010100010000000000000000010000000000000000000000110000100001000000001001000000000010100010001000000000000011111000011000000000000100100110000000
00000000001001000000000000000000000000000000000000110101000100000100000000110000110101000000000000000101100010011011000010110001010000000011000000000000000000000111100000000000000000000011100000000000
00000000010000100000000000000000000000001100000000011000001100000100000000101000110110000100000000000110001000000000000011100010000000000000000001110000001110001111100000000000000111000000000010000000
00000000000010110000000000000000000000000000000000001000000000000000000001100100010000000000000000001000001000000000000000000001000000000000000000000100011011010011000000000000000000000000000110000000
00000000000101110000000000001110000000000000000000000000000000000000000001010000111000000000000000011000000000000000000000000000000100000000000000001001011000001010000000000000000100000000001100001100
00000001111000110001110000001111110001010000000000000000000000000000000001100000110000000000000000011011000000000000000000000000100100011100000000001001010010000100000000000000000100000000000110000100
00000010010000110100011000000011111010101100000000000001010000000000000000000000000000000000000000000110011000000110000000000000000000110010000000000101110010000000000000000000000010010000000001110010
00000011100001100100000110000001100010000000000000000010010000000000000000000000000110000000000011000000011000000011000000011100000000100001000000000110010100000000000000000000000111011000000011000011
01000000101001100100000000000000001011000001101000000001001000000000000000000000001001000000000010000111000100000000000000000100000000111011000011000001011000000000000000000000001100100000000001101011
00010000000010000000000000000001011010001010101100000000001000000100000000000000000101000000000001000100011000000000111000100100000000000110010001000000000000000000000000000000001100000000000001110101
01101000000000000001000010000001000000000101100010000001001000000101000000000000000001101000000000000001001000000000100110001000000000000100000000000000000000000000000000000000000100001000000000010000
00111100000000000000100100000111011100000000011010000000001000000101000000000000000000011000010100000001110000000000100000010010000000000011010100000000000000000000000000000000000000010000000001101000
00011100000000001000000000000001111000000000001100000001010000000110000000111110000000000000010100011000000000000000010000100101000000000000001000000000000000111000000000000001100011100000000001100000
00000110000001001000000000000010010000000000000000000000100000011000000001100001000001001000100001000100000000000000000110001001000000000000000000000000000000111000000000000010110000000001100100110010
00000011100000000000000000000110010000000000000000000000000000100001000111100001000001101100000001000010000000000000000000001110000011011000000000000000000000101100000000000100100000000111000100000100
00000011111000001010000000001000000000000000000000000000000000010101000100011010001000100100000000100100000000000000000000001001000001011000000000011100000000000000000000000011000000001011001001100000
00000010000101000001000000010000010000000000000000001110000000001000000000000000110100011000000000000000000000000000000000000001000000000100000000100100000000000000110000000000000000001110000000000000
00110000001001100110000000001000010000001100000000011001100000000000000011000011100110000000000000000000000000000000000000101000100011101100000000000010000000000000110000000000000000100110000110000000
01010001000001000100000111111000010001011100001000100011010000000000000111000100100000000000000000000000000000000000000001011101000000001100000000111000000000000011000000000000000001000110000101000000
01110000111110000000000100010100100001011100110100011111010010000000001110000100000000000000000001010000001000000000000001001000000000000000000000000000000000011011110000000000001001001100001001000000
10100000010000000000000100001110000000000000000000001000000001100000001100000111000000000000000001001000011000000000000000111000001100010000000000000101000000010000001000000000001001010100011000100000
10000000000100000000000011010100000000000000011000000001000100010000000000000011000000000000100100000000000000011000000000010000001000000000000000010110110000000000010100000000001010011001101101000000
10000000010100000000000001101010100011100000000000001001000101011000000000000001000000000001011101011110000000011100000000000000001000100000000000101010010000000000001000001110000000000001001001110010
10000000011001110000000110101011100100010000000000011001101100111000000000010000111000000001011110000001000000011100000000000000011100000010000001101101010000000000000000010001100000000010000000111111
00000000101100110000000100000000110000001000000000010000000010000100000000100001101000000000100000011110000000000111000000000000110000001101000001110000100010000000000000001001010000000110100000001011
00000001100100110000000010011000000000000110010000000000011101000000000000100011110000000000000000101100000000111111000000000000110100001100000000000000001100100000000000000100010000000100011000011100
00000100111110000000000000100000010000000110010000001001111110000000000000011011110000000000000001101000000110011111000000000000011100001110001010000000110000100000001110010011100000000000011000001100
00000000001000000000000000000000001010000000000000001001110100000100000000000000001000000000000001110000000110011100000000000000001010000110001100000000100111110000000000101100000010000000000000000000
00010000001000000000000000000000000101101101000000001000111000000100000000000000010000000000000001110000000000011100000000000000000001000100001000000000100011110000010010100010000101000010011010000000
00100000010000000000000000000001000000101010100000000000001000000100000011000100000000100000000000000000000000011000000000000000000000110101000000001000000000000000001100000010000101000000111100000000
01000000000000000000000000000010100001100000100010000000001000000000000101000000000001011100100000110000000000000000000011000000000000101000000000010110010000000000000000000010100010000000000000000000
01010010000000000000000000000010010010001111100101000000000000000100000100000000000001000110100000100000000000000000101101100001100000000001000000100010010000100000000000000011010000000000000000000000
00100110000000000000000000000000000010001100010001000011000000001010000110000000000000100000010001000000000000000001101000000001100000000000000000010010001010000000000000000100001000000000000000000000
00000000000000000000000000000010100010000000011110000010010000000111010000000000000000011101100000000110000000001001100000000000000000000000000000000000000000000000000000000011010001100000000000000000
00000000000000000000000000000011000000000000001000000011110000000000110000000000000000000000000000000110000000001110000000000000000000000000000000000000000000000000000000000000000001100000000000000000
