P1
200 200
00000000000000000001100000000000011000000000000000000000000000000000000000000000000000000100000000000001000000000000000000000000010000000000000011000000000000000000000000000000000000000000000000000000
00000000000000000001100000000100000000000000000000000000000000000000000000000000000000001010000000010001000000000011000000000000010000000000000011000000000000000000000000000000000000000000001100000000
00000000000110000000000000011000001000000000000000011000000000000000000000000000000000001001000000100000100000000011001110000001010000000000000000000000000000000000000000000000000000000000000100000000
00011000000110000000000000011011100000000000000001001000000000000000000000000000000000000010000100110000000000000000000000010110111000000000000000000000100000000000000000000000000000000000001110000010
00010001100000000000000000001111000000000000001100001000000000000000000000000000000000000000000101110000000000011000000000011001010000000000000001110001010000000000000000000000000000000000000111100101
00000001010000000000000000000000000110000000001000000100001000000000000000000000000000111000000111000000000000100100000001000000000100000000000000000001100000000000000000000000000000000000001111100000
00001110111000000000000000000000001011000000010001001001011100000000000000000000000001100010001000000000000000100100000001011010010000000000000011000000000000000010000000000000001000000000111000111010
00000000000000000000000000000000001110000000000000011010100010000000000000000111000001100000100010000000011000000000000011000001000101000000000111000000000000001100000000000000110110000001110000011110
00000000000000000000000010000000000000000000100010000100111101011000000000000100100000001000100110000000101100001100010101000111111000100000000100100000000000000000000000000000000110000001010000000110
00110011000000000000000110000000000000000010001000000000010000011001000000110100100000000000100011100001110000001000011100000010000100100000000001100000000000000000000011101000100001000001010000000000
00000011000000000000001100111000000000000110010000000000000000100010100001000000011000000000000000010011100101101000001000011001100011100000000000101000000000000000011000110100000001000000011000000000
00010100000000000000001100111000000000000100000000000000000000000100010010000010001000000000000000100011010010000000010000011000000010000000000000000000000000000111011000111000001010000011010000110000
00000000000000000000000111101000000000000101000011000001100000000100100010000000100000000000100000000001011011111010010001010011000000000000100010011000000000000110110000000000000000000001000000110000
00000100000000000000000011100010000000000010000100100001010000000110000000001100000000010000100000000001101010000010000100010101000000000001010001000111000000000110110000000000000011000010010001100000
00000100000000000000000000111101100110000000000011000000111000000000000010000000000000010001000000000000000000000000011111101111001110000001100110000111000000000010100000000000000110100010110000000000
00000000000000000000000000011110100110000000000010100001011000000000000010010000000000000001000000000000000000000111000000001011111100000001110000000011000000000001000011100000001000000101100000010000
00000000000000000000000000001000000000000000000000000010110000000000000001010000000000001001000000011110000000000110001110110100101100000000110000001010000000000000000000000000000000000001000000110000
00000000000000000011000000111100100000110000000000000001100000000000000000100000000000000011000000011001000000000000001000001000101000011100011100001100000001111000000000000000000000000010000010000000
00000000000000000111000000111100000010100000000000000000000000000000000000000000000110000000000001000000000000000000000011111000001000101100011010000000000010101000000100000000000000000000001101010000
00000001000000000100100001001010000010100100000000000000000000000000000000000000000110000000001000000000000000000000000010010000101000100010000111000000000001000100011001110000000000000010100100010100
00000000100000000001100000000000000100101010000000000000000000000000000000000000000000000000010000000110000000000000000001110000010000011100000000000000000000111000000101110011010000000111010110011100
00000001000000000110100000110000000100101010000000000000000000000000000000000000000000000000010000010110000000000000000001100000000000011100000000100000110100010000000001101010101100001001010010000000
00000111000000000100010000000000000111001100000000001000000000000000000000000000000011000000011000001010000010000000000000000000000000000000000001000000000011000000000001000010001100000101111100010010
00000000011100001111100000001101000001111000000000111100000000000000000000000000000011000000000011000111000100110000000000000000000001100001100001000000010010000000000001101000101000000000000000001110
00000111011000001111100000000011100000100000000000110110000000000000000000000000000000000000000000000000000111100000000000000000100001100001100000001000001100000000000000111011110000000000000000000000
00000000010000001000000000000000000000101000000001010100000100000000000000000000000000000000000000000011100100110000000000000001100000000000000000001000000000000000000011010100000000000000000011100000
00000000000000000000011000000000010100000100000011000011000100000000000000000000000000000000000010000001000011000000000000000001010000000100000000001000000000000000000011000000000000000000000010110000
00000000000000000000100000100000000010001000000001100010000010000000000000000000000000011100000010000000000001000000001000000011010000001010100000000000000000000000001001000000000000000000000010000000
00000000000000000011100000100000000110011000100000000000110010000000000000000000000000101110001000000000010000000000001100000011011000000000110000000000000000000000001110000000000000000111000001110000
11100000000000001010010001000000000000000001010001100000100010000000000000000000000001100110010000010000010100000011011010001001011101111001100000000000000000000000001000000000000000001000000000100000
11010000000000001001011100000000000000000011011001100000000000000000000000000000000001110001011000001000000000000000111000000010001110110000000000000001110000000000000000000000000110001001000000000000
01000000000000001001000000000000000000000000001000000000000000000000000000000000000000110000010001000000000000000000111100101110000001000000000000000010110100000000000001100000001001000110000000000000
00111000000000000111000000111000000000000000000100000000000000000000001000000001110000000000110000111000000000000000001000100000010110000000000000000010000011101000000011110011000010000000011000000000
00100100000000000011000000011000000000000001001000000000000000000000001101100000000000000001100001000000000000000000100000000000000000000011000000001000100110001000000100010111011000000000110000000000
00011100000000000000001010100000000000000001110000000000000011100001000001100011000000000000000011010110000000000000000000000010000010110100000000010001111100000000001001011100000000000000101000000000
00000010000000000000000100010000000000000000000000000000000011100100000000000111000000000000000011010110000000000001010000000100000010000100110000001000000100000000001000110000000000110000010000000000
00001001000000000000000000010000001100000000000000000010000000001000000000010000100000000000000000011100000000000000110000000100000010000100111100000111111000000000010011000011000001110000000000000000
00001100000000000000000011001000001100000000000000000011000000000101000001111000110000000000000011000000000000000010000000000000011000010101111100000000111100001100010010000000011000110000000000000000
00000101000000000000000000011000000000000000000000000101000000000000000010011110111000001000000100100000000000000011111000100000011000010101111000000001100111110000110100000000011100000000000000000000
00010110000001010000000000000000000000000000000000000000000000000000000010110100110000110000000001000011100001100000001000100000010000111111110000110001000110000000011000000100010010000000000100000000
00001001000001001000000000000000000000000000000000000000101000000000000001001110100001000000011000100010010010010000000000000000101110100010000001001001000100000000000000001101001100000000001010000000
00000000000000111000000000000000000000000000000000000000101000000000000000000000000000001000100011000010011010000010000000010010010001111001000000101000101100000000000000001101100000000000011011000000
01110000000000000000000000000000000000000011000011000000111000000000000000000000000000001001001000000000110010000001000000010000010011110110000000001000101000000000000000000010000000000000010001000000
00110000000000000000000000001111000000000110110100100000000000000000000000000000000000100001111110000010110000000001000000011100010001000010000000000001001000000011000000000000001000000000000000100000
01110000000000000000000000001100001100001000111101100000000000000000000000100000000000011000000010000011000000100101000000001100010100000000000000000001001000000110100000000000011110110000011000100000
11000001100000000011000001100100000010000101100101100000011100000000000001010000001110000000000000000000000000011110000000010000011100000001100000000001001000001000100000001100010110110000010111100000
11000010100000000011000011111001001010000001110000100000011000000000000011010000000000000110000000000000000000000100000000000000000000010000010001100001101000000001000000010010000011110000100000000000
00000001000000000000000111011001000011000000011000000000000001000000000011000000000000000100000000000000000000000000000000000000000000011110100001100001110000000000000000011011000111001000100000000000
00000000000000000000000000000000000011001010010011000000000100000000001110100000000000111101110000000000000000000000000000111000000000000000110000000000000000000000000000011010101000100111000000000000
00000000000000000000000000000000000001000100000100000000010100010000000100000000000001111000001000000000000000000000000001011100000000000000010100000000000000000000000000000010001000101011000000000000
00000000000000110000100000000000000000000000000000000000001000001000000011100000100010011001000100000111000000000000000001000100000000110000010010000000000000000000000000010000001000011100100000000000
11100000000000100100001000000000000110000000000000000000000000001100000001000100100011011000000010000100100000000000000001000000000000000011000011000000000010000000000001001001100011011100111000000000
00100000000000100110111000000000001000000000000000000000000000001010000000000000000000100001000000000111000000000000000001000000000000000100000011000000000011000000000001000001000000000100111000000000
10011111000000010101110000000000000000000000000000000000000000000010000000000000000000000000101000001110000000000000000001010000000001000111000011000000000000000000000011000000100000000001000000000000
01101101000000001100010000000000000000000000000000000000000001000010000000000100000000000001000100011100000000000000000000100000000001001001010100000000100000000000000110100000000000000001111000000110
01111000000000000110000000000000010000000100000000000000000001000100000000001001000010000000000111100100000000001100000001100000000001001000001000000001100000000010110010000011000000000000011000000110
00000000000000000100001000010000101000010011000000000000000000111000000000001011010101000000000011011000110000010010000000000011000001010000000000000000111000000110000000111100000000000000000000001100
00000000000000000000000001101010001000101100000000000000000000000000000000000101000101100010000000011111100000010010001100000011000001010000000100000000000000000000000000000000100000001000000000011000
00000000000000000000000101000110000001001000000000000000010100000001100000000011010100000111000011111111000000001100000000000000000000100001000100000000000001100010000000000001110000010010011000100100
00000000000000000000010010110000110000001000000000000001000010000011100000000111111101001001100001000010000000000000000000000000000000010000000000000000000000000000000000000010001000000000010000011000
00000000000000000000000100001000000001000000000000000011100100000000010001110111000111001100110000000000000000000000000000001100000000110001100000000000000001101100000000000110111000100010001100000000
00000000000000000000000000000000010001010000000000000110011000110001100001111001000001000000100000000000000000000000000000001100000001101000011100000000000000100011100000000110011000011100000000000000
00000000001100000001100000000000010000100000000000000000000000010000000011011110001001000000000000000000000000000011100000001100000110010100011100000000000000110111100000000000000100010000000000000000
00000000110001000100100000000000000000000000000000000100000000000000000000111010001010000011000000000110000000000110100000000000000110111110001010000000000000110100000000000000000010000000000000000000
00000000100001001000010000000000000000000000000000000100000000000100000001001100000100001011000000000000000000011010100000000000000000101010000111001000001001100000000000000000000011000000000001000000
00000000100001000000010000000000000000000000000000000100010000000011100000111000000000110001000000000000000000011010111000000000000000011000000110010100001000001000110011100000001001000000000001100000
01100000011100000000010000011000000000000000000000000000001000000000000011010000000000110111000000000000000111010001011100000000000000011001100000000010001000001001111011100000001001000000000010010000
01010000001000000011010001101000000000000011100000000001010000100000000010100010000000000110000000000100111000001101100110001000000000000101101000000010000000000011111000000000000101000000000001100000
00000000000000000000101001101000000000000000010000000001100001010000000000000010000000011000100000011100010100000110100111001000000000000000000000011010000000001100000000000000000110000000000000000000
00000000000111000001101001000000000000000001011000000000000001110100000000000010000000000000011000000000001100000001000000000000100000000000000000011100000010000000000000000000000000000000000000000000
01110010000111000001010001000000000000000011001000000000000000011100000000000000000000000000110000000000001100000000000000000000111110000000000000001000000010001000000000000000000000000000000000000000
00000011000000100111001111000010000000000110110000000000000000011000000000000000000000000000011100000000000000000000001100001100100110000000000000000000000011000111000000000001110000000000000001100000
00000011100010110111001100000100100000000111000000000000000001101000000000000000000000000001000100110011100000011111011110001100000101100000000000000000000011001111000000000000101000000000000001100000
00000001111000110100001000000011000000000010100000000000000001001000000000000000000000000011101010011010110000011111111110000000001111000000000000000000000001010001000000000000011100000000000000000000
00000001101001011100000000000000000000000001001000000000000000110101000000000000000000000100101010001110010000100011000000000000010000100011000000000000000000110000000000000010000100000000000000000000
00000000010010001100000000000000000000000011010000000000000000000010100001100000000000001110100011000011110111010011000000000000111110000101000001100000000100000000000010000101000000000000000000000000
00000000001110000000000000000000000000000010001111000000011100000001100001110000000000000000100011000000000000011000000001100000110000000000000001000000000100000000000101000010000000000000000000000000
00000000000000000000000000000011000000000000001111000000000000000001000010000000000000000000010010000000000101000100001101100000100000000000000000000000000100000000000100000000000000000000000000000000
00000000000000000000001100000100100000000000001101101000010100000000000000000000000000000011010000000010000111011100001000000000010110000000000000000000000000000000001100010000000000000000000000000000
00000000000001000000011100000001100000001001101110011000001000000111000000000000000000000000010110000111001101011100000100000000000000000001100000000000000000000000000000000000000000000000000000000000
00000000000000100000001111100000000000000011100000011000000000011011000000000000001100010000011100001000000110011100000100000001000110000000011111000000000000000000010010000000000000000000000000000011
00000000000010010000110001100000000000000000000011101000000001000010000000000000011000010001110000001010110000000000110100000010001000000011111010100000000000000000000010100000000000110000011000010101
10100000000010010000110000000000000000000000000001001000000011000000011000000000000000100001000000001010110001100001110000001111110000000000001110000000000000000000011110000000000000101000000000001001
11000000000000111000000000000000000000000000000000001000000101000100011000000000000000011110000000000000101011011001100000010000000000000100100100011000000000000000100110000011000000101000000011100001
01000000000001001000000000000000000000000000000001110000001000100100011000000000000000001001001110000001101001000000110001011100000000000001100000000100000000000000100000011010000000001000000011100000
00000000000001111000000000000000000000000100001101000000000001110000000000000000000000001000000000000000100101000100100001000000000000100000000010011000000000000000100000000100000000110011000011100000
00000000000010000000000100000001000000001011110111000000001100000000000000000000000000000101000000000000110100011001100001100000000011010000000001110000000000001000010000100000000000000011000000100000
00000000000010100000001110000011100000110000000110000000000000000000000000000000000000000110000000000000000101000000100000000000000010010000000000000000000000010100000001101100000000000000000000100000
00000000000001000000010101100100100000100001011000000000000000000000000000000000000000001000000000100000000001110111100000000000000011100000000000000000000000010100000010000010000000000000000000000000
00000000000000001100001001100111000000111100010000000000000000000000000000000000000000011100000000000000000001101000000000000000000000000000000000000000000000000110000000001100000000000000000000111100
00000000000000100011100001010100000000001000010100000000000000000011000000000000101000111000000000000000000000011011100000000000000000000011100000000000000000010111110000001000000000000000000001001000
00000000000100100001100100010000000000000001011010000000000000000011000000000000011000110100000000000000000000011000100000100000000000000011101000000000000000010100000000001000000000000000101001011110
00000000000100000001110000001000010000001001011011000000000000000000000000000000010000011000000000000000000000000010010011011000000001100110000100000111000000010011110010010000110000000000110000100011
00000000010000001110001100001000101000011000000000000000000000000000000000000000000000000110100000000000000001000111001000001000000011111100001100000000101000010010010000100000110000000000110000000011
00000000000000001000000010001000101000000000000000000000000000000000000000000000000000000101100000000000000010000111011001011000000101101000000000000111001100000100100000001100000000000000000000000000
00000000110000000000000001010000010000100100000000000000000000000000001100000000000000001000000001000000000100110100001111000000000111110101000000000000101100000110010000111111000000000000000000000000
00000001000000000000000000100000000000111000000000000000000000000000011100111001100000000101000001000000000000001011000001000000000011110010000000000000111000000000010001111011000000000000000000001000
00000110000000000000000000000001100000100000000001100001111000000000001100111000000000000000000000000000000010000101110001010000000000100001000000110000100101000110100010010100000000000000000000001000
00001000100000000000000000000111010000000000000001100111100110000000000000011000000000000000000000000000000001000000110100000101000000100001100000110001011101001000100011100111000000000000000000001000
00010000000000000000000000000110010000000000000000000110000000000000011000100000000000000000111000000000000000110000100111100111000000110001110000110001010000010010000001100110100000000011000000000000
00000000000000000000000000010000100000000000000000000011010110000000001000000001110000000000011011000111000000100000100001100000000000110000000000000001011000100000000011000010010000000011100000000111
00001000100000000001110101111011000000000000000000000000000001000000110100000111000110000000101111000000000000010001000000000000000000000000000000000000000000001100000001000001110000001000010000000101
00000101100000000001111001010011000000000000000000000000000001110000011110001111110010000000000000000000000010000001000011100000000000000000000000000000000000011100000010100000001100011101100001000001
00000000000000000000001111100000000000000000000000000000000000110000001010110100011100001000000000000000000010110001000100111010000000000000000000000000000000100000000001100000000000100011000001110110
00000000000000000001111000000000000000000000000000000000000000100000011011100000000000000100000000000000000011000100100100111100000000000000000000000000000000000000000000000100101100100100000011000010
00000100000000000001100000000000000000000000000000000000000000000000001100000000000000100110000000000000000000000100100001111000000000000000110000000000000000000000000000000101110000010100000000000100
01110010011000000000000000000000000000000000000000000000000000000000000100000000000110000100000000000000000000000000001101100000000000110000110000000000000000000011000000000100010000000000001001000100
01000010011000000000000000000000000001100000000000000000000000000000000000000000001100001110000000000000000000000110001111100000000000000000000000000000000000000111000000000110110011000010000111011100
00111100000000000000011000000000000001100000000000000000000000000000000000000000001100010111000001000110000000000000000000000000010000000000000000000000000000110000000000000010001100001111000010110000
00001000000000000000010100001000000000000000000000000000000000000000000000000000000000010111000110000000000000000000000000000000111000000000000000000000000000111000011100000000000101101111100000001100
00000000000000000000001000011100000000000000110000000000110000000000000110000000010000000000000001000000000000000000000000000000000101000000000000000000000011011000000000000000001101111000111001110010
00000000000000000000000000000100011000000001110010000001110000000000000110000000000100110000000000000000000000000000001000000001101000100000000000000000000010100000011000000000011010000000111001111110
00000001100000000000000000010100110100000000100101000001101000000110000000000000000000110000000000000000011000000010001000100000000000100000000000000000011100000000011000000011100010000000000110100000
00011000000000000000000000100100001110000000001101000010110000001110000000001000000001000000000000001000011100000110000001110001101110000000000000000000011000000000100100000111000000000001101111001101
00011001000000000000000000000000100000000000000110000001110000001001000000110110000000000000000000010100000100001100000011011101000000000000000000000001110000000000000100001000000000000110101110001101
00110011000000000000000000000011101000000000000000000001000010010001000000110110000000000000000000100100000000001100000011001011110000000000000000000000000000000010000100001010101100001000100000000010
00110110000000000000000000001000110100000000000000000000001101000000000000110000000000000000000000010000000000000100000001111100010000000000100001100000000000000101000000000010000000001000100000000000
00100110000000000011000000010000001100000000000000000000100001001100000000011011000001000000000000011100000000001110000001111000000000000001011001100000000000000100101100000001010110001000000000000000
00011000000011101100110000100010000000000010100000010110100100000010000000011001000110100000001100001010000000000000011000001000000000000001011000000000000000000011001100011101000100000010001000000000
00000000000111010101011100100100000000000100100000001110001110000000000000011100100100100000000010000110000000000000010110010000000000100000110000000000000001100000000011001111001000010000011000110000
00000000001000000100110000000000000000000100110111001000000000000000000001101101000111000000000000000000000000000000010000010000000001000000000010000000000010010000000011100010110000001101011110000000
11000000010011101110001001100011000000001111100000100000000000000000000011101000110100000000000000000000000000000000001111000000000001000000000101000010000010100011000000111000000000000001100010100000
11000000011111000000011000000100100000000110100000100000000000000011001001000100001000000000000000000000000000011000001110000000010000000000000101100001000001000011000000010000100000000000000001000000
00000000001000000000010110100010100000000001100000100000000000000011111000111100001100000000000000000000000000011000100000000000011000000000000011100000000000000011000000100000100000000000000000000000
00000000000000000000000100110001000000000000000111000110000110100000100000010001000110000000000000000001100000000000110000000000101100000000000000000000000000000011011110000000100000000000000000000000
00000000000000000000000010010000000000000000000111000011001100010000000000000010100010000000000000000001100000000001010000000000101000000000000000000000000000000011101101000001000011000000000000000000
00000000000000000000000000011000000000000000000110110000010000100000000000000010000000000000000000000000100000000000000000000000000000000000011000000000000000000011111000100001000110100000000000000000
00000000000000000000000001010000000000000111001001100000001111000000000000000001000111000000001000001100000000000000000000000000000000000010111110000000011001110001110001111110001110110000000001110000
00000000000000000000000000000000000000000000001101110000000000000000000000011000100101100000010000001000000000000000000000000110010000000010101110000000000101110001000000000000001111100000000001011000
00000000000000000000000001000000000000000000000000000000000000000000000000011000011100000000011100000100000000001100000000011010001000000011000000000000011000100001000000000001001101100000111100011000
00000000000000110100000001000000000000000000000000000000000000000001100000000000000000000000000000000000000000010010000000011000100000000101000000000000000000110000000000000010111010000000011001010000
00000000000000001100001110000000000000000000000000000000000000001000110000000000000000000000000000000000000000001100000000101000001000000110000111000000001101110001000000000010011010100000001101000000
00000000000001000000000001000000000000000000000000000000000000001010100000000000000000000000000000000011000000001110100000000000110000001001000111000000001010110011010000000001111000100000000010011000
00000000000000001000001010000000000000000000000000000000000000000011000001000000000000000000011000000011100000001001010000000011010000001011000011000000001011000110010000000001100000100000000101000000
00000000000000011000000100000000000000000000000000000000000000000010000011100000000000000000001100000000000000000101100000000111100000111111000010100000000000000100110000000000000000000000100001100000
00000000000000000100000000000000000010000000000000000000000000000000000100000000000000000000010000000000000001000001000000110000000000010010011000010000010000000100100000001000000000000000000000100000
00000011000000001100000000000000000010000000000011100000000000000000000000000000101000000000011001110011110000000110000000000000000000001100010000100001111000110011000000011100000000000000000001100000
00000011000000001100000000000000000101000000000010010000000000000000011000010001001000000000011000011111101010000000000000100010000000000000010001000011000100010000000000010000000000000000000001000000
00000000000000000110000000000000000000000000000100010011100000000000000110110001010000100000110110010110101010000000000000011100000000000000001100001101101110110000000000000000000000000001000011000000
00000000000111000110000011000000011100000000000110001000100000000000011110000011000000001100110110000000000011101000000000000000000001000000001010001010000000000001100001010110000000000000011001000000
00000000001000001101000100100000001010000000000010001111100000000000000000000001011001100100000110000000010010011000000000000000000011100000000000000000000000000001100000100000000000000000001101100000
00000000001001000000000000110000000110000000000010000010000000000000010000000001000101100000001110000000001010000000000000000000000010010000001110000000000000000000000000100000000000100000001000000000
00010000001010001000010010100010000010000000000001010000000000000000011100000000000010000000011110100000000010000000000000000000000001110000110000000000000000000000000000000000000000100000000111000000
01101100000111001000000000110100000000000000000000000000000000000011011100011000001010000000101000100000000100011000000000000001110000100000111000000000000000000000000000000000000000010000000000000000
00001100000001000010101011100010000000000000000000000000000000000000100000000100000011001000010000000000000000100100001100000010010000000000000000000000000000000000000000011100000000100000000000000000
00001100000010000111101011000000000110000000000001100000000000000011100000000000000000001000001011011000000000011000001100000011111000000000000000000000000000000000000000010100000001100000000000000000
01101000001101111001000000000000000000000000000001100000000000000011010011000000000000011100001101000100000000000000000000000001110000000000000000000011111110000000110000010010000001000000000000000000
00001100001111111000100100000000000001000000000000000000000000000000010010000000000000110100010000001100000000000000000000000000010000000000000011110010011100011101000100001010001010000000000000000000
01110100000110000000100100000000000111000000000000000000011100000111100010100000000100100000001100010000000001100000000110110000000000010100000000110011000000111100000000001110000100000000000000010110
00000000000000100000100100000000000110000011100000000000100011001010001111100000000000000001100100001100001101010000001000101000000100000100010011000001100100001100000010000000000000000000001100001010
00000000000000100000010100001000000000000000000000000000000011000100011000000000000000000001001100000100000001000100011010100100001000100100010000000011101001100001110100000000000000000000001010010100
00000000000000000000000000011110000000001000000000000001111111000011100000000000000001000100111011111000010000000100011010111000001010110000000000000011001110100000000000000000000000000000001110000000
00000000000000000000000000010001000000000000000000000110110000000010010000000000000001001001000011110000000001001000011000100000000111110000000101000010001110000000000000000010000000001100000100000010
00000000000000000000000000001001111000000000000000001011000000000001010000000000000000001001000011100000001110000010001000000000000011000000000011000000010100000001101010000101000000000100000000010001
00000000000000000000000100001110111010000000000000001010010000100000101000000000000000011100000000000000000000001110100000110000000000000000000010000010001000000011100110000101000000000000000001010101
00000000000000000000001010000000100100000000000000001111100001000000011000000000000001101000000000000000000000100000000000110000000000000000000000000000110000000001100111100010000000000000110010000000
00000000000000000000011011000000011000000000000000000011100010000111000100000100000000001000000000010100000000111100000101000000000000000000000000000000000000000000000011010000000001110110001011010100
00000000000000000000011111000000000000000000000000000000000001001011000100011111000000000000000001000100000000010010100001100000000000000000110000010000000000000000001110010000000001100010001000000000
00000000000000000000011011100000000000010000000000000000000000110010110011110001000000110000000010000000000000000100000010000100000001010000001000010000000100000000001001100000000000000001110000000000
00000000000000000000001001000000001010101000000000000000000000000111010010110010100000110000000000110000000100000001111100001010000010001110111000110000000100000000001111000000000010000000000000000000
00000000000000000000000110000000000010100100000000000000001000000001011101100010111100000000000000000000000010000001000100001010000010000011110000100000000110000000001010000000000010010010011001100000
00000000000000000001000000000000000000111000000000000000110110000000011000011010011110011000000000000001110111000011000010000100000000000000110000100000000000000000010100000000000000000111000000100000
00000000000000000010100000000000001110101000000000000000000010000000000000001010000110001100000000000001001100000000010100000000000001000111110001000000000000000000010100010000000000001101110000100000
00000000000000000000000000000000001100010000000000000000000110010000100000000000000000001100000000001110011111000000001000000000100000000001100001110000000000000000010000101000000000001110110001011100
00000000000000001100000001100000000000010000000000001111010000010000001000000000000001000110000000001100100111100100000001110000111000000010100010101000000000000010011000100100000000000110001110000000
00000000000000001100000000000000000000011000000000010011110100100000001000010000010001101100000000000000011110101110000000010000010000000011000010101000000000000010000000011000000000000011100000000010
00010000000111000000000000000000000000001000000000010001001100001000000000010000011101111100000000000000100100011011000010110001110000000001000001110000000000000001010000000000000000000001000001000000
00010000001110100000000000000000000000001100000000011100001000000110000100101100010100011000000000001110111000000000000011000001100000000000000000100000000100001100100000000000000010000000000010000000
00000000011000010000000000000000000000000000000000000000000000000000000000110000010000000000000000000011110000000000000000000001010000000000000000000100011011001010000000000000000111000000000100000100
00000000011010100000000000001100000000000000000000000000000000000000000001001000110000000000000000001001000000000000000000000000111100000000000000001010001010001110000000000000000111000000000100001000
00000001110000100000000000000110010000100000000000000000000000000000000001000000010000000000000000011010000000000000000000000000011000001000000000000111000110000000000000000000000001100000000110000100
00000010000000100011111000000001101010101000000000000001100000000000000000100000000000000000000001000010010000000110000000000000000000110110000000000100011100000000000000000000000011100000000001001100
11000011010001100111010100000000000110101100000000000001110000000000000000000000000100000100000010000001111000000010000000011000000000100110000000000010011000000000110000000000000100010000000001011010
00000000010001000001100110000001000010001100100000000001010000000000000000000000000110000000000010001111000100000010001000001100000000010010000011000010000000000000000000000000001000011000000001101011
00101000000110000010110110000000101100001110111100000000110000000100000000000000000111000100000001100000011000000000010000011000000000010010001110000000100100000000000000000000001000011000000000000001
00100000000000000000111100000010001100000000101010000001110000000111000000000000000001000000000000000001110000000000110000110000000000000011011100000000000000000000000000000000000101110000000000100010
00111000000000000000011000000010001000000000011010000000110000000001000000000000000000011000001100000000100000000000011111100010000000000011011100000001001000000000000000000000000011100000000000101000
00000110000000001000000000000010010000000000000100000000110000000010000000010000000000110000011100000000000000000000001111000101000000000000000000000000100000010000000000000001100001000001000001001100
00000000000000111000000000000000110000000000000000000001000000011011000001101111000000111000100000111100000000000000000000001001000000000000000000000000000000111000000000000100100000000001000010101100
00000100000001110000000000000011100000000000000000000000000000011011000010001111000000101000010001111100000000000000000000000110000011010000000000000000000000000100000000000100100000000011000111000100
00000011110001101110000000001101000011000000000000000000000000011100001100011000001000100100000000001100000000000000000000001000000001111000000000001000000000100010000000000011000000001010001001101000
00000000101101000110000000001110010000001100000000000110000000000001000000000000010100011000000000000000000000000000000000000111000100000100000000110110000000100000010000000000000000010100000100000000
00010001101101000110000000001110110000000000000000011001001000000000100001000001100100000000000000000000000000000000000000010111000101101100000000110000000000000000110000000000000001000010000000000000
00110001100011000000000011000011100011001000000000010011010000000000000011000011000100000000000000000000000000000000000001100011000000101000000000010001000000000101000000000000000001000010000110000000
01100000011100001000000110110001000000101101011100011100010100000001001100000110000000000000000000110000101000000000000001010000000000110000000000001000000000101001110000000000000110000100000111000000
10000000001000001000000011101010000000000000011000000000110101100001001000000010000000000000000001110000011000000000000000111000001101100000000000000000100000010000001000000000001110011000001000100000
10100000000100000000000001000100000000000000011000000000110001010000000000000001000000000000000010001000000000001000000000000000000111000000010000100110100000000000010100000000000110011000101001100000
10100000001100000000000000010101000001000000000000000000110111010000000000000001000000000001110111011110000000011000000000000000000011000000000100101010010000000000001000001100000000000001111000110100
10000000011000100000000111000000110011100000000000011100100100101000000000000000110100000001110010000001000000000010000000000000011001000011000010111001010000000000000000001101100000000001000000000011
01000001000010110000000100010001000110110000000000010000100001000100000000111000001000000000000000110010000000010010000000100100010101100100000000000000100000000000000000001011010000000010100000010010
00000001000100100000000011010000001110110110110000000000000100000010000000011110100000000000000000001100000000010010000000001000100001111001000001000000000111000000000000000100010000000110010000001100
00000110100110000000000000010000001110110100001000000000101110100000000000001001010000000000000100100000000110010010001000000000010111101000001010000000010111100000000100000011100000000011011000001000
00000110110000000000000000000000001110110000000000011101100000000000000000000000001000000000000010110000000110001001000000000000001010110011111100000000111000000000001110111100000000000011100010000000
00001111110000000000000000000000000000111000000000000000000000001110000000001000110000000000000000000000000000001000000000000000000000010101100000000100010000011000010110110010000111000001111010000000
00011100110000000000000000000001000000001011100000000000011100000000000011000000000000000011000000100000000000001000100000000000000000110100000000000000001111100000001000000100000111000000000100000000
01101100000000000000000000000010100000100011100000000000000000000000000011000110000001110000000000100000000000010000000011000000000000100010000000010100011111100000000000000001000000000000000000000000
01110110000000000000000000000001100001111100000111000001000000000100000100000000000001011011100010100000000000000000010101000001100000010000110000101110000111000000000000000100110000000000000000000000
00000010000000000000000000000001100011101000010011000001000000001010000010100000000000110101100001000000000000000001100101000001100000000010000000010010001000000000000000000100110000000000000000000000
00000000000000000000000000000011000010000000011100000010001000000101010010100000000000001101100000000110000000001001000000000000000000000000000000001000001000000000000000000011010001100000000000000000
00000000000000000000000000000010000000000000000000000011110000000000110000000000000000000000000000000110000000001110000000000000000000000000000000000000000000000000000000000000000001100000000000000000
