P1
200 200
00000000000000000001100000000001100000000000000000000000000000000000000000000000000000000000000000001001000000000000000000000000001000000000001111000000000000000000000000000000000000000000001100000100
00000001101100000001100000000001000000000000000000000000100000000000000000000000000000001010000000100001000000000011000000000000001000000001000001000000000000000000000000000000000000000000001100000100
00000001111100000000000000000101101100000000000000000000000000000000000000000001100000101000000010110111100000000010001100000000001000000000001110000000000000000000000000000001000011000000001110000000
00011001111100000000000000011100000100000000000010100000000000000000000000000001110000010001100010100000000000000001000100001111100000000000000111000000011000100000000000000000000000000000000011100100
00010011100000010000000000000000000000000000000011011000000000000000000000100001110000110000000110100000000000001000000100101110000011000000011011100010101000100000000000000000000000000000001100001011
00000110100000010000000000000000011011100000000111010001100010000001000000000011001000001000000000000000000000011000001100011100011110000011111000100010011100000000000010000000000000000000001001110111
00000001000000000000000000000000001011100000010000001000000000000001000000000001110100111000000000000000000000001100000000000001110110000011011000000000011000000000000010000000000000000011001000010100
00000100100000000011000000000110000110000110001000000100011010100000000000000011111110101000110100000001011000000000001001101100001110000000000000000000111000000111000000100000010000000000000000000100
01001101100000000011001100000110000000000000001110000011100000011000000000000100000110000000000101000001011000000000011001111000001000000000000011000000111110000000100001000000011100000001000000000100
00000000100000000110001100000010000000000000100000000001100000100000000000000000000000000010010100110011100000001000111001111000000100000000011011000110111111000100100001101110000110000000110000000000
00011100000000000001000110000000000000000000000000000000000000100001101000000111010000000001100001101110000000011000111000000000110010001000011100000101000000000001110001001101001100000001110000000000
00001000000000000000010001100000000000000001100000000000000000000000110001001111010000000010000000001110100000001000000101000000010101111100101010000110110111000000000000000000000000000000100011000100
00001100000000000000110010110000000000011100000011000001100000000110101001101111010001000011000000000010100000000000000111000110001110101100001010000110000000000000000000000000000000000000000010111100
00001000110000000011100000101101000010011100000010000000100000000110000000100001101101000000000000000000111111001010000101001100000000111111101010000001110000000011000000000000000010000000000011011100
00000001010001000011101000011100000000110000000000000000000000000000000000000001101100000010000000000000000111001110000111000101110000000011100000101111000000000001000001100000000011000000010111011000
01000000011001000011010000000001100110101000000000001000100000000000000000000000101100000101100000000000000000010100000100000000010000000011000010101111000000010000100001110000000111011101011010001010
10000101000000000001100000000000000001100000000001100011000000000000000001100000000000000101000001100010000000000000001100110000010000000000000001000000000000000000001010011100000001101000000101000010
11000110000000000001000000000001000000000000000101000001000000000000000000110000000000000010000001110110000000000000010000011001000000010000001100100000000000000100000000001000111000010101100100010010
11001111000000010000000000000111000000000000000010100000000000000000000001000000000110000000000001010100000000000000000001001000110000101000001101000000000011100000000000000100110000001011101110110110
11111000000000011000000011100000001010000000000000000100000000000110000000000000000110001000001100010000000000000000000001101000010000101000001000000000000010011100011000000000000101110111000110001010
11111001110000111011100010101000000011000110001000000100000000010111000000000000000000000000011100000000000000010001000000010111000000011000000010000000110011110000011011100000000111111011001010000110
11100001000000110000000000101000000110001100001000010100000000000000000000000000000000000000011100001000011000010110000000000010000000000000000001100000010100000000001011100000100011000111000100001000
11100010110000111011000000101110000111000000000000000000000000010000000000000000000011000100000110000100000000110100000000000000000000000000000000000000001100000000000001100011010000000010001100000110
00101011011100000111010000000000010000000000000000000000000000000000000000000110000001000100001010000110000010000000000000000000000000000001100001000000001100000000000000001010110000000000000000000110
00001100000000000000111000000001110000000000000000000000000000000000000000000001000000000000001100100000000111000000000000000000000001110001100000001000000000000000000000000110000000000000000000000000
00001100001100000001111000010000111011011100000110111010000000000000000000000000000000000000001000000111001100001100000000000000011101100000000000001000000000000000000000110000000000000000000000000000
00000000000000000000110000111111100001100000101000110011001100000000000000000000000000000000000010000011000110100000010000000000001111010000000000001000000000000000000100111000000000100000000011110000
00000000000000000001100000111111100011000010000000000111110100000000000000000000000000000000001011000000000110011000010000000011101111111000100000000000000000000000001011011000000000001000000010000000
00000000011000000000000001001110100000000000000000000010000110000000000000000000000000110000000010000000011000000101010100011110000000011011100000000000000000000000001100000010000000000100000000010000
00000000111100000000000001111001100000000000000000111100000000000000000001000000000000011000001110100000011000000001000011111110000000001001000000000000000000000000101111110000000011001110000000000000
11100000110000000111111100010000110001100000110000111100000000000000000000000000000000110001000000010000000000000000100111100000000110000010000000001011000000000000000011100011100001000100000000110000
00100000000000000010010110000001010001100001101000110000000000000000000000100000100000001011000000011000000000000001111000011100000111000000000000011100101000000000000001100111000000000000001100000000
00001000000000000001101100000000000011010000010000000000010000100011000010000011100000001111000000010100000000000000011011001000000110000000000000101000011000000000000000000011001110000000001100000000
00010000000000000001100101100000100000000001100000000000000000000111001100000001100000000011000000000000000000000000001010000000010000101110000000000000001000001010000001000000000000001101000000000000
00111100000000000000000101000000000000000001100000001100000011100000001100010100000000000100000000000000000000000000010110100000000101111110000010000111011001110100000000110001100000000110010000000000
00111001010000010001100101010000001000000000000000100111000011000001001110011000000000000000000110111101000110000001100011100000010100001110001010000110101100000000001101010011100000010010110000000010
00010001000000000000000011111000000100000000000010011010010101000100001000100111000000000000001110000101000000000000101110010011011010000000000000000001101100010000011100000011100000011110110000000000
00111100000111111000000100011000001010000000000000011100000000000010000000111000100000001000001100000000000000000010000111100001110000001000110000000000011000010000010000000000000000010111000000000000
01001110001110110100000000011000000000000000000000000110000000000100000000001111100000000000000000000000000000000011000111011000000000111000110000110000000000011110010000000000000000000101000000000000
00110010001101100000000000110000000000000000000000000001010000000000000001111111100000001111000011000000100000000000000100100011000000110001100101111000011000000000010000000110001110000000000000000000
00111100001000010000000000000000100000000000000000000000010000000000000001100000000000000111100011100001010000100000001100001100100001110001010000000000011000000000000000000110001000000000001110000000
00110100000000101000000000000000000000000000000000000000110000000000000000000000000001101110111001100001010001110000000000000010000010000111000000000110011000000000000110000010000000000000001110000000
00111000000000000000000000000000000000000000000011000000000000000000000000000000000000110100011011000001100000000110000000000001000100000000000000000110000000000000000000000100000000000000000000000000
00000000000000100000000000000000000110000000000010000000000000000000000000000000000000000110000001000000000000110010000000000101010110000000000000000000100000000000000000000100000000000001100000000000
00000000000000000000000000000010011000000111100000000000000110000000000000000000000000001000000000000011100000001101000000011011110100000000000000000010110000000001100000000000011000001100010001100000
11000000010000000011000000001101111001000110010011000000000110000110001000000000001110100000000000000000000000000010000000000011101000000011100000000000110000001111000000001000010100011111011011000000
01000011100010000011000000001001000000010000111001100000000100000000001001100100000000000000000000000000000010000000000000010011000000000011100001100001110000001110000001001100011100001110000100000000
00000000000010000000000001000101001100001100000110000000000000000000000000110100000000001000100000000000000010001000010000010100000110000001000001100000000000000000000000111001110100000000000100000011
00000010000000000000000011100000001110000010101000000110001110000000000011100000000000100001111000000000000000001000000000011000001010110100000000000000111000000000000001011011110000000000000000000000
00001000000000000000011001100000010000000000110000000000001010000000000011000000000000000110111100000001010000000000000101000000001111100100000000000000111000000000110000000000100100000110000000110000
00110000000000110001001110000000001110000000000000000000000010100000000000110011000011110010000000000100010000000000001011000100010011000000000100000000111000000000000000110111000110000110000000000000
00011000010000100000101000000000001000000000001000000000000000011000000000010011000101011011000000000000000000000000000011000110000000000000111010000000000000000000000000000011000010000101000000000000
01110110000000010101101100000000000000000000000000000000000000101000000000000100000000000011000000001011110000000000010101100110000000100110111001001000000000000000000000110000000011000011100000000000
01000111000000000000011000110000000000001110000000000000000000000100000000000101000000000000011100000111110000000001000011000000000000000110001110001010110111100001010000100000000000000011000000000000
01100001000000011100110000000000000000000000000000000000000000111000000000000110000000000000011000000001010000000001000110000000000000110100000000000001000111000000000010010111000000010000001110000110
00000000000111111000111000000000000000001110000000000000000000010000000000000101110000000000001100001100100000000000000100000000000000110010000000000000000011000001100011100100000000010000001010000010
00001000000111110000111000000000011000001101000000000001000000000000000010000011100111000000000100001011000000001000001010000011000000000000000000000000001111110001100001110000000000011000000011001100
00000000000011100000000000101000010000001101000000000100000000000000000000000100011101000000000001000111000000000110000110100011000000000000011100000000001100110001000000000000000000111000000110011000
00000000000000000000000000001000010000010001100000000000000000000101000000000010000000000110000111100000000000000100000001000000000011000000001100000000010000110000000000000001000000011100001100000010
00000000000000000000001101101110000000000000000000010000101110000011001100000000011100000101000001100000000001000000000001100000000001100000111000000000000000000000000000000001100000101000000110010001
00110000000000000000000111110010000000011110100000000001001000110011000000110001001100000111000000000000000001000000001111110100000011000000100000100000000000101101000000001011000000010100000000000010
01110010000000000000000001110001011001101000000000000001011111000011000000011101001010000110100000000000000000000000001111111100010011101000000000000000000000001111001000000010000000100110000000000000
10100010000100000000000000000011011000000000000000000001011011010000001110011000010011000000010101010000000010100000101100011000000011010000001100000000000000000000000000000000000000000001100000000000
00000000001100011010100010000011100000010000000000000000001100000110001100011010000000000111000000001110000100010001100000000000000000011000001100000000000110000000011000000000011100001000110000000000
00000000010010001101000010000001000000000000000000000110001100001101000100011010000000000000000000000000000011010011100000000000000100010000000000000000000111000010100011000001101101000000111110001000
00000000001110001101000000000000100000000000000000010110000000001111000110011100000000000100000000000000000000000010000000000010010111010111000000100000000100111011000111000001111001000000001110001000
00000000001000000001100000000000000000000000000000000110110010101000000010011110000001110101000000000000000000101000110100000110001100000000011101110000000100000001110111000000110010000000000010100000
01000000000000000010000000110000000000000000000100000101001101011000000010000111000011101010010000000000011100111100101010000111000000000000011100001100000000000001000011000000110011000000000000000000
11100000000000010111000001010000000000000110000000001110010000100000000001000111000011100110110000001110000100110001101100000111001100000000000100110110000000010011100000000011100000000010000001100000
01000000000000101010000001001001010000000011011110001000000000000000000000000000000011000000110000010000010110101000110100000111000000000000000001110000000000111001000000000101000000000000100000000011
00001010000110000100010001011001111100000100011000000000000000000000000000000000000001000000000000010100000001100001110000001010001000000000000001000000000001000001100000000001100110000101100000000000
00001010001011111000011000000001111110000011000000000000000000000110000001000000000001000000000000000100000001110000000000001000011100000000000000000000000000010011000000000001011110000011101011100000
00100011111000101100110000000111000110000011000000000000000001110110000010110110000000000000001110011100000100110001100011001000011011000000000011011001000000110011100010000000001001000001111111100000
00000001111000000000100000000000001100000000001000000000010000001110000000110110000000000000001110011000100000110000100001100000001001010000000010100001000001100000000000000000011100000000011100000000
00000000000001001110000000000000001100000111011000110000010000000100100000011110000000000011110100000011100011101001100000100001110001010101000000101000100000000000000000000010000000001010000000000000
00000011101000000010000101000000000000000100011000000000111001000010000000011000000000100011011000000000000001011001110000100001010000110010100010110100000000000000000000000101000100000000000000000000
01000011010100000000000010000000000000000101010000000000010000010000110011010000000000000011000100000000000000011001110001000000000001100001000011110000001110000000000100000010000000000100000000000000
01000010001000000010100000000000000000000100101001100000001110000100000000100000000000000000110111000000000000000000010111000000010001100000100100011000001110000000000110000000000000000110000000000000
00000000000000000011010000000111000100000110010001100000000000000000000001000000001000000000010111001000000011100000000100000000100000000000001010111000011100000000001100000000000000010001000000000000
00000000000011000011010000000011000000000110001101100000000100000110000001000000000000000001000000000110000011011000000111000000000110000000110101101000000000000000000101100000000000000000000000010000
00000000000010000000101001100001001010000011000010001100000000000111000000000000111000000001110000001100000011011000100000100000011010000000100111000000000000000000011111100000001000000000001100010111
01010000000000000010001001100000110100000011110010011100000000110001000000000001110000010001100000000111000000100000010000000000011010000001110010000100000000000001001001001000000000010000011101000111
01100000000000110010000000000001000010000000111110000000000001010110011000000001100000011000000000000001100000000000110000000010000000000010000001110000000000000001000111010010001000010000000011100010
00100000000000111100000000000000100001000000001001000000000001100000010000000000010000000100000000000000110100000000010000000111000000001110000000010110000000000000000000011110000000110000000011000100
00000000001000000000000000000000000000000000000111000000000001010000001000000000101000001010001110000001101000100000011000000111000000001110000001110000001000000000100000001100000000000000000010000100
00000000000001000000001000000000000000000000000111000000011000000101000000000000000000000011000000000000011001110000001000100000000000001010000000100000000000110000110000000000000001010011000000100000
01000000000011100000001000000000000000000100000000000000011000000000000000000100000000000001100000000000000100010000000011011000000000000011000000000000000000110000010000000010000000100011000001100100
01000000000011100000000000000001000000011000110000000000001000000000000000000100000000000001100000100000000000100001000001010000000011100011100000110000000000011000110000000010000000000000000000011000
00000000000000000000000111000011000000011001101010000001000000000000010100000000000000000000000011000010000000110001100011111000000000110011000000000000000000000000000011001100000000000000000000011000
00000000000000000000001111000110000000000000110000000001000000000000000000000000100000000000000011101000000010111110100001100000000000111111000000000010000000001000000001101000000000000000000000001000
00000000011000011100011000001100000000000110111010011010000000000011000000000000011000011100000010000000000000000000100000000011000000111111000010000000000000000000100001100000000000000000100000110000
00000000000000000100001100011101000000000110000000000000000000000010000000000001100000001010000101000000000000001010100000000000000000111000000001000001000000001010111101001000000000000000110000110000
01000000001001010100011000100100001100000010000110000100000000000000000000000000000000010010000000000000000000010011011000110000011101110000010000000000110000001100100110100000110000000010100000000010
00000000000000111000000000011001111010010000000100000000000100000000000000000000000000001100000000000000000000111010100001110000011100000000111000000110110000000010000110100000110000000000000000000011
11000000001101100000000000010000001000001011000000000000000100000000000000000000000000000001100000001000000000100010011000110000010110111000110000000001101000000100000000000000000000000000000000000000
00000010001110000001100011000000001000110000000000000000000011000000000111000001000000000001100001110000000000001010000000000000001100110111000000000000000000000111000000000000000000011000000000000000
11000000001110000001110000000000000001110000000000000010100000001000000111010000110000000010100001000000000001110110000101000000110101010100000000000000010100000001000001010100000000000000000000001000
00000010111100000000000001100000000000000000000000100011000000001000000111011000010000000011100000000000000000100110000110110000000010010000000001100000011100000110100011100110100000000001100000001000
10110000111000010000000000000000110000000000001101110010100000010000100000011000000000000011101000000000000000000000000010010001110000110001010011110000100100000000000000000001100000000000000000001000
01111000110101100000000000000010100000000000001111010000100000000000010000000000000000000001100100000011010001000111000001100011111000010010010011100000100000000111000000000111000000000000000000000000
01110000101001110001000000001110000000000000000100000011011111000001110000000000010000000001011110000011100010000000000000000111111000011010000000000010100000000100001000000011100000000101000000000000
00011100000000000001000000101100000000000000000000000000111010000000000000000000111100000000100000000011000110110010000000000101111000011000000000000010000110000100001000000010100000001111000000000011
00001110110000000010001100101000000000000000000000000000010101000000000000000100010110000000110000100000000001000010000000000110000000000100000000000000000011010011000111000000011000010110010000000010
00000110010000000000011010011000000000110000000000000000000001000000000011011110001000000000110000000000000000000011100001100101001100000000000000000000000110011101000001000001011000001000110000001001
00000110010000001000111110000000000000000001000000000000000000101100000110110001000000010001110000000001000000000000000101000000000110000000000011000000000111010011000000010101101000000000010001111000
00010110001000000000100110000000000000000000000000000000000000011100000011011010000001011010111000000000100000111001000000000010000000000000000000000000000100101010000000000101010000000000000111000000
01100110001100000000000000000000000000000010000000000000110000001110000001100000000001000110010000000011000011001010000111000000000001000001110000000000000010010100000000000100000000011100000100000000
00011100001100000000000000000000000001100001000000000000000000000010000000000000010011000110110000000011100000000100000010000000000110110000110000000011000000010100000000000000000001001100000110000000
00000000000000000000010000000000000001100001000000000000100000000000001000000000110000000011011000101111000011101110001100000000001000100001110000000110000000000000000000000001000011111011000000001110
00000000000000110000011000001000000000000000000000000000000000000000010000000000111010000000010100010000000000000000001110000000001111000001100000000110000000011000011100000001100001001011000000000100
00000000000000110000001110001000000000000000000110000000000000000000011100000000000001000000011110101000000000000000000100000000010000000000000000000000000010100000000000000000100001100101000000000100
01000000010000111000001100001000001110000001110000000000100001000000001100000000000011100000011000000000000000000100001010000000011000111000000000000000000011100000000000000000111111001000110100000010
01000111000100000000000000000000001111100000000110010001011000100000010000000000000000000000000000000000000000001100011111000000000100100000000000000000000011000000000000000001100000000000110101100010
00001111000000001000000000010100001100110000000011100001001000010010000000000000010000000000000001100001111100001111000001110000110111000000100000001000011110000000011000000001001000000000000110101000
00000000000000000000000000000100001110110000000011000001010110010101000000000000000000000000000001110000100100000011000100010001010110100000100000000100010110000000110100000000100000000000000000000111
00000000000010100000000000000010001110000000000100100000000110011010000000011100000000000000000001010000011100000011000111000011001101111000000000000000100110000011111100011100111000000010000000000110
00011100000000000000000000001010001110000000011111110000001110100000000000010010100000000000000001010001110000000000000100011100010001001000000000100000101000000100111100000000000001100111000000000000
00011100000000000001000000001000000000000000101110101000010100000000000000000010101000000000001011000011110000001100000011001100000000100001010001100000000000000010100110000000001000000000000000000000
00100000000000000011000000010000000000000001000000011000010000000011100000001100000011100110000011100001000000001100000000110000000010000000100000000000000000000001000001100000011100001111010000000000
00000000000000000111000000110000000000000000000000010000011100000000000110000000000011100000000000000111011100000000010110000000000001100000100000000000000000000000000010110001001100001001010000000000
00000000000000000100000000000000000000000011000000000000011000000000000100001111100000000000000000000011000000000000001001000000001110000000001100000000000001110000000000101100010000001110011000010000
11000000001111110000111000110000000000000010000010000000001000000000011111001010010000000000000000000011000000000000000100000000000000000000011110000000000010110001000000010110100000111110001100110000
11000000001110000001111010111111000000000011100111000000000000001110010111000010011100000000000000000000000000001000000101000000000000000000000100001110000001011011000000000101000000101000001110011000
00000000001000100000101000001111000000000000000010000000000000000111010001011000100000011000000000000000000000011110000000000000000000000000000000001100000000001110000100000011000000000000001100001000
00000000000000000000010001001001000000000000000000000010000000111111000000000000011110000000000000000000000000000111000100000010111000000000000000011011000000001110001100001000000000000000000000001000
00101000000000111000000000100000000010000000000000000110001100110000000100000000010010000000000000000001100000000011100000000000100000000000000000000011000000110000001100001110000000000000000000001000
11001000000001010000000000110000000010000010000000001110001100010000000100000000010010000000000100000010100000000000100000000001110000000100000100001010000000100101001010001110000111000000000000001110
11100000000111000000000000000000000000000110000111000100001100000000000000000000010000000000001000000100100100000010000000000001110000000111011000000100001111110110111110000000000001000000000000101010
00000000000111100000000000110000000000000010000110100010000000000000000000001000010110110000001110000111010000000000000000000000000000000010010000000000001000000001100010000000000111000000000011000000
00000000000101100000000000111000000000000100001000101000000000000000000000011000000001110000000000000011000000000100000000000100000000001111000011100000001010000001100000000001010000000000000011100000
00000000000011100000000110011100000000000011000000010000000000000111000000000000000010100000000000000000000000000100000000010011000000111100000000000000000110000001100000000001011000001110001011001000
00000000000111100011110001001100000000000011000000000000000010001111000000000000000000000000000000000000000000000100000100001010110000110100000010000000001000110000100000000010100001001111110100001000
00000000000000000010001110001010000011000001100000000000000000001001000000100000000000000001100110000011000000110000010100001101110011000100000010010000111001100001100000000000000000110010011010001000
00000000000000000010000000000000101011100011100000000000000000000110000000111000000000000000000100000010000000000001010000000000000111000000000001001000011000100000000000000000000000010000000000000000
00000000000000100110000000001010001001111110000000011000000000000000000000000000000000000101011110000001111000111111000000000000000011000100000010100000011100111011000000000000000000000000111110000000
00000000000000100010000000000000001000001100000000010000110000000000000000100000000000000000010110000000111010000010000000011000000011001100001111100100011001100001000001000111000000000001011110101000
00000011000000010100000000000000000000000010000001011110000000000000000100110000000000000000001010000001001000010001000000011100000111111000011011000100000111101100100001110111000000000011000000011000
00000011000000000010000000000000010010000000000001011101100000000000000110010000011000000000000010000001100000111000000110011000001111100000000100001101010110000000000110101101100000000000000000011110
00000000000001100000000000000000000111000000000001000100000000100000000101101011010000100000001111110011010000000000000000000000001111000000000001100111000001100000000010110011100000000000000100001110
00000000000000000000000000000000000111000000000001101011100000000000001010000000110000111000000100111010010000011000000010000100000110000000001000100001000001000001010011000001010000000000001110000000
00000000000011001110000111010000000100100000000001101100000000000000001000000000000000001000001000000101100100011000000000000100000011000000001100000000000001100000100111000000000000000000000110000000
00100000000001001110000110100000000011000000000110010000000000000000000000000000000100100000001000001011000100000000000000000000000001100000000100000000000000000001000011000000000000100000000010000000
00000000100110000101000010111110000000000000000111000000000000000001000110000000011000011000010001100000111000000000000000000000000000100000001000000000000000000000000101000000000011000000000010000000
00011000000001010111000001001110000000000000000001000100011010000011000110001101111000100000011001110000101000010000000000000000000000000000011010000000101000000000000000001100000011000000000010000000
00011000000000110001000100000101000000000001100001001000011100000000000000001001011001010000011000010000000000010000000000000000010000001000001010000000000000000000000000000000000011000000001000000000
00011000000000000100001100000010000110000000000001011100000000000000100000000101111011100000000000011000000000010000011110100011010000000000011000000110000000000000000000000000000001000000000000000000
00001100011110000100001110000000000100000000000110011100000000000001110010000000011011100000000000011000000000000100000111001001010000000000011100000111000000000000010000111101000111000000000000000000
11001110011110001000001000000000000000000000000000000110000000001000101111100000011111101000000110011000000000000000101010000100100000000000111111000000010011000000011100001100000111010000000000000000
11000000000100010000001000000000000000000100000000000110000000000100000000100000000000111100001100000000000010000000000000001100000000001000000001110000010101000001001110000000000110000000000000010100
10101110000001100000001100000000000001111011010000000000011100001100000111000000000000111000101100110000000011010000000000010000000000011000001100000000000001111111000010000000000000000000001001000000
00100000000000000000000011000000000011011111000000000000000100000100000110000000000000110010100011110000000000100000000111011000001110011000011100000001110001011111000010000000000000000000001011000110
00000000000000000000000011110000000001100011000000000001000100000000000000000000000000000010001110010000000001111000001000000010001110011100000100000001110000110010000010000000000000000000000111001110
00000000000000001000000010110111000110000000000000010001101000000000110000000101000101000011100100010000000101000110001000000010000000000100001010100000001000001110000110000000000000000000000000001110
00000000000000001000000000000100011100000000000000000010110000011000100000000100010010000000000001000000000110000110001111000000000000001000000010000001011000001100001100000110000000000110000000010010
00000000000000000000000000000000001000000000000000000100000000011000100000000001000000001111000011000100000000000100011000100000000000000000010000100011011000000010000000000011000000001100100000101110
00000000000000000000000000000000001000000000000000000111000000110001101000000000000000011100000011100000000000010110111000111000000000000000110000000010110000000001100000000000000100001011010001101100
00000000000000000000001000000000001110000000000000000000000000000000100000000000000000001000000000111000000000111001001110000000011100000000111000000000000000000000000001000000000000110000000001100010
00000000000000000000010111000000001110000000000000000000000000011000001000001110000000000000000000101000000000101111000010000000001110000000001100011001110000000000000011100010000000111000011000000000
00011100000001000000001011000000011011110000000000000000000000011110011001010000000000011000000001011000001001000010000000000000001110100000011100010001100000000000001110010010000010110000000010000000
00001100000001000000000010000000011100110001000000000000000000010110011001110010000110011000000001011000010111001110000000010100000000000000010111101000000000000000001000000000001011000000001110000000
00000000000000000000000000000000000000010000010000000000000000000000100101110000000110010000000000101110000000000000011000100110000001000011000010110000001110000000010000000000000000000000000001100000
00000000000000000000000000000000000000000001110000000000001100000000000001110011000111001000000000001110000000001100011100000000000011000101100010000000000010000000001000000000000110000110011100000000
00000000110000000011100000000000000000000000100000001011111100000000000001110001100000000000000000011001110001101100011000000000000011001101100000000000001110000000000100010000000000000011000000100000
00000100000000001110000000010100111011110000010000000010000000000000000001000001000001010100001110011001010001101110000000000000000000000001100000000000000110000001000100101000000000000011011011000000
00000100100000001110000011000100010111110100000000110011110010000011000000000000100000010100001111100000000000010100000000000001110000000100000010011000001100000010110000011000000000000000010011011000
00000000000000001000001010100010101011100000000000001001100111101010100000000011000000011100000101101010111000001100000000000110110000000110000010101000001100010001100000011000110001000001000110111011
01000000001000000000000110100000010000000000000000001100000101100001010000110011100001000000000000100000101000001100000011111111001000010000000010100000010111100000000000000000000000010000111100000011
00011000000000100000000000000000100000000100000000000010001100000010101110110110000100000000000000100001110000000010000001110011111000100100000000000000010111111000000000000000000000000000110100110011
00010000000111100000000000001100110110110010010000000000011000000000000111000110011100000000000000000101000000000011100000110000001001110000001000000000011000010100000000000000000000000011011100110000
00000000000101100000000000000100000000010010000000000000011111000000000000100010011000100001000000011100000000000011000000000000000111011000110100000000010000011110010000000000000111000011001101011000
00000000011000000000000000000000000100110100010000000000111010000000000011000000001000000110000000010000000000000000100000000000010111010000011110001111000000011000010000000000000111000001001100000000
01100000001000000000010000000111001110000100000000000000000001000000001000110000000010000000001100111000010100000010100000000000000001111000010010000101000000001100011100001010000101000000000001100010
01000011100111000000010100000010000000000101000000000000100000000000000110000000001011000000011110111000010100000011000000111000000000000100000000000101000000011100010000001010000000001000000001101100
10100000000111000111000000000010100000000111110000000011000000101000000000000000000110111010110100000001000000000000000000011000000000000110011100000100000100001100011100000000000111000000000001101100
01000000000000001100000011000011011000000010110000000100010010001000000000010000000010110101110000110000110000000000000100110000000000000110001110000100011010000000101110000000000000111000000000001100
01110001000000000001100011000010111000000000111100000001011010000100000000010100000000110111111000011101100000000000001110000000000000000000010000000000001010000000001011000000000000111000110000001000
00010001000000001101100000000000000000000000000100000011011110101000000000000100000000000011111000001001000000000000000110000000000000000000000000000000111100000000000011100000000000110000110000010000
00010101000000001000100000000000000000000000000100000000110010011101100000000101000000000000100000000101000000000100000010000011000000000011110110000000100001100000000011010010100000111000100000010000
00000101000000000000000000000001000000000000000000000000000010001000000000000000000000000000011001111000010000011000000000000110000010000110001000000000000000110000000000001001000000110000000000011000
00000110000000111000000000000010110000000000000000000000000000010000000000101100000000110000000101111000111000011100000000000100000000000110000000000000000000000000000000000011000001110011000010000000
00000111000000000000000000000110000100010101011001100010000000000100000110110000001000011000000000011000011000000000000000000000000011000000000000000000000000001000000000000011000001110011000011110100
00000110111000011100000000000000000111100110000000001100000000000111001011010100010100001000000000000000101000000000000000000000000000110000000000000000000000000100000000000000000000010000000010000100
00001101000000000111000000000111001100100001101111000000000000000011001000000000001000000000000000000000100000000000000000000000000010011000000000011100000000001011000000000000000000001000000000000100
00000111001000010100000000101001001101000001110111001001011100000011101100000001011000000000000000000000000000001000000000100111100010011000000000100100000000000000110110000000000001101000000000000000
00011110101001110100000001100110000100100000100110111011000000000000011000000001100000010000001010000000011000010000000000110101100010100000000000000000000000011001110010000000000110111000000000000000
00010100000000000000000001011110000010100100000011110011011000000000011000000000100001010001001100101000001010001100000000011001100000000000000000000000000000001011101000000011000011000000000010000000
00000000011100100000110000001000000000111100000000000100011101100000000000000000000001000001111100100000000100001100000000000100000100000000000000011111000000001101000110000000000110000000011101100000
01000000011000000000000001000000000000111000011000111000000001100110000000000000000001000001101111011000000000001000000000000100011100000000000000011001110000000001100010000000000000000000011001000011
11100000011011000001000001100011010000111011000000000000011110100001010000010000111000000000100000000011100000001000000011001000001100010001001000100001110000000001100010100011000000000000011111100000
01100000000001000000000001011010100000111011000000011100000000000001010000010000110100000000000001110011100000000100001110101000001010100010101100000000000000000000000000101011101000000000000100111010
00000000000111000011000000110101000000111001100000000000000010011000000000011000011000000010000000000011000000000110001100001000000101000010100100100000000000000000000000010000101000000011000000001000
00000010000000000000000000000011100000111000110000000011000110011100000000000000011000000000000000100000000110000110001100000001010000000010010011111001110001101100000000011000000000000001100000001000
00001010100000010000000000000001010001011000000000000110000010001000000000001100011000100000000011000000001010000000000000000010110100011111000110110111000110101100001100110011000000000000110011000000
00000010110000000000000000000001100000100100000000000100000111010000000000000110011001010000000011000000011100000101111100000011110001100011000000000000000001101000010111001001100010000000000011000000
00111001101000010100000000000000111101111100011001000010000111110000000000000100000000101100100111000000101000001101111000000001100011100011000000000011011000001000010100000110100111000000000011110000
01011110000000000000000000000000110110000011011011100011111001100000000011101000000000101101000000000001110000000010001100000001100011010011100001000000100000000000001000010010100011000000000000010000
01100100000011000000000000001010001111000111010011000011100010001000000011000000000000011000000100110011000000000110000000000011100000111001000011100000011000000000000000000010100000000000000011000000
00010000000000000000000000000100000000001111000000000010110000000101000001100000000000001111000010000011000000000110000001000000000000101000000011100000111000000000000000000001100000000011010000000000
00000000000001000000000000000111000000011000000000000001100000000111001000000000000000000001000100000111000000110110000011000000000000000000001000001111010000000010100000000001100001100001100011000000
00000000000000000000000000000000000000011100000000000001000000000001110000000000000000000000000000000010000000000000000111000000000000000000000000001111000000000111000000000011000001100001000000000000
