P1
200 200
00000000000000000001100000000000000000000000000000000000000000000000000000000000000000000100000000000000000000000000000000000000000000000000000011000000000000000000000000000000000000000000000000000000
00000000000000000001100000000000000000000000000000000000000000000000000000000000000000000011000000000000000000000011000000000000000000000000000011000000000000000000000000000000000000000000000000000000
00000000000110000000000000000001110000000000000000011100000000000000000000000000000000000111000000000000000000000011001110000111011000000000000001000000000000000000000000000000000000000000001100000000
00011000000110000000000000011000100000000000000000000000000000000000000000000000000000000000000100000000000000000000000000110000100000000000000000000000100000000000000000000000000000000000000000000000
00000000000100000000000000001101000010000000010100010010001000000000000000000000000000010000001000000000000000011000000000110001111000000000000001000001010000000000000000000000000000000000000000000011
00010000001000000000000000001100000111000000010100000001000100000000000000000000000000110000001100100000000000011000000000110101101100000000000011000001100000000000000000000000001000000000000000000011
00000001101000000000000000000000001000100000001000000011100010000000000000000111000000000000001101000000001000001100000000000000010100000000000101000000000000000000000000000000011100000000000000000011
00000101011000000000000000000000001011000000000000000000000011010000000000000101000000100001011010000000001100001100000001100000000000000000001101100000000000000000000000000000000010000001000000000011
00000010000000000000000111000000000110000010000000011111101111011100000000001100100000100001010100000000000000010000000101001100010000110000000010110000000000000000000001100000111101000011011000000000
00011111000000000000000000010000000000000101000000000001111100100001100001110000100000000000101111100000001001011100000100010010100000010000000010000000000000000000011011100000011101100000000000000000
00011101000000000000000011111000000000000001000000000000000000010000010010110000011000000000000011100000001011010100010110010001001000110000000001010000000000000011111001101100000011000011000000000000
00000010000000000000000000010100000000001000000000000000000000010000010011100000011000000000000000000000011010000100011100010000100111000000000000101000000000000111111000011000000100000000011000000000
00000000000000000000000000001100000000001110000011000001100000001000100000000000000000000000000000000000101000100110000100000100100000000000100000001110000000000000000000010000000101000001011001000000
00000000000000000000000000000111000000000000000100100011000000001110000000000000000000000001100000000000010000110100010001011011000000000001111110000111000000000100000000000000001000000111100001110000
00000000000000000000000000000010100110000000000110000011100000000000000001000000000000000000010000000000000000000100010111100000000000000000011010000000000000000011100000000000001001000110111000000000
00000000000000000000000000000010100110000000000111000011000000000000000011110000000000000010010000001110000000001101010001100000000000000000000100000001000000000011100011100000000110000011010001000000
00000000000000000000000001110011000011100000000000000010010000000000000010010000000000000000000000110010000000000000111100001110000000001000000000001010000001110000000000000000000000000000100010001000
00000000000000000010000001100011000001110000000000000001110000000000000000100000000000000011100000111110000000000000001001110110001100011110000000001110000001101100000000000000000000000001101111001000
00000000000000001101100001110000000010000000000000000000100000000000000000000000000110000000000000000000000000000000000111000000011100110110000001000000000010111100001100100000000000000011111101101000
00000000000000001111100001100000000110100100000000000000000000000000000000000000000110000000000000000100000000000000000000110000011101110111001100100000000001100100011100111111110000000111110010110100
00000001100000001100000000110000000000101010000000000000000000000000000000000000000000000000111000000110000000000000000011100000000000110110000001000000000010000100001100001110111000001110111110110110
00000000000000000111001000101000001001000000000000000000000000000000000000000000000000000000100000001010000000000000000000100000000000000100000010100000011000001000000000000010101000000110110010010110
00000010001000000000011000001000001100011000000000000100000000000000000000000000000011000000111000000101000000000000000000000000000001001000000000000000011000000000000000000100011100000001000100010010
00000010110100000000110000000100100000001100000000000010000000000000000000000000000011000000000000001111001100000000000000000000000000000001100000000000000001000000000011000110101000000001100100001010
00000001100100000000000000000100010000011100000011000111000000000000000000000000000000000000000000000100111110110000000000000001100001100001100000001000001110000000000011001000001000000000010001110110
00000001011000000001010000000000100000010100000011101101000000000000000000000000000000000000000000000100001100000000000000000001010000000000000000001000000000000000000110000100010000000000000110011000
00000000010000000000010000000000000000100100000100001100100110000000000000000000000000000000000000000010100101100000000000000000011000000010100000001000000000000000000110000011000000000000000110110000
00000000000000000001100000000000000010100000000011000100010000000000000000000000000000110000000000000001000111000000000000000000001000000100110000000000000000000000011010000000000000000110000110000000
01000000000000000110110000000000000110010011110010000000000101000000000000000000000000100001100000000000000100000000000000000010000000011100001000000000000000000000011000000000000000000111000010010000
01000000000000001000000000000000000000000110001001100001011010000000000000000000000000000001111000000000000000000000000000000101100000001000110000000000110000000000011100000000000000001001000001010000
10000000000000011011011000000000000000000011000011100000000000000000000000000000000000000001011000000000000000000000000000010001100001110000100000000001001100000000000000000000000010001011000000100000
11001000000000011001001000010000000000000000100010000000000000000000000000000000000000000000111001100000000000000000011100110001000001000000000000000011000011100000000000010000110000000111010000000000
10001100000000001101100000101000000000000000100000000000000000000000001001000001000000000001010010011000000000000000011100000110000100100000000000000001101111000000000110011011011000000001110000000000
01000010000000000010000001101100000000000001000100000000000001000000001000100011000000000001010011001110000000000000010000000000000101000111000000001000001000100000001110000101001000000001101000000000
00110010000000000000000011101000000000000001001000000000000010110000000000010101000000000000100000101110000000000000000000000000000001001000100000011101110000000000010000001101000000000000100000000000
00010011000000000000000110000000000000000001110000000000000010111100000000110100110000000000000000100000000000000001010000000000000110000000100000010000000000000000000000101110000000100000010000000000
00011010000000000000000000001000001100000000000000000011000001111100000000101111110000000000000000000100000000000001111000000000000000001100000000001110000000110000100000100000000001011000000000000000
00001100000000000000000001100100001100000000000000000001100000000100000000000111001000000000000001001110000000000010001000000000011100000000000000000001000001001000110000100000111000100000000000000000
00001110000000000000000000011000000000000000000000000010000000000000000010000000011100110000000010000011100000000010001100000000101000000000000000000011000000001000100100000100000100000000000000000000
00001100000000000000000000000000000000000000000000000000000000000000000010101000101000001000000000110100111111100010001000000001100111000000000000110010000001100000111000000110000010000000001110000000
00011110000001001000000000000000000000000000000000000000000000000000000001111111110000110000010010100100011000100000000000000001101111000000000000101000001100000000010000001000001100000000010001000000
00110100000000101000000000000000000000000011000000000001101100000000000000110101100000110000101101100010010001000000000000000001000010000101000000011100001100000000000000000100011000000000100000000000
00011000000000111000000000000110000000000101000011000001101100000000000000000000000000000001000001000000001110000011100000110001001000001001000000001000000000000010000000000111010000000000100000000000
00111000000000000000000000001010000000001000000101100000011000000000000000000000000000011001000011000010100000000000100000110111000001000100000000000000000000000101000000000010111000000000100000000000
00000000000000000000000000001010000100000010001110110000011000000000000001100000000000010101001000000011100000001011100000000100000110000011000000000000000010001000100000000000110000010000000000010000
11000001100000000011000000001110000010000111000010010000010100000000000001100000001110001110010000000001000000000100000000000000110110000011100000000100000000000110000000001110111000001000000000010000
00000010100000000011000110001010000100000011000011100000010100000000000000000000000000000111000000000000000000000000000000000000001000010110010001100010111100000000000000011011001000011000001100100000
00000001000000000000000110000100000000000001101101100000011000000000000000000000000000001000110000000000000000000000000000000000000000010000001001100001110000000000000000101010010100001000100000000000
00000000000000000000000000000000000001000010001111000000001000000000000000000000000000100100001000000000000000000000000000101000000000010101001000000000100000000000000000100011010011001000110000000000
00000000000000000000000000000000000011000000000110000000001100001000000100100000000011000001011000000111000000000000000011101110000000000001000010000000000000000000000000010101000000110001110000000000
01100000000001111111000000000000000111000000000000000000000000010100000110010000000010000110001000000111000000000000000000000000000000000000011110000000000000000000000000011001010111010000110000000000
10110100000001000111010000000000000110000000000000000000000000000000000010100000000010011000000000000100100000000000000100100000000000000000000001000000000011000000000001100011000000100100110000000000
00110110000001000100110000000000000000000000000000000000000000011011000001000000000011110000000000000001100000000000000000000000000000001101001100000000000011000000000001110001100000000100100000000000
01000101000000111010100000000000000000000000000000000000000000000001000000000000000000100000000000010000000000000000000011100000000001011101110001000000000000000000000011100000000000000100100000000000
00000010000000000011100000000000000000000000000000000000000000000001000000000000000000000000001110111000000000000000000001000000000010100011101010000001100000000010001101010110000000000011000000000000
01111000000000000111000000000000000000000000000000000000000000000010000000000001100111000000000100100000000000001100000000100000000100000100011000000010010000000101000110000000000000000000000000000110
00111000000000000110000000001000111000011011000000000000000000000100000000001111101100100010000000000000110000010010000000000011000000000000000000000001010000001000000000100000000000000000000000000000
00000000000000000000000001000001011000001010000000000000000000111000000000000000000100010111000010000000010000010010000000000011000011000000000000000000010000000101000000010000010000000000000000111000
00000000000000000000000000000001000000011000000000000000000100000001000000000000000000011101100011100001100000001100000000000000000000011000000000000000000000001110000000001100001000000000011000100000
00000000000000000000000111100001010000000000000000000011100010000110110000000000110000001000110011100001000000000000000000000000000000011001100000000000000000010100000000000010001000001000010100011000
00000000000000000000000111010000000000000000000000000100000010000001110000000000100000001100011000000000000000000000000000001100000011111001111000000000000000110111000000000000111100100100001000000000
00000000000000000000000000000000000001100000000000001000100100110000000000000011100100010000110000000000000000000011000000010010000011000100011100000000000001001100100000000011110110100100000000000000
00000000101100000001010000000000000000000000000000000111010000110000000000000011001000100001000000000000000000000110110000001100000100000100000010000000000000000011100000000011001001010000000000000000
00000001001010000000000000000000000000000000000000001000000000000000000011000011001001001101100000000000000000001010110000000000000110100111000011000000000001101110000000000000000001100000000000000000
00000001001010000000000000000000000000000000000000000100000000000011000011000000000100001100100000000000000000000100110000000000000010110011001001101100001000111010000111000000001000000000000010100000
00000001101010000000000000010000000000000000000000000100010000000000100011000000000000100011100000000000001011110001000000000000000001110100010100001010001000111110000110100000000000000000000010010000
01100000100010000000000100111100000000000001100000000000111000000011000110000000000001110000000000000000111111011100000010000000000000011100010010001001001000001111000000100000000000000000000010010000
01100000010000000000100001101100000000000011110000000001001000110000000001000110000000100110000000001100100010000100000001000000000000001000011000000001000000001000111111000000000001100000000001100000
00000000000000000011101010000000000000000010001000000001100001011000000000000010000000000000000000001100101000001001000001000000000000000001100000000011000000000001111000000000001110000000000000000000
00000000001101000000011010100000000000000111100100000000000000100100000000000010000000000000011000001100010010000111000010000001101100000000000000010100000000001000100000000000000000000000000000000000
01110011001101101000111000100000000000000011001000000000000000000000000000000000000000000000010100000000001100000001000000000001101000000000000000001000000110001110000000000001110000000000000000000000
00000011000000111000011001100000000000000000111000000000000000001100000000000000000000000001101110011111111000001100000000001111110000000000000000001000000110000111000000000001010000000000000001100000
00000000001100011000110000000010000000000000010000000000000001111100000000000000000000000011111010111111110000011100000000001100000000000000000000000000000010001011100000000001010000000000000001100000
00000000001110000000001000000010000000000000110000000000000001000000000000000000000000000110110010000000110000110000001100000000000000000000000000000000000001010000000000000000000110000000000000000000
00000000100001100000000000000000000000000010010000000000000000110001000000000000000000001010100110110001001110001110001100000000001100000011000000000000000001111000000000000010001000000000000000000000
00000000110001100000000000000000000000000010011000000000000000011000100000100000000000001010000000000010001000000001001111000000000000000011000001100000000100000000000000000101000000000000000000000000
00000000011001000000000000000000000000000010011000000000011100000010110010010000000000001100011010000010000001010001000000100000001100000000000001100000000100000000000110000010000000000000000000000000
00000000001110000000000000000001000000000000100000000000010100000010100001100000000000000011010001000000101101010000001000100000000000000000000000000000000100000000000110000000000000000000000000000000
00000000000000000000001000000010100000000000010001000000011100000001000000000000000000000000010000000101000001000110010000000000010000000000011100000000000000000000000010000000000000000000000000000000
00000000000000000000111000000001100000000000100001001100000000001110000000000000001000000000000001001000011101011110001000000000000000000000011111000000000000000000001110000000000000000000000000000000
00000000000001010000110001100000000000000010110100100110000001011001000000000000010100000000100110011010000000000110000110000000010100000000001011000000000000000000001110000000000000000000000000000111
00000000000010010001100000000000000000000001100010100010000010110110000000000000010100110010100000011000100000000000001100000111010100000011000000100000000000000000011000000000000001110000000000101101
01000000000010000000110000000000000000000000000000000000000000010011111000000000001000100101000000000000000000000000000000011110000000000010001011000000000000000000111100000010000001101100000001000110
10000000000011100000000000000000000000000000000000001100000000000000100100000000000000011001000000000000001000011000000000100000010000000010011111001000000000000001001000000101000001100000000010000000
11000000000000000100000000000000000000000011111111110000001000001000011000000000000000010000001110000000011001101000000001000000000000000001001110010100000000000001000000010001000000000000000111011000
00000000000010111000000100000001000000000000001100000000000111001000000000000000000000001010000000000001000111101100010011001000000011100000000001000100000000000001010000000000000000010001000000011000
00000000000110110000000110000010100000110000000010000000000001110000000000000000000000010000000000000000010111101100110011110000000011010000000001001000000000001000000001000010000000000101000000110000
00000000000011000000001111000110110000110010000010000000000000000000000000000000000000010010000000000000011000100000010000000000000100010000000001100000000000000100000010000110000000000000000000100000
00000000000000000011011000101100100001001100111000000000000000000000000000000000000000010010000000000000000000101111100000000000000011100000000000000000000000001000000001010010000000000000000000101100
00000000000000001100001001010100000000011100000100000000000000000000000000000000000000000000000000000000000000001100000000000000000011100001100000000000000000000001100000100100000000000000000001101100
00000000000000001100001001010010000000011100001010000000000000000011000000000000010000000000000000000000000000000001110000100000000000000000010000000000000000000001100000000000000000000000000001000011
00000000000000001110111011000000000000010100010001000000000000000011000000000000001100000000000000000000000000011010000001001000000000000001000000000011000000110100010000100000000000000000000001001011
00000000000000001101010100000100010000011000000111000000000000000000000000000000011000001011000000000000000000011000100100001000000000000000110100000011111000100001110000100000110000000001000000101000
00000000010000001011110000100100101000100100000000000000000000000000000000000000000000010000100000000000000001000000001100000100000000000000001100000000011000000000001000111000000000000000110000010000
00000000110000001011110111000100101000100100000000000000000000000000000000000000000000000000010000000000000001100001000000011000000000000011000000000010001000000000001000110001010000000000000000000000
00000000000000000000000011001000110001101100000000000000000000000000001000010000000000001101100000000000000001011000000101010000001110000000000000000010010000001100001001100011000000000000000000000000
00000100100000000000000001110001110001100000000000000000110000000000110110011000000000000000000000000000000000011000000001100000000000000000100000000010100000000100001011000000000000000000000000001000
00001000100000000000000000000001110001110000000001100000100100000000110110011100000000000000000000000000000000111000110011000000000000000000100000110011001110000100010011000000000000000000000000001000
00001100000000000000000000001110010000000000000001100000000000000000110100001000000000000000011000000000000001010000100011011100000001100010010001001001000110101111100000000000000000000000000000000010
00000000000000000000000000001100110000000000000000000100001000000000110100000001100000000000011000000000000000010001111100011101000001010001010000110011010100100000000000000011100000000110000000000110
00000000000000000000000000010011110000000000000000000010000000000000101100000001110100000000011110000111000001110010000101000010000000100000100000000000001000110100000000000010010000001110110000001101
00000001100000000001100000010000100000000000000000000010000011100001110111000000111110000000000101000000000001010000010010100000000000000000000000000000000000010110000000000011000000010000010000000101
00000001100000000000000000111001000000000000000000000000000000100000000011010000110010000000000110000000000011110000010111000000000000000000000000000000000000010100000000110001001000100111010000001001
00000000000000000000000110100110000000000000000000000000000000010000000010000000110100000100000000000000000100000000010100000000000000000000000000000000000000011000000001100000000000100001100011000001
00000000000000000000000110100000000000000000000000000000000000000000000000011000011100001010000000000000000110110110000010000000000000000000000000000000000000000000000000000111110000101100000011001000
01100000000000000000000000000000000000000000000000000000000000000000010111100000001000001010000000000000000001000000000100000000000000000000110000000000000000000000000000001001110000001100000100001001
01100110011000000000000000000000000000000000000000000000000000000000001000000000000100000110000000000000000000000000000000000000000000000000110000000000000000000000000000000000011100000000000101100000
01000010011000000000000000000000000001100000000000000000000000000000000000000000000010000000000000000000000000000000011011000000010000000000000000000000000000001101000000000000000010010001001100011110
00110010000000000000011000001000000001100000000000000000000000000000000000000000001100000010000011000000000000000000000111000000101000000000000000000000000000000110000000000100010101110001000110010100
00000100000000000000010100010100000000000000000000000000000000000000000000000000001100100110000111000000000000000000000010000001000100000000000000000000000000000100001100000010110000101100000111000100
00000000000000000000001000110000010000000000100000000000000000000000000110000000000000101110000011000000000000000000000000000000111000000000000000000000000101010000010100000000011001110000000000000010
00000000000000000000000000000000110000000011011110000000011000000000000110000000000001000000000000000000000000000000000000100000000011100000000000000000001011010000011100000001000100010001000000000110
00000000000000000000000000000010100010000001111101000000011100000100000000001000000001010000000000000000000000000110000001100001000011100000000000000000000110000000100100000010000100000010000000010010
00001101100000000000000000000010101010000000011001000111011000001011000000011100000000100000000000001000000110000010000001100011010110000000000000000000100100000000010000001100110000000100110000011100
00001100000000000000000000000001001000000000001110000011110000011000000000110010000000000000000000110000001000000100000000000000011100000000000000000000111000000000001110000000000000000110100000010000
00000001000000000000000000000001001100000000000100000000110111101000000000000111000000000000000000000000000000000000000000000001010000000000000000000000100000000010000010000111100000010011010000000110
00000000000000000011000000000000000100000000000000000000000001000000000000000001000000000000000000000000000000000010000000000011000000000000110001100000000000000101100100001100011010010100000000000000
00111100000000110111100000110000011100000000000000000000110000001100000000000000000111000000000000010110000000001110001101000000000000000001010001100000000000000100000000001100001001000100000000000000
00011100000010110000000000110000001000000011000000000010000000000000000000000000010110100000000000000010000000001110110101111000000000000001001000000000000000000011000100001011000010001010010000000000
00001000001100000101000001010000000000000011100011111111010010000000000000000000001000100000000000000110000000000000100100011000000000000000110000000000000001100000000000000001011100001010110000000000
00000000001000110000110000000011000000000100000110001000001110000000000000000110000110000000000000000000000000000000010011110000000000000000011111000000000010010000000000000000000000001000000101000000
11000000011000101110101110100111000000000000000010000000000000000000000011000010110010000000000000000000000000000000110011000000000000000000000101000000000010100011000000000101010000000110110110100000
11000000110001011110110010110100100000000101100010000000000000000000001011010001011100000000000000000000000000011000100110000000011000000000000100100000000001000101000000000000000000000001110000000000
00000000011000000000010000001010100000000001100010000010000100000001011001110001000000000000000000000000000000011000100100000000100100000000000011000000000000001110011110000001010000000000000000000000
00000000000000000000001100010001000000000001000101000101001000100000000000110001001011000000000000000000100000000000010000000000010110000000000001000000000000001110001111000010000010000000000000000000
00000000000000000000000000101000000000000000001100001101110000010000000000000000001001000000000000000000010000000000100000000000001100000000000000000000000000000000000101000000010111100000000000000000
00000000000000000000000000101000000000000000011100000010010000010000000000000011001101100000000000000000100000000000000000000000000000000000000000000000000001100000000110000001100111110000000000110000
00000000000000000000000000101000000000000111011010100000001000100000000000000001101000000000000000001100000000000000000000000100000000000000110000000000000011100000000111000001000000110000000011010000
00000000000000000000000000100000000000000000001111100000001001000000000000011000110000100000010000001100000000000000000000001111000000000110110110000000001011000000000001000000100000000000011001100000
00000000000000000000000000000000000000000000000111100000000000000000100000011000100111000000010100000000000000001100000000011011100000001100100110000000001010000000000000011000110001000000101111000000
00000000000000110100000101000000000000000000000000000000000000000000110000000000011000000000011000000000000000010110000000010001010000000101100110000000010010000001000000000010100001000000100000111000
00000000000000100010001101100000000000000000000000000000000000000010001000000000000000000000000000000000000000111000100000000001001000001101100011000000000010011011100000000110000101110000011111001000
00000000000000100000001001000000000000000000000000000000000000000111110001000000000000000000001000000000000000011011100000000001001000001111100001100000011000100001010000000011000000000000011101001000
00000000000000000000001110000000000000000000000000000000000000000110100010100000000000000000001100000010100000000010000000000011001000000001100000110000000001100001011000000000000000000000000000010000
00000000000000100100000110000000000000000000000000000000000000000011000100000000000000000000010110000010000000000011000000000101100000000000001110000000000001000001000000001000000000000000000011010000
00000000000000010110000000000000000010000000000011100000000000000000000110100000000000000000001000110001100000000001100000000011000000010001001110010000111000000000010000010100000000000000000010010000
00000011000000000000000000000000000111000000000100100000000000000000001011100000000000000000000010110000110000000011000000110110000000000001000001110010111101100011100000110100000000000000000000100000
00000011000000000000000000000000000000000000000100011001100000000000001110010000100000000000000011010000010000000000000000000100000000000000000100000111100010001100000000110000000000000000000010000000
00000000000110000000000000000000000010000000001000100001100000000000001000010001011000111000000010100000010101000000000000000000000001000000010100001011001000110000000000100000000000000000000001000000
00000000000111000000000011100000010000000000000101100000010000000000001000000011011110000100110011100000000110101000000000011100000010100000000010000101001110000001100000000000000000000000001000000000
00000000011010001110000010010000010011000000000000101001000000000000010110000011000010000100011000000000000110101000000000000000000110110000000000000000000000000001100001110000000000000000010111100000
00010000011100001100000001101000000001000000000011000001000000000000000000000000011000101000000000000000000110110000000000000000000010010000011100000000000000000000000000100000000000000000001000100000
00111000011100001100000000101100000111000000000000000000000000000000001000000000000011000000000000000000000011000000000000000001110011011000100100000000000000000000000000000000000000110000000111000000
00101100001100000000000110010100000000000000000000000000000000000000001100000000000000000000011101000000000000011000000000000001110001010000100000000000000000000000000000001000000000001000000110000000
00000000001101100011110010111000000000000000000000000000000000000000001000000000000111000000100100010000000000100100001100000010110000100000010000000000111000000000000000110110000000000000000000000000
00000000001110001101110010000000000000000000000001100000000000000000011000000000000011000000100000001000000000011000001100000111000000000000000000000010011100000000000000110110000000000000000000000000
00000000000100010101010111000000000000000000000001100000000000000110110111000000000000000000100000000100000000000000000000000000000000000000000001100010001011000101000000000000000100100000000000000000
00001000000000000001000000000000000001000000000000000000011000000100000110000000000001101000000011000100000001000000000000100000000000000000000001011100100110010101000000011011000100000000000000000100
00111000000000000000000010000000000001100000000000000000000010001111000010000000000000110001000110010000000011100000001111110000000000000100000001011000001010100000000000011011000110000000000000001110
00110000000000000001000010000000000000000011100000000000100011001000000010100000000000000010000111111100000100010000001110001000000000100100000000100000010011010001000000000100000000000000001100010010
00000000000000000000011100011100000000000000000000000011100011101100001011000000000000000000001001010100000001011100010000101100000101111000000000000000010001010000110000000000000000000000010010001100
00000000000000000000000000110110000000000000000000000011001001000100001100000000000000000000011000011100001011011100000000100000000101001000000000000011110000010000000000000000000000000000011011000000
00000000000000000000000000110110001000000000000000000110000110000100000000000000000000000000011000011000001010000001000001000000000100000000000010000011010001000001110000000010000000001100001011000000
00000000000000000000000000010010001000000000000000011100000000000001001000000000000000001001000000000000000000001001000000000000000000000000000001100001011000000001010000000101000000001100000101000100
00000000000000000000001110010011001100000000000000011100000000000010000000000000000000000000000000000000000110000000000001001000000000000000000011000000101000000110100000000101000000000000000001000011
00000000000000000000001110001101111000000000000000011000000011000010000100000000000000110000000000000000000000011001000011011000000000000000000000000000010000000001010000000010000000100010001110000100
00000000000000000000010000000000111000000000000000000000100010011100000000001010000000110000000000000000000001101110000010010000000000000000000000000000000000000000010000110000000001010101100001000000
00000000000000000000000000000000000000000000000000000000000010000100100000001010000000011000000000010000000000111010000000000000000000000000000000000000000000000000011000110000000011000100001110000000
00000000000000000000010000000000000000010000000000000000000001000100010010000010110000001000000000000000000000000110100000100100000000001000011000111000000000000000010000110000000000100000000100000000
00000000000000000000001101000000000000101000000000000000001000011000000001000100100000001000000000000000000000000011100000001010000000001001000001001000001110000000111001100000000000000000010000000000
00000000000000000000001100000000000110100100000000000000010010000000101111101010100001100100000000000001100000000000000001001010000000001010000000000000001110000000110111000000000000000011000001110000
00000000000000000000000000000000000010101100000000000000000010000000110101100000000001011100000000000011010000000001100000000100000000000110000010010000000000000000010010000000000000000010000000000000
00000000000000000010000000000000000010000000000000000000010001000000111000101100000000001000000000000100000000000001000010000000000000000110000011010000000000000000000000010000000000000000001100001000
00000000000000001110000000000000000010001000000000001110000000100000000000000000000010100000000000001000010000101100001100110000010000000111000011111000000000000000000000101000000000000000000000000000
00000000000000000010000000000000000001000000000000001110000001110000000000000000000001100000000000000010000001101110000000110001110000000110000111011000000000000000000000100100000000000000001000101100
00000000000000001100000000000000000000111000000000110110100100111000000000000000111011000000000000000110010001100001000001001001010000000110100000000000000000000100001000011000000000000110111010000000
00000000000001000000000000000000000000010100000000100000000110001000000000110000000100000000000000000101100000010011000010110011100000000011000001110000000100001000000000000000000010000011100110000000
00000000000000110000000000000000000000000000000000100100001100000000000000001000000110000000000000001111010100000000000010110011100000000000000000100000011011001000000000000000000010000001000110000000
00000000000010000000000000000100000000000000000000011000000000000000000001001000000100000000000000011000000000000000000001000000000000000000000000111000100011010000100000000000000100000000001010000000
00000000111110001000100000001000100000000000000000000000000000000000000010010000001000000000000000000000000000000000000000000000000000001000000000001110000011001011000000000000000000000000001000001100
00000001111000000000111000001000001001111000000000000000000000000000000001100000101000000000000000010011000000000000000000000000000000111100000000001101000100000100000000000000000110000000001111110110
00000010001000000010011100000000001110111000000000000000100000000000000000000000000000000000000000001111111000000111000000001000000000100110000000001101010110000000000000000000000001111000000100100111
00000010100000000110001100000010001010000000000000000011011000000000000000000000000110000000000011000001110100000111000000001100000001001101000000000100000100000000000000000000001001011000000010000000
00000000110010100000000000000001001011000001101100000000011000000000000000000000001001000000000010000110100100000001110000010110000000111001100011000010111000000000000000000000000001110000000000001000
01010000000001000000000000000000111011000110001100000000011100000010000000000000000001000000000000000101111100000000111100001100000000010001000011000000000000000000000000000000000010000000000001000101
01000100000000000000000000000001000000000111100010000000011100001100000000000000000011101000000000000011001000000001101100011100000000000101101000000000000000000000000000000000001100000000000000000000
01000000000000000000000000000000000100000000111010000000111000001101000000011100000000111000000000000001110000000000110000011110000000000010001000000000000000010000000000000000000011110000000001000000
00100000000000000000000000000100000100000000011100000000110000000110000001111110000000011000110010001000100000000000000000011101000000000000001000000000000000101000000000000001110001100000000010000000
00000000000000000000000000000110000000000000000000000000100000011110000000001101000001111100000010101100000000000000000000011001000000000000000000000000000001000000000000000010010001000001100011110000
00000000000000000100000000000110000000000000000000000000000000100010000100000011000001101100000001100110000000000000000000011011000011011000000000001000000000101100000000000100110000000100001111010000
00000100011000000000000000001100000000000000000000000100000000011010000101110001111001100100000000000000000000000000000000001001000011010100000000011100000000000000000000000011000000001000000000000000
00000010100111100001000000011000000000000000000000011111000000001000000010000110110110011000000000000000000000000000000000010001100010000100000000010110000000000000110000000000000000011000000111000000
00110000000001100110000011001000111000010100000000011000100000000000000101000010001110000000000000000000000000000000000000101111100001010010000000101100000000000000010000000000000000000001000110000000
01001000100001100110000111100100110000000010011000100000010000000000001000000100100000000000000000000000000000000000000001000100000001011100000000010000000000000110000000000000000001100000001101000000
10010000111110000000001101000010000000010100011000011001000001000000000001001101000000000000000000100000011000000000000001000000000000001000000000011000000000011110110000000000000011000000011111100000
10110000110010000000000100110010000000001000100000011001100011100000001010000101000000000000000010100000011000000000000000101000001100000000000000001101100000011001001000000000011011010110100011100000
10000000000000000000000011010001000001000000000000000000000001011000000000000100100000000000110100110000000000010100000000111000011000000000000000010000110000000000010100000100000100111011100111010000
11000000010110100000000100001010100011100000000000011011000100000000000000000011010000000001000000001110000000100000000000000000000000000000000001100000011000000000001000001111000000000011111111000011
00000000100011010000000110100010000011110000000000011001101101100100000000000000001000000001000010100001000000010000000000000000100100000110000000001111010000000000000000010001100000000110000001000000
00000001100110001000000101001100110000001100000000011000100011111000000000110010001000000000111100010010000000100001000000000000000100001000000001011000111100000000000000001011010000000111010000100001
00000001000001110000000000010000110000001010000000000000000001000000000000100100001000000000000001100010000000100000100000000000000100010000000001100000101101000000000100001100010000000110101000010000
00000001100010000000000000010000000000000110000000000001000000000000000000010110001000000000000000001100000111000001000000000000100010000000001000000000110000000000000100010011100000000000011000010100
00000000000000000000000000000000001111001000000000011100000010000000000000000001001000000000000010001000000110100000000000000000011010000000011000000001100100000000001010101100000010000000000100000000
00000000011000000000000000000000000111101111000000000001000100001110000000000000000000000000000001010000000000100000000000000000000001100100001100000000000100010000001101010010000101000000100000000000
00100000000000000000000000000001000010001010100000000000001100000000000011000000000000111000000001000000000000010100000000000000000001110110000000001100000001100000001100000110000101000000100100000000
01000000000000000000000000000010100001101000110010000000000000000000000101000000000001011111000000110000000000000000000111100000000000101010000000011110000000000000000000000110100010000000011000000000
01000110000000000000000000000001000010011011110001000000000000000100001100000000000001010111110001110000000000000001101101100001100000000000000000111011011000000000000000000111110000000000000000000000
00100110000000000000000000000001000111001001010001000011000000001001001110000000000000110000010000000000000000000000001100000001100000000000000000000000000000000000000000000100011000000000000000000000
00000000000000000000000000000010000000000000010110000100010000000111011000000000000000011000100000000110000000001000110000000000000000000000000000000000000000000000000000000010000001100000000000000000
00000000000000000000000000000011000000000000011000000011110000000011110000000000000000001000000000000110000000001111000000000000000000000000000000000000000000000000000000000000000001100000000000000000
