P1
50 50
00000000000000000000000000000000000000000000000000
00000000000000000000000000000000000000000000000000
00000000000000000000000000100000000000000000000000
00000000000000000000000001010000000000000000000000
00000000000000000000000001001000000000000000000000
00000000000000000000000000110000000000000000000000
00000000000000000000000000000000000000000000000000
00000000000000000000000000000000000000000000000010
00000000000000000000000000000000000000000000000101
00000000000000000000000000000000000000000000000101
00000000000000000000000000000000000000000000000010
00000000000000000000000000000000000000000000000000
00000010000000000000000000000000000000000000000000
00000010000000000000000000000000000000000000000000
00000010000000000000000000000000000000000000000000
00000000000000000000000000000000000000000000000000
00000000000000000000000000000000000000000000000000
00000000000000000000000000000000000000000000000000
00000000000000000000000000000000000000000000000010
00000000000000000000000000000000000000000000000010
00000000000000000000000000000001100000000000000010
00000000000000000000000000000001100000100000000000
00000000000000000000000000000000000000100000000000
00000000000000000000000000000000000001010000000000
00000000000000000000000011100000000000100000000000
00000001000000000000000100111000000000000000000000
00000010100000000011000100001000000000111000000000
00000100100000000100100001110010000000101000000000
00000011000000000011000101011100000000000000000000
00000000000000000000000110010000100010010000000000
00000000000000000000000000001011000010100000000000
00000000000000000000000000011011000000000000000000
00000000000000000000000000010000000001110000000000
00000000000000000000000000010000000001100000000000
00000000000000000000000000000000000000000000000000
00000000000000000000000000000000000000000000000000
00000000000000000000000000000000000000000000000000
00000000000000000000000000000000000000000000000000
00000000000000000000000000000000000000000000000000
00000000000000000000000000000000000000000000000000
00000000001100000000000000000000000000000000000000
00000000010010011100000000000000000000000000000000
00000000010010000100000000000000000000000000000000
00000000001001110000000000000000000000000000000000
00000000001101110010000000000000000000000000000000
00000000000000001000000000000000000000000000000000
00000000000001101001000000000000000000000000000000
00000000000111000010000000000000000000000000000000
00000000000010000000000000000000000000000110000000
00000000001010000000000000000000000000000110000000
