P1
50 50
00000000000000000000000000000000000000000000000000
00000000000000000000000000000000000000000000000000
00000000000000000000000000100000000000000000000000
00000000000000000000000001010000000000000000000000
00000000000000000000000001001000000000000000000000
00000000000000000000000000110000000000000000000000
00000000000000000000000000000000000000000000000000
00000000000000000000000000000000000000000000000010
00000000000000000000000000000000000000000000000101
00000000000000000000000000000000000000000000000101
00000000000000000000000000000000000000000000000010
00000000000000000000000000000000000000000000000000
00000010000000000000000000000000000000000000000000
00000010000000000000000000000000000000000000000000
00000010000000000000000000000000000000000000000000
00000000000000000000000000000000000000000000000000
00000000000000000000000000000000000000000000000000
00000000000000000000000000000000000000000000000000
00000000000000000000000000000000000000000000000010
00000000000000000000000000000000000000000000000010
00000000000000000000000000000001100000000000000010
00000000000000000000000000000001100000000000000000
00000000000000000000000000000000000000100000000000
00000000000000000000000000000000000001110000000000
00000000000000000000000000000000000001110000000000
00000001000000000000000011100000000000000000000000
00000010100000000011000110101100000000010000000000
00000100100000000100100000010100000000111000000000
00000011000000000011000110000111000000111000000000
00000000000000000000000110000001000000000000000000
00000000000000000000000000001111000001100000000000
00000000000000000000000000001000000110010000000000
00000000000000000000000000111000011110000000000000
00000000000000000000000000100000011000110000000000
00000000000000000000000000000000000000000000000000
00000000000000000000000000000000000000000000000000
00000000000000000000000000000000000000000000000000
00000000000000000000000000000000000000000000000000
00000000000000000000000000000000000000000000000000
00000000000000000011000000000000000000000000000000
00000000000100000111100000000000000000000000000000
00000000001100001011100000000000000000000000000000
00000000001000001000110000000000000000000000000000
00000000001110010000110000000000000000000000000000
00000000000000010001110000000000000000000000000000
00000000000001111011000000000000000000000000000000
00000000010000100010000000000000000000000000000000
00000000010000000000000000000000000000000000000000
00000000000110000000000000000000000000000110000000
00000000001100000000000000000000000000000110000000
