P1
50 50
00000000000000000000000000000000000000000000000000
00000000000000000000000000000000000000000000000000
00000000000000000000000000100000000000000000000000
00000000000000000000000001010000000000000000000000
00000000000000000000000001001000000000000000000000
00000000000000000000000000110000000000000000000000
00000000000000000000000000000000000000000000000000
00000000000000000000000000000000000000000000000010
00000000000000000000000000000000000000000000000101
00000000000000000000000000000000000000000000000101
00000000000000000000000000000000000000000000000010
00000000000000000000000000000000000000000000000000
00000000000000000000000000000000000000000000000000
00000111000000000000000000000000000000000000000000
00000000000000000000000000000000000000000000000000
00000000000000000000000000000000000000000000000000
00000000000000000000000000000000000000000000000000
00000000000000000000000000000000000000000000000000
00000000000000000000000000000000000000000000000000
00000000000000000000000000000000000000000000000111
00000000000000000000000000000001100000000000000000
00000000000000000000000000000001100001110000000000
00000000000000000000000011110000000010001000000000
00000000000000000000000100001000000000000100000000
00000000000000000000001001011000000110101000000000
00000001000000000000000100000110000000010000000000
00000010100000000011000000001000000000000000000000
00000100100000000100100000000110000000000000000000
00000011000000000011000000000111000001100000000000
00000000000000000000000111000100000000010000000000
00000000000000000000000100110000000001100000000000
00000000000000000000000000001000000000000000000000
00000000000000000000000001000100000000000000000000
00000000000000000000000000111100000000000000000000
00000000000000000000000000000000000000000000000000
00000000000000000000000000000000000000000000000000
00000000000000000000000000000000000000000000000000
00000000000000000000000000000000000000000000000000
00000000000000000000000000000000000000000000000000
00000000001000000000000000000000000000000000000000
00000000010100001100000000000000000000000000000000
00000000100000010010000000000000000000000000000000
00000000010100110001000000000000000000000000000000
00000000000110010000000000000000000000000000000000
00000000001101000110000000000000000000000000000000
00000000000000000000000000000000000000000000000000
00000000000110000000000000000000000000000000000000
00000000000011001000000000000000000000000000000000
00000000000000011000000000000000000000000110000000
00000000000000000000000000000000000000000110000000
