P1
50 50
00000000000000000000000000000000000001010000000000
00000000000000000000000000000000000010001000000000
00000000000000000000000000100000000001000000000000
00000000000000000000000001010000000001001000000000
00000000000000000000000001001000000000001000000000
00000000000000000000000000110000011000010000000000
00000000000000000000000000000000100000000000000000
00000000000000000000000000000000010100000000000010
00000000000000000000000000000000000100000000000101
00000000000000000000000000000000000000000000000101
00000000000000000000000000000000000000000000000010
00000000000000000000000000000000000000000000000000
00000010000000000000000000000000000000000000000000
00000010000000000000000000000000000000000000000000
00000010000000000000000000000000000000000000000000
00000000000000000000000000000000000000000000000000
00000000000000000000000000000000000000000000000000
00000000000000000000000000000000000000000000000000
00000000000000000000000000000000000000000000000010
00000000000000000000000000000000000000000000000010
00000000000000000000000000000001100000000000000010
00000000000000000000000000000001100000000000000000
00000000000000000000000000000000000000000000000000
00000000000000000000000000000000000000000000000000
00000000000000000000000000000000000000000000000000
00000001000000000000000000000000000000000000000000
00000010100000000011000011000000000001110000000000
00000100100000000011100101100000000001001000000000
00000011000000000000011110010000000010000000000000
00000000000000000010000000011000000000011000000000
00000000000000000010000100110000000100010000000000
00000000000000000001000110100000000000000000000000
00000000000000000000000010000000000011010000000000
00000000000000000000110100000000000011001000000000
00000000000000000000001000000000001100000000000000
00000000000000000000000000000000110000100000100000
00000000000000000000000000000000110000110000010000
00000000000000000000000000000001110001010000100000
00000000000000000000000000000001111110000000000000
00000000000000000000000000000000111000000000000000
00000000000000000000000000000000010000000000000000
00000000000000000011000000000000000000000000000000
00000000000111100111000000000000000000000000000000
00000000001001101011000000000000000000000000000000
00000000010001001100000000000000000000000000000000
00000000001010011000000000000000000000000000000000
00000000001100100000000010000000000000000000000000
00000000001010000011001001000000000000000000000000
00000000000100000000001101000000000000000110000000
00000000000000000000000100000000000000000110000000
