P1
50 50
00000000000000000000000000000000000000000000000000
00000000000000000000000000000000000011100000000000
00000000000000000000000000100000000011000000000000
00000000000000000000000001010000000000000000000000
00000000000000000000000001001000000000011000000000
00000000000000000000000000110000010000000000000000
00000000000000000000000000000000100000000000000000
00000000000000000000000000000000001000000000000010
00000000000000000000000000000000001000000000000101
00000000000000000000000000000000000000000000000101
00000000000000000000000000000000000000000000000010
00000000000000000000000000000000000000000000000000
00000000000000000000000000000000000000000000000000
00000111000000000000000000000000000000000000000000
00000000000000000000000000000000000000000000000000
00000000000000000000000000000000000000000000000000
00000000000000000000000000000000000000000000000000
00000000000000000000000000000000000000000000000000
00000000000000000000000000000000000000000000000000
00000000000000000000000000000000000000000000000111
00000000000000000000000000000001100000000000000000
00000000000000000000000000000001100000000000000000
00000000000000000000000000000000000000000000000000
00000000000000000000000000000000000000000000000000
00000000000000000000000000000000000000000000000000
00000001000000000000000000000000000000100000000000
00000010100000000010100011100000000001110000000000
00000100100000000010110000100000000011010000000000
00000011000000000010111111011000000000011000000000
00000000000000000000000010001000000000011000000000
00000000000000000011000111101000000000011000000000
00000000000000000000000110110000000010100000000000
00000000000000000000101011000000000011100000000000
00000000000000000000011100000000000001100000000000
00000000000000000000011000000000011111000000000000
00000000000000000000000000000000100000110000000000
00000000000000000000000000000000001001010000110000
00000000000000000000000000000000000111010000000000
00000000000000000000000000000000000110000000000000
00000000000000000000000000000001000000000000000000
00000000000000000000000000000000111000000000000000
00000000000011000101000000000000000000000000000000
00000000000110110000100000000000000000000000000000
00000000001100001001000000000000000000000000000000
00000000011111000010000000000000000000000000000000
00000000011011111100000000000000000000000000000000
00000000011011010000000000000000000000000000000000
00000000001010000000001001000000000000000000000000
00000000000100000000001100000000000000000110000000
00000000000000000000001110000000000000000110000000
