P1
50 50
00000000000000000000000000000000001110000000000000
00000000000000000000000000000000010111000000000000
00000000000000000000000000000000011000100000000000
00000000000000000000000001110000001110100000000000
00000000000000000000000001010000000111000000000000
00000000000000000000000000110000000010000000000000
00000000000000000000000000000000000000000000000000
00000000000000000000000000000000000000000000000010
00000000000000000000000000000000000000000000000101
00000000000000000000000000000000000000000000000101
00000000000000000000000000000000000000000000000010
00000000000000000000000000000000000000000000000000
00000010000000000000000000000000000000000000000000
00000010000000000000000000000000000000000000000000
00000010000000000000000000000000000000000000000000
00000000000000000000000000000000000000000000000000
00000000000000000000000000000000000000000000000000
00000000000000000000000000000000000000000000000000
00000000000000000000000000000000000000000000000010
00000000000000000000000000000000000000000000000010
00000000000000000000000000000001100000000000000010
00000000000000000000000000000001100000000000000000
00000000000000000000000000000000000000000000000000
00000000000000000000000000000000000000000000000000
00000000000000000000000000000000000000000000000000
00000001000000000000000000000000000000000000000000
00000010100000000111000000000000000000000000000000
00000100100000000111001000000000000000000000000000
00000011000000000001001110000000000000000000000000
00000000000000000000010100000000000000000000000000
00000000000000000000011000000000000000000000000000
00000000000000000000000000000000000000000000000000
00000000000000000000000000000000000001110000000000
00000000000000000000000000000000000000001000000000
00000000000000000000000000000000000001000100000000
00000000000000000000000000000000000011000110000000
00000000000000000000000000000000000110001011000000
00000000000000000000000000000000101000000110000000
00000000000000000000000000000000100101000100000000
00000000000000000000000000000001000011000000000000
00000000000000000000000000000000000000000000000000
00000000000000000000000000000011100000000000000000
00000000000000000000000000000100100000000000000000
00000000000000000000000000000011000000000000000000
00000000000011000000000000000000000000000000000000
00000000000100100010000000000000000000000000000000
00000000000011000111000000000000000000000000000000
00000000000000001101100000000000000000000000000000
00000000000000001010100011000000000000000110000000
00000000000000000111000011000000000000000110000000
