P1
50 50
00000000000000000000000000000000000011000000000000
00000000000000000000000000000000000011010000000000
00000000000000000000000000100000000000011100000000
00000000000000000000000001010000011000001000000000
00000000000000000000000001001000000001110000000000
00000000000000000000000000110000100011100000000000
00000000000000000000000000000000010011000000000000
00000000000000000000000000000000001100000000000010
00000000000000000000000000000000000000000000000101
00000000000000000000000000000000000000000000000101
00000000000000000000000000000000000000000000000010
00000000000000000000000000000000000000000000000000
00000000000000000000000000000000000000000000000000
00000111000000000000000000000000000000000000000000
00000000000000000000000000000000000000000000000000
00000000000000000000000000000000000000000000000000
00000000000000000000000000000000000000000000000000
00000000000000000000000000000000000000000000000000
00000000000000000000000000000000000000000000000000
00000000000000000000000000000000000000000000000111
00000000000000000000000000000001100000000000000000
00000000000000000000000000000001100000000000000000
00000000000000000000000000000000000000000000000000
00000000000000000000000000000000000000000000000000
00000000000000000000000000000000000000000000000000
00000001000000000010000000000000000000000000000000
00000010100000000010000000000000000000000000000000
00000100100000000010000110000000000000100000000000
00000011000000000000000101100000000001110000000000
00000000000000000001100000100000000011001000000000
00000000000000000001100010100000000010001000000000
00000000000000000001001011000000000010100000000000
00000000000000000000100100000000000000000000000000
00000000000000000000000100000000000001000100000000
00000000000000000000011000000000000000111000000000
00000000000000000000000000000000011100000001100000
00000000000000000000000000000000010100011010010000
00000000000000000000000000000000000100011001100000
00000000000000000000000000000000111000000000000000
00000000000000000000000000000000010000000000000000
00000000000000000000000000000000000000000000000000
00000000000000000000000000011000000000000000000000
00000000000010000111000000000000000000000000000000
00000000000101000101000000010010000000000000000000
00000000001001100001000000000001000000000000000000
00000000000101110001001000000000000000000000000000
00000000000000000000011110000000000000000000000000
00000000000110000001100001000000000000000000000000
00000000000110000001000110000000000000000110000000
00000000000000000000001110000000000000000110000000
