P1
50 50
00000000000000000000000000000000000000000000000000
00000000000000000000000000000000000000000000000000
00000000000000000000000000100000000000000000000000
00000000000000000000000001010000000000000000000000
00000000000000000000000001001000000000000000000000
00000000000000000000000000110000000000000000000000
00000000000000000000000000000000000000000000000000
00000000000000000000000000000000000000000000000010
00000000000000000000000000000000000000000000000101
00000000000000000000000000000000000000000000000101
00000000000000000000000000000000000000000000000010
00000000000000000000000000000000000000000000000000
00000000000000000000000000000000000000000000000000
00000111000000000000000000000000000000000000000000
00000000000000000000000000000000000000000000000000
00000000000000000000000000000000000000000000000000
00000000000000000000000000000000000000000000000000
00000000000000000000000000000000000000000000000000
00000000000000000000000000000000000000000000000000
00000000000000000000000000000000000000000000000111
00000000000000000000000000000001100001110000000000
00000000000000000000000010010001100000001000000000
00000000000000000000000010010000000000000100000000
00000000000000000000001000001000000011000100000000
00000000000000000000001110010100000010000100000000
00000001000000000000000100010100000000011000000000
00000010100000000011000000011100000000000000000000
00000100100000000100100000011100000000000000000000
00000011000000000011000110001010000000000000000000
00000000000000000000000100000100000000110000000000
00000000000000000000000100000000000000000000000000
00000000000000000000000000000100000000000000000000
00000000000000000000000001000100000000000000000000
00000000000000000000000000100100000000000000000000
00000000000000000000000000100100000000000000000000
00000000000000000000000000000000000000000000000000
00000000000000000000000000000000000000000000000000
00000000000000000000000000000000000000000000000000
00000000000000000000000000000000000000000000000000
00000000011000000000000000000000000000000000000000
00000000101000011110000000000000000000000000000000
00000000100001100010000000000000000000000000000000
00000000011110000010000000000000000000000000000000
00000000000001001100000000000000000000000000000000
00000000001100000000000000000000000000000000000000
00000000001000000000000000000000000000000000000000
00000000001001100000000000000000000000000000000000
00000000000101011000000000000000000000000000000000
00000000000010111000000000000000000000000110000000
00000000000000000000000000000000000000000110000000
