P1
50 50
00000000000000000000000000000000000001000000000000
00000000000000000000000000000000000010100000000000
00000000000000000000000000100000000010100000000000
00000000000000000000000001010000000000000000000000
00000000000000000000000001001000000000000000000000
00000000000000000000000000110000000000000000000000
00000000000000000000000000000000010000000000000000
00000000000000000000000000000000010000000000000010
00000000000000000000000000000000000000000000000101
00000000000000000000000000000000000000000000000101
00000000000000000000000000000000000000000000000010
00000000000000000000000000000000000000000000000000
00000010000000000000000000000000000000000000000000
00000010000000000000000000000000000000000000000000
00000010000000000000000000000000000000000000000000
00000000000000000000000000000000000000000000000000
00000000000000000000000000000000000000000000000000
00000000000000000000000000000000000000000000000000
00000000000000000000000000000000000000000000000010
00000000000000000000000000000000000000000000000010
00000000000000000000000000000001100000000000000010
00000000000000000000000000000001100000000000000000
00000000000000000000000000000000000000000000000000
00000000000000000000000000000000000000000000000000
00000000000000000000000000000000000000000000000000
00000001000000000000000001000000000001110000000000
00000010100000000000110001100000000010010000000000
00000100100000000110000000000000000011000000000000
00000011000000000000101111111000000000000000000000
00000000000000000010110000001100000000100100000000
00000000000000000000000000101000000000101000000000
00000000000000000001001000010000000010100000000000
00000000000000000000000001100000000010010000000000
00000000000000000000100010000000001000000000000000
00000000000000000000010100000000011110010000000000
00000000000000000000000000000000000000010000000000
00000000000000000000000000000000000101011000000000
00000000000000000000000000000000001001000000000000
00000000000000000000000000000000000101000000000000
00000000000000000000000000000000111100000000000000
00000000000000000000000000000000110000000000000000
00000000000111100000000000000000010000000000000000
00000000001000111011100000000000000000000000000000
00000000010000110001000000000000000000000000000000
00000000000000000010000000000000000000000000000000
00000000100000011100000000000000000000000000000000
00000000000000010000000000000000000000000000000000
00000000011011000000001100000000000000000000000000
00000000000100000000010000000000000000000110000000
00000000000000000000001010000000000000000110000000
