P1
50 50
00000000000000000000000000000000001100000000000000
00000000000000000000000000000000001000000000000000
00000000000000000000000000110000001101100000000000
00000000000000000000000000111000000101000000000000
00000000000000000000000000111000000010000000000000
00000000000000000000000000000000000000000000000000
00000000000000000000000000000000000000000000000000
00000000000000000000000000000000000000000000000010
00000000000000000000000000000000000000000000000101
00000000000000000000000000000000000000000000000101
00000000000000000000000000000000000000000000000010
00000000000000000000000000000000000000000000000000
00000000000000000000000000000000000000000000000000
00000111000000000000000000000000000000000000000000
00000000000000000000000000000000000000000000000000
00000000000000000000000000000000000000000000000000
00000000000000000000000000000000000000000000000000
00000000000000000000000000000000000000000000000000
00000000000000000000000000000000000000000000000000
00000000000000000000000000000000101100000000000111
00000000000000000000000000000000111100000000000000
00000000000000000000000000000000111000000000000000
00000000000000000000000000000000100000000000000000
00000000000000000000000000000000000000000000000000
00000000000000000000000000000000000000000000000000
00000001000000000001100000000000000000000000000000
00000010100000000011110000000000000000000000000000
00000100100000000001001000000000000000000000000000
00000011000000000000000100000000000000000000000000
00000000000000000000101000000000000000000000000000
00000000000000000000010000000000000000000000000000
00000000000000000000000000000000000000000000000000
00000000000000000000000000000000000000000000000000
00000000000000000000000000000000000000100000000000
00000000000000000000000000000000000011011000000000
00000000000000000000000000000000000011110100000000
00000000000000000000000000000000000110100100000000
00000000000000000000000000000000000010000100000000
00000000000000000000000000000001110001001000000000
00000000000000000000000000000000000000110000000000
00000000000000000000000000000000000000000000000000
00000000000000000000000000000110110000000000000000
00000000000000000000000000000011000000000000000000
00000000000000000000000000000000000000000000000000
00000000000011000000000000000000000000000000000000
00000000000100100000000000000000000000000000000000
00000000000011000010000000000000000000000000000000
00000000000000000111000000000000000100000000000000
00000000000000001000100011000000000100000110000000
00000000000000000111000011000000000000000110000000
