P1
50 50
00000000000000000000000000000000000000000000000000
00000000000000000000000000000000000000000000000000
00000000000000000000000000100000000000000000000000
00000000000000000000000001010000000000000000000000
00000000000000000000000001001000000000000000000000
00000000000000000000000000110000000000000000000000
00000000000000000000000000000000000000000000000000
00000000000000000000000000000000000000000000000010
00000000000000000000000000000000000000000000000101
00000000000000000000000000000000000000000000000101
00000000000000000000000000000000000000000000000010
00000000000000000000000000000000000000000000000000
00000010000000000000000000000000000000000000000000
00000010000000000000000000000000000000000000000000
00000010000000000000000000000000000000000000000000
00000000000000000000000000000000000000000000000000
00000000000000000000000000000000000000000000000000
00000000000000000000000000000000000000000000000000
00000000000000000000000000000000000000000000000010
00000000000000000000000000000000000000000000000010
00000000000000000000000000000001100000100000000010
00000000000000000000000001100001100001110000000000
00000000000000000000000011110000000001111000000000
00000000000000000000000100001000000111011100000000
00000000000000000000001110011000000000011000000000
00000001000000000000000000010100000000010000000000
00000010100000000011000000001000000000000000000000
00000100100000000100100000001001000000000000000000
00000011000000000011000010001001000000100000000000
00000000000000000000000111101100000000010000000000
00000000000000000000000101111000000000100000000000
00000000000000000000000000111000000000000000000000
00000000000000000000000000100100000000000000000000
00000000000000000000000000111100000000000000000000
00000000000000000000000000011000000000000000000000
00000000000000000000000000000000000000000000000000
00000000000000000000000000000000000000000000000000
00000000000000000000000000000000000000000000000000
00000000000000000000000000000000000000000000000000
00000000001000000000000000000000000000000000000000
00000000011000001100000000000000000000000000000000
00000000110000110110000000000000000000000000000000
00000000001110111000000000000000000000000000000000
00000000000001011010000000000000000000000000000000
00000000001100000000000000000000000000000000000000
00000000001000000000000000000000000000000000000000
00000000000111000000000000000000000000000000000000
00000000000111011000000000000000000000000000000000
00000000000000011000000000000000000000000110000000
00000000000000000000000000000000000000000110000000
