P1
50 50
00000000000000000000000000000000001100000000000000
00000000000000000000000000000000010011000000000000
00000000000000000000000000000000010000100000000000
00000000000000000000000001100000001000100000000000
00000000000000000000000000110000000111000000000000
00000000000000000000000000010000000000000000000000
00000000000000000000000000000000000000000000000000
00000000000000000000000000000000000000000000000010
00000000000000000000000000000000000000000000000101
00000000000000000000000000000000000000000000000101
00000000000000000000000000000000000000000000000010
00000000000000000000000000000000000000000000000000
00000000000000000000000000000000000000000000000000
00000111000000000000000000000000000000000000000000
00000000000000000000000000000000000000000000000000
00000000000000000000000000000000000000000000000000
00000000000000000000000000000000000000000000000000
00000000000000000000000000000000000000000000000000
00000000000000000000000000000000000000000000000000
00000000000000000000000000000000000000000000000111
00000000000000000000000000000001100000000000000000
00000000000000000000000000000001100000000000000000
00000000000000000000000000000000000000000000000000
00000000000000000000000000000000000000000000000000
00000000000000000000000000000000000000000000000000
00000001000000000000000000000000000000000000000000
00000010100000000110010000000000000000000000000000
00000100100000000011000100000000000000000000000000
00000011000000000000000100000000000000000000000000
00000000000000000000100100000000000000000000000000
00000000000000000000011000000000000000000000000000
00000000000000000000000000000000000000000000000000
00000000000000000000000000000000000000100000000000
00000000000000000000000000000000000001110000000000
00000000000000000000000000000000000001111000000000
00000000000000000000000000000000000000010110000000
00000000000000000000000000000000000110010010000000
00000000000000000000000000000000000110000010000000
00000000000000000000000000000001110011000100000000
00000000000000000000000000000000000001001000000000
00000000000000000000000000000001000000000000000000
00000000000000000000000000000100100000000000000000
00000000000000000000000000000100100000000000000000
00000000000000000000000000000011000000000000000000
00000000000011000000000000000000000000000000000000
00000000000100100010000000000000000000000000000000
00000000000011000101000000000000000000000000000000
00000000000000001000100000000000000000000000000000
00000000000000001000100011000000000000000110000000
00000000000000000111000011000000000000000110000000
