P1
50 50
00000000000010000000000000000000001100000000000000
00000000000010000000000001100000001010000000000000
00000000000000000000000001110000000111000000000000
00000000000000000000000000000000000000000000000000
00000000000000000000000000001100000000000001100000
00000000000000000000000000000000000000000000000000
00000000000000000000000000000000000000000000000000
00000000000000000000010000000000000000000000000000
00000000000000000000010000000000000000000000000011
00000000000000000000000000000000000000000000000010
00000000000000000000000000001000000000000000000010
00000000000000000000000000000000000000000000000000
00000010000000000000000000001000000000000000000010
00000010000000000000000000000000000000000000000000
00000010000000000000000000000000000000000000000000
00000000000011000000000000000000000000000000000000
00000000000000000000000000000000000000000000000000
00000000000000000000000000000000000000000000000000
11000000000000000000000000000000101000000000000010
00000000000000000000000000000000100010000000000010
00000000000000000000000000000000100010000000000010
00000000000000000000000000000000100001000000000000
11000000000110000000000000000000011010000000000000
00000000000000000000001000000000000100000000000011
00000000000000000000000000000000000000000000000000
00000000000000000000000000000000000000000000000000
00000001100000000011000000000000000000000000000000
00000011000000000001100100000000000000000000000000
00000010000000000001110000000000000000000000000000
00000000000000000000010000000000000000000000000000
00000000000000000000000000000000000000000000000000
00000000000000000000000000000000000000000000000000
11000000000000000000000000000000000000000000000011
00000000000000000000000000000000000000000000000000
00000000000000000000000000000000000011100000000000
00000000000000000000000000000000000000011000000000
00000000000000000000000000000000000011001000000000
00000000000000000000000000000010100001101100000000
00000000000000000000000000000001000000000000000000
00000000000000000000000000000011000000000000000011
00000000000000000000000000000000100100000000000000
00000000000000000000000000000011000000000000000000
00000000000000000000000000000011000100000000000000
00000000000000000000000000000000000000000000000000
00000000000011000000000000000000000000000000000000
00000000000011000000000000000000000000000000000000
11000000000011000000000000000000000000000000000000
11000000000000000000000000000000000000000000000000
10000000110000001111100011000000001110000110000000
11000000111000001100000011000000001110000110000000
