P1
50 50
00000000000000000000000000000000000000000000000000
00000000000000000000000000000000011001100000000000
00000000000000000000000000100000111001100000000000
00000000000000000000000001010000011000000000000000
00000000000000000000000001001000001111000000000000
00000000000000000000000000110000000110000000000000
00000000000000000000000000000000000010000000000000
00000000000000000000000000000000000000000000000010
00000000000000000000000000000000000000000000000101
00000000000000000000000000000000000000000000000101
00000000000000000000000000000000000000000000000010
00000000000000000000000000000000000000000000000000
00000010000000000000000000000000000000000000000000
00000010000000000000000000000000000000000000000000
00000010000000000000000000000000000000000000000000
00000000000000000000000000000000000000000000000000
00000000000000000000000000000000000000000000000000
00000000000000000000000000000000000000000000000000
00000000000000000000000000000000000000000000000010
00000000000000000000000000000000000000000000000010
00000000000000000000000000000001100000000000000010
00000000000000000000000000000001100000000000000000
00000000000000000000000000000000000000000000000000
00000000000000000000000000000000000000000000000000
00000000000000000000000000000000000000000000000000
00000001000000000010000000000000000000000000000000
00000010100000000101000000000000000000000000000000
00000100100000000000000000000000000000000000000000
00000011000000000001001100000000000000000000000000
00000000000000000001000100000000000000000000000000
00000000000000000000111000000000000000000000000000
00000000000000000000000000000000000000110000000000
00000000000000000000000000000000000001001000000000
00000000000000000000000000000000000011000000000000
00000000000000000000000000000000000001000010000000
00000000000000000000000000000000000100111001000000
00000000000000000000000000000000000101011111100000
00000000000000000000000000000000010001001001000000
00000000000000000000000000000000110101000110000000
00000000000000000000000000000000010011000000000000
00000000000000000000000000000010100000000000000000
00000000000000000000000000000110110000000000000000
00000000000000000000000000000100100000000000000000
00000000000000000000000000000011000000000000000000
00000000000011000010000000000000000000000000000000
00000000000100100111000000000000000000000000000000
00000000000011011010100000000000000000000000000000
00000000000000011101110000000000000000000000000000
00000000000000001010100011000000000000000110000000
00000000000000000111000011000000000000000110000000
