P1
50 50
00000000000000000000000000000000000010100000000000
00000000000000000000000000000000000010011000000000
00000000000000000000000000100000000001110000000000
00000000000000000000000001010000000000110000000000
00000000000000000000000001001000000000001000000000
00000000000000000000000000110000011000110000000000
00000000000000000000000000000000011000000000000000
00000000000000000000000000000000011100000000000010
00000000000000000000000000000000000100000000000101
00000000000000000000000000000000000000000000000101
00000000000000000000000000000000000000000000000010
00000000000000000000000000000000000000000000000000
00000000000000000000000000000000000000000000000000
00000111000000000000000000000000000000000000000000
00000000000000000000000000000000000000000000000000
00000000000000000000000000000000000000000000000000
00000000000000000000000000000000000000000000000000
00000000000000000000000000000000000000000000000000
00000000000000000000000000000000000000000000000000
00000000000000000000000000000000000000000000000111
00000000000000000000000000000001100000000000000000
00000000000000000000000000000001100000000000000000
00000000000000000000000000000000000000000000000000
00000000000000000000000000000000000000000000000000
00000000000000000000000000000000000000000000000000
00000001000000000010000000000000000000000000000000
00000010100000000010000010000000000000100000000000
00000100100000000001000101100000000001110000000000
00000011000000000001100100010000000010011000000000
00000000000000000011101000010000000011011000000000
00000000000000000010011100110000000111000000000000
00000000000000000000110001000000000001100000000000
00000000000000000000110100000000000001010000000000
00000000000000000000010100000000000001001000000000
00000000000000000000001000000000001001000100000000
00000000000000000000000000000000010111100001100000
00000000000000000000000000000000110110100000010000
00000000000000000000000000000000100110010001100000
00000000000000000000000000000001000100001000000000
00000000000000000000000000000000101000000000000000
00000000000000000000000000000000010000000000000000
00000000000000000010000000000000000000000000000000
00000000000011000101100000000000000000000000000000
00000000001101101000000000000000000000000000000000
00000000001100011010000000000000000000000000000000
00000000001001010000000000000000000000000000000000
00000000000100100001000110000000000000000000000000
00000000001000000010000001000000000000000000000000
00000000000110000001001111000000000000000110000000
00000000000000000000010100000000000000000110000000
