P1
50 50
00000000000000000000000000000000000001000000000000
00000000000000000000000000000000100011100000000000
00000000000000000000000000100001000110010000000000
00000000000000000000000001010001010001000000000000
00000000000000000000000001001000110011000000000000
00000000000000000000000000110000001110000000000000
00000000000000000000000000000000001110000000000000
00000000000000000000000000000000000000000000000010
00000000000000000000000000000000000000000000000101
00000000000000000000000000000000000000000000000101
00000000000000000000000000000000000000000000000010
00000000000000000000000000000000000000000000000000
00000000000000000000000000000000000000000000000000
00000111000000000000000000000000000000000000000000
00000000000000000000000000000000000000000000000000
00000000000000000000000000000000000000000000000000
00000000000000000000000000000000000000000000000000
00000000000000000000000000000000000000000000000000
00000000000000000000000000000000000000000000000000
00000000000000000000000000000000000000000000000111
00000000000000000000000000000001100000000000000000
00000000000000000000000000000001100000000000000000
00000000000000000000000000000000000000000000000000
00000000000000000000000000000000000000000000000000
00000000000000000000000000000000000000000000000000
00000001000000000010000000000000000000000000000000
00000010100000000010000000000000000000000000000000
00000100100000000010000000000000000000000000000000
00000011000000000000001100000000000000000000000000
00000000000000000000100100000000000000000000000000
00000000000000000001000100000000000000100000000000
00000000000000000000101000000000000001110000000000
00000000000000000000010000000000000001011000000000
00000000000000000000000000000000000000000000000000
00000000000000000000000000000000000000000000000000
00000000000000000000000000000000000011000000100000
00000000000000000000000000000000010000100001100000
00000000000000000000000000000000110111000001000000
00000000000000000000000000000011110000100000000000
00000000000000000000000000000011000101000000000000
00000000000000000000000000000110000101000000000000
00000000000000000000000000001100000000000000000000
00000000000000000000000000000111100000000000000000
00000000000001111010000000000011100000000000000000
00000000000011000001000000000001000000000000000000
00000000000100000010000000000000000000000000000000
00000000000010001100010000000000000000000000000000
00000000000011100001110000000000000000000000000000
00000000000000000000100111000000000000000110000000
00000000000000000001000011000000000000000110000000
