P1
50 50
00000000000000000000000000000000000011100000000000
00000000000000000000000000000000000101010000000000
00000000000000000000000000100000100110111000000000
00000000000000000000000001010000010110110000000000
00000000000000000000000001001000000010100000000000
00000000000000000000000000110000101011000000000000
00000000000000000000000000000000001100000000000000
00000000000000000000000000000000000000000000000010
00000000000000000000000000000000000000000000000101
00000000000000000000000000000000000000000000000101
00000000000000000000000000000000000000000000000010
00000000000000000000000000000000000000000000000000
00000000000000000000000000000000000000000000000000
00000111000000000000000000000000000000000000000000
00000000000000000000000000000000000000000000000000
00000000000000000000000000000000000000000000000000
00000000000000000000000000000000000000000000000000
00000000000000000000000000000000000000000000000000
00000000000000000000000000000000000000000000000000
00000000000000000000000000000000000000000000000111
00000000000000000000000000000001100000000000000000
00000000000000000000000000000001100000000000000000
00000000000000000000000000000000000000000000000000
00000000000000000000000000000000000000000000000000
00000000000000000000000000000000000000000000000000
00000001000000000010000000000000000000000000000000
00000010100000000010000000000000000000000000000000
00000100100000000010000110000000000000000000000000
00000011000000000000000101000000000000100000000000
00000000000000000000000001000000000001110000000000
00000000000000000001110001000000000010011000000000
00000000000000000001000010000000000010001000000000
00000000000000000000000100000000000001101000000000
00000000000000000000111000000000000000011000000000
00000000000000000000000000000000000000000000000000
00000000000000000000000000000000001010100001100000
00000000000000000000000000000000001100010010010000
00000000000000000000000000000000010000001001100000
00000000000000000000000000000000010000010000000000
00000000000000000000000000000000010010000000000000
00000000000000000000000000001000000000000000000000
00000000000000000000000000010000000000000000000000
00000000000000000000000000010000000000000000000000
00000000000000000111000000001000000000000000000000
00000000001111100010000000000111000000000000000000
00000000000000000100010000000011000000000000000000
00000000000001110100010110000000000000000000000000
00000000001100000010000010000000000000000000000000
00000000000011000001110110000000000000000110000000
00000000000000000000111000000000000000000110000000
