P1
50 50
00000000000000000000000000000000000000000000000000
00000000000000000000000000000000000000000000000000
00000000000000000000000000100000000000000000000000
00000000000000000000000001010000000000000000000000
00000000000000000000000001001000000000000000000000
00000000000000000000000000110000000000000000000000
00000000000000000000000000000000000000000000000000
00000000000000000000000000000000000000000000000010
00000000000000000000000000000000000000000000000101
00000000000000000000000000000000000000000000000101
00000000000000000000000000000000000000000000000010
00000000000000000000000000000000000000000000000000
00000000000000000000000000000000000000000000000000
00000111000000000000000000000000000000000000000000
00000000000000000000000000000000000000000000000000
00000000000000000000000000000000000000000000000000
00000000000000000000000000000000000000000000000000
00000000000000000000000000000000000000000000000000
00000000000000000000000000000000000000000000000000
00000000000000000000000000000000000000000000000111
00000000000000000000000000000001100000000000000000
00000000000000000000000000000001100000000000000000
00000000000000000000000000000000000000000000000000
00000000000000000000000000000000000001110000000000
00000000000000000000000000000000000010001000000000
00000001000000000000000001101000000000000000000000
00000010100000000011000110101000000000000000000000
00000100100000000100100010100100000100111000000000
00000011000000000011000110000010000000010000000000
00000000000000000000000010010011000000000000000000
00000000000000000000000000000110000000000000000000
00000000000000000000000000010000001011110000000000
00000000000000000000000000010000010010110000000000
00000000000000000000000010010000010000100000000000
00000000000000000000000001000000001001000000000000
00000000000000000000000000000000000000000000000000
00000000000000000000000000000000000010010000000000
00000000000000000000000000000000000010010000000000
00000000000000000000000000000000000000000000000000
00000000000000000000000000000000000000000000000000
00000000000000000111100000000000000000000000000000
00000000001110101000010000000000000000000000000000
00000000001000011000000000000000000000000000000000
00000000000111010000110000000000000000000000000000
00000000000100010000100000000000000000000000000000
00000000001111110101000000000000000000000000000000
00000000001110000010000000000000000000000000000000
00000000010100000000000000000000000000000000000000
00000000001100000000000000000000000000000110000000
00000000000100000000000000000000000000000110000000
