P1
50 50
00000000000000000000000000000000000000000000000000
00000000000000000000000000000000000000000000000000
00000000000000000000000000100000000000000000000000
00000000000000000000000001010000000000000000000000
00000000000000000000000001001000000000000000000000
00000000000000000000000000110000000000000000000000
00000000000000000000000000000000000000000000000000
00000000000000000000000000000000000000000000000010
00000000000000000000000000000000000000000000000101
00000000000000000000000000000000000000000000000101
00000000000000000000000000000000000000000000000010
00000000000000000000000000000000000000000000000000
00000000000000000000000000000000000000000000000000
00000111000000000000000000000000000000000000000000
00000000000000000000000000000000000000000000000000
00000000000000000000000000000000000000000000000000
00000000000000000000000000000000000000000000000000
00000000000000000000000000000000000000000000000000
00000000000000000000000000000000000000000000000000
00000000000000000000000000000000000000000000000111
00000000000000000000000000000001100000000000000000
00000000000000000000000000000001100000000000000000
00000000000000000000000000000000000000000000000000
00000000000000000000000000000000000000100000000000
00000000000000000000000000000000000001010000000000
00000001000000000000000010100000000011011000000000
00000010100000000001000010110000000010010000000000
00000100100000000011000010001100000100010000000000
00000011000000000010000001101100000010010000000000
00000000000000000000000010100010000000000000000000
00000000000000000000000011101100000000010000000000
00000000000000000000000010011100000100010000000000
00000000000000000000000010010000001100100000000000
00000000000000000000000001000000010001000000000000
00000000000000000000000001000000010110000000000000
00000000000000000000000000000000000000101000000000
00000000000000000000000000000000000010101000000000
00000000000000000000000000000000001110010000000000
00000000000000000000000000000000001010000000000000
00000000000000000000000000000000000000000000000000
00000000000000000001000000000000000000000000000000
00000000001101100110100000000000000000000000000000
00000000001101100010110000000000000000000000000000
00000000000001100000000000000000000000000000000000
00000000000000000011000000000000000000000000000000
00000000000000110110000000000000000000000000000000
00000000001111100000000000000000000000000000000000
00000000010011100000000000000000000000000000000000
00000000001011000000000000000000000000000110000000
00000000000100000000000000000000000000000110000000
