P1
50 50
00000000000000000000000000000000000001000000000000
00000000000000000000000000000000000001000000000000
00000000000000000000000000100000000000000000000000
00000000000000000000000001010000000000000000000000
00000000000000000000000001001000000000000000000000
00000000000000000000000000110000000000000000000000
00000000000000000000000000000000000000000000000000
00000000000000000000000000000000000000000000000010
00000000000000000000000000000000000000000000000101
00000000000000000000000000000000000000000000000101
00000000000000000000000000000000000000000000000010
00000000000000000000000000000000000000000000000000
00000010000000000000000000000000000000000000000000
00000010000000000000000000000000000000000000000000
00000010000000000000000000000000000000000000000000
00000000000000000000000000000000000000000000000000
00000000000000000000000000000000000000000000000000
00000000000000000000000000000000000000000000000000
00000000000000000000000000000000000000000000000010
00000000000000000000000000000000000000000000000010
00000000000000000000000000000001100000000000000010
00000000000000000000000000000001100000000000000000
00000000000000000000000000000000000000000000000000
00000000000000000000000000000000000000000000000000
00000000000000000000000000000000000001110000000000
00000001000000000000000001100000000001010000000000
00000010100000000000000011100000000010010000000000
00000100100000000011101000001000000011100000000000
00000011000000000010000001111100000011100000000000
00000000000000000000000000100010000000100000000000
00000000000000000001000110001100000000110000000000
00000000000000000000100001011000000001100000000000
00000000000000000000000000000000001111000000000000
00000000000000000000000011100000010010000000000000
00000000000000000000000000000000010100000000000000
00000000000000000000000000000000001100011000000000
00000000000000000000000000000000000110111000000000
00000000000000000000000000000000001100000000000000
00000000000000000000000000000000000000000000000000
00000000000000000000000000000000000110000000000000
00000000000100100000000000000000110000000000000000
00000000001000100011100000000000000000000000000000
00000000001000101010100000000000000000000000000000
00000000000101001000100000000000000000000000000000
00000000000000100010000000000000000000000000000000
00000000000000000110000000000000000000000000000000
00000000001100110000000000000000000000000000000000
00000000010011000000000000000000000000000000000000
00000000001010000000000000000000000000000110000000
00000000000100000000000000000000000000000110000000
