P1
50 50
00000000000000000000000000000000000000000000000000
00000000000000000000000000000000000000000000000000
00000000000000000000000000100000000000000000000000
00000000000000000000000001010000000000000000000000
00000000000000000000000001001000000000000000000000
00000000000000000000000000110000000000000000000000
00000000000000000000000000000000000000000000000000
00000000000000000000000000000000000000000000000010
00000000000000000000000000000000000000000000000101
00000000000000000000000000000000000000000000000101
00000000000000000000000000000000000000000000000010
00000000000000000000000000000000000000000000000000
00000010000000000000000000000000000000000000000000
00000010000000000000000000000000000000000000000000
00000010000000000000000000000000000000000000000000
00000000000000000000000000000000000000000000000000
00000000000000000000000000000000000000000000000000
00000000000000000000000000000000000000000000000000
00000000000000000000000000000000000000000000000010
00000000000000000000000000000000000000000000000010
00000000000000000000000000000001100000000000000010
00000000000000000000000000000001100000100000000000
00000000000000000000000001100000000011011000000000
00000000000000000000000110110000000011011000000000
00000000000000000000000111011000000110111000000000
00000001000000000000000100000100000000000000000000
00000010100000000011000000000110000000000000000000
00000100100000000100100000000110000000000000000000
00000011000000000011000000000000000001100000000000
00000000000000000000000110000010100001100000000000
00000000000000000000000011001010100000100000000000
00000000000000000000000001101000000000000000000000
00000000000000000000000001101100000000000000000000
00000000000000000000000000011000000000000000000000
00000000000000000000000000000000000000000000000000
00000000000000000000000000000000000000000000000000
00000000000000000000000000000000000000000000000000
00000000000000000000000000000000000000000000000000
00000000000000000000000000000000000000000000000000
00000000000000000000000000000000000000000000000000
00000000011100001100000000000000000000000000000000
00000000011010010010000000000000000000000000000000
00000000010000010110000000000000000000000000000000
00000000000100010110000000000000000000000000000000
00000000001101110100000000000000000000000000000000
00000000000100111000000000000000000000000000000000
00000000000110010000000000000000000000000000000000
00000000000001111000000000000000000000000000000000
00000000000000010000000000000000000000000110000000
00000000000000000000000000000000000000000110000000
