P1
50 50
00000000000000000000000000000000001100000000000000
00000000000000000000000000000000001001000000000000
00000000000000000000000001000000000101000000000000
00000000000000000000000000111000000111000000000000
00000000000000000000000000010000000000000000000000
00000000000000000000000000000000000000000000000000
00000000000000000000000000000000000000000000000000
00000000000000000000000000000000000000000000000000
00000000000000000000000000000000000000000000000111
00000000000000000000000000000000000000000000000111
00000000000000000000000000000000000000000000000000
00000000000000000000000000000000000000000000000000
00000010000000000000000000000000000000000000000000
00000010000000000000000000000000000000000000000000
00000010000000000000000000000000000000000000000000
00000000000000000000000000000000000000000000000000
00000000000000000000000000000000000000000000000000
00000000000000000000000000000000000000000000000000
00000000000000000000000000000000100000000000000010
00000000000000000000000000000001001010000000000010
00000000000000000000000000000000011001000000000010
00000000000000000000000000000001000000000000000000
00000000000000000000000000000000010001000000000000
00000000000000000000000000000000010010000000000000
00000000000000000000000000000000000000000000000000
00000001000000000001000000000000000000000000000000
00000010100000000001100000000000000000000000000000
00000100100000000010011000000000000000000000000000
00000011000000000000011000000000000000000000000000
00000000000000000000111000000000000000000000000000
00000000000000000000000000000000000000000000000000
00000000000000000000000000000000000000000000000000
00000000000000000000000000000000000000000000000000
00000000000000000000000000000000000001000000000000
00000000000000000000000000000000000001011000000000
00000000000000000000000000000000000010011000000000
00000000000000000000000000000000000010000100000000
00000000000000000000000000000000000010111000000000
00000000000000000000000000000010100001111000000000
00000000000000000000000000000000110000000000000000
00000000000000000000000000000010110000000000000000
00000000000000000000000000000010100000000000000000
00000000000000000000000000000011000000000000000000
00000000000000000000000000000000000000000000000000
00000000000011000000000000000000000000000000000000
00000000000100100000000000000000000000000000000000
00000000000011000010000000000000000000000000000000
00000000000000000101000000000000000100000000000000
00000000000000001000100011000000001010000110000000
00000000000000000111000011000000000000000110000000
