P1
50 50
00000000000000000000000000000000000000000000000000
00000000000000000000000000000000000000000000000000
00000000000000000000000000100000000000000000000000
00000000000000000000000001010000000000000000000000
00000000000000000000000001001000000000000000000000
00000000000000000000000000110000000000000000000000
00000000000000000000000000000000000000000000000000
00000000000000000000000000000000000000000000000010
00000000000000000000000000000000000000000000000101
00000000000000000000000000000000000000000000000101
00000000000000000000000000000000000000000000000010
00000000000000000000000000000000000000000000000000
00000010000000000000000000000000000000000000000000
00000010000000000000000000000000000000000000000000
00000010000000000000000000000000000000000000000000
00000000000000000000000000000000000000000000000000
00000000000000000000000000000000000000000000000000
00000000000000000000000000000000000000000000000000
00000000000000000000000000000000000000000000000010
00000000000000000000000000000000000000100000000010
00000000000000000000000000000001100000110000000010
00000000000000000000000000000001100000111000000000
00000000000000000000000100011000000000001100000000
00000000000000000000001010011000000011001110000000
00000000000000000000001010010100000011000100000000
00000001000000000000001110110110000000001000000000
00000010100000000011000000100010000000000000000000
00000100100000000100100000000010000000000000000000
00000011000000000011000110010010000000000000000000
00000000000000000000001100000100000000000000000000
00000000000000000000000000000000000000000000000000
00000000000000000000000000000000000000000000000000
00000000000000000000000000001110000000000000000000
00000000000000000000000001101110000000000000000000
00000000000000000000000000000000000000000000000000
00000000000000000000000000000000000000000000000000
00000000000000000000000000000000000000000000000000
00000000000000000000000000000000000000000000000000
00000000000000000000000000000000000000000000000000
00000000011000001100000000000000000000000000000000
00000000101000111110000000000000000000000000000000
00000000100011111011000000000000000000000000000000
00000000011110100010000000000000000000000000000000
00000000010000000100000000000000000000000000000000
00000000001100000000000000000000000000000000000000
00000000011000000000000000000000000000000000000000
00000000001111110000000000000000000000000000000000
00000000000100001000000000000000000000000000000000
00000000000011101000000000000000000000000110000000
00000000000000010000000000000000000000000110000000
