P1
50 50
00000000000000000000000000000000000011100000000000
00000000000000000000000000000000000011010000000000
00000000000000000000000000100000000000110100000000
00000000000000000000000001010000000000000100000000
00000000000000000000000001001000010010010000000000
00000000000000000000000000110000000000010000000000
00000000000000000000000000000000011000100000000000
00000000000000000000000000000000001110000000000010
00000000000000000000000000000000000000000000000101
00000000000000000000000000000000000000000000000101
00000000000000000000000000000000000000000000000010
00000000000000000000000000000000000000000000000000
00000010000000000000000000000000000000000000000000
00000010000000000000000000000000000000000000000000
00000010000000000000000000000000000000000000000000
00000000000000000000000000000000000000000000000000
00000000000000000000000000000000000000000000000000
00000000000000000000000000000000000000000000000000
00000000000000000000000000000000000000000000000010
00000000000000000000000000000000000000000000000010
00000000000000000000000000000001100000000000000010
00000000000000000000000000000001100000000000000000
00000000000000000000000000000000000000000000000000
00000000000000000000000000000000000000000000000000
00000000000000000000000000000000000000000000000000
00000001000000000000000000000000000000000000000000
00000010100000000111000000000000000000000000000000
00000100100000000000000111000000000001110000000000
00000011000000000001000101100000000010010000000000
00000000000000000001100010110000000010001000000000
00000000000000000010010110100000000110010000000000
00000000000000000001010011000000000001000000000000
00000000000000000000001100000000000001000000000000
00000000000000000000010100000000000000111000000000
00000000000000000000001000000000001000111000000000
00000000000000000000000000000000010100100101100000
00000000000000000000000000000000010110011110010000
00000000000000000000000000000000100100011101100000
00000000000000000000000000000000111000000000000000
00000000000000000000000000000000111000000000000000
00000000000000000000000000000000000000000000000000
00000000000000000010000000000000000000000000000000
00000000000010000101000000011000000000000000000000
00000000000101100101100000000000000000000000000000
00000000001100010001100000000000000000000000000000
00000000000011010000111000000000000000000000000000
00000000000101100001011110000000000000000000000000
00000000000110000001110001000000000000000000000000
00000000000110000001101001000000000000000110000000
00000000000000000000001010000000000000000110000000
