P1
50 50
00000000000000000000000000000000000000000000000000
00000000000000000000000000000000000000000000000000
00000000000000000000000000100000000000000000000000
00000000000000000000000001010000000000000000000000
00000000000000000000000001001000000000000000000000
00000000000000000000000000110000000000000000000000
00000000000000000000000000000000000000000000000000
00000000000000000000000000000000000000000000000010
00000000000000000000000000000000000000000000000101
00000000000000000000000000000000000000000000000101
00000000000000000000000000000000000000000000000010
00000000000000000000000000000000000000000000000000
00000000000000000000000000000000000000000000000000
00000111000000000000000000000000000000000000000000
00000000000000000000000000000000000000000000000000
00000000000000000000000000000000000000000000000000
00000000000000000000000000000000000000000000000000
00000000000000000000000000000000000000000000000000
00000000000000000000000000000000000000000000000000
00000000000000000000000000000000000000000000000111
00000000000000000000000000000001100000000000000000
00000000000000000000000000000001100000000000000000
00000000000000000000000000000000000001110000000000
00000000000000000000000001000000000001010000000000
00000000000000000000000011100000000000100000000000
00000001000000000000000100101000000000100000000000
00000010100000000011000011001100000000101000000000
00000100100000000100100001000000000000101000000000
00000011000000000011000101000100000000010000000000
00000000000000000000000110110011000001000000000000
00000000000000000000000000001010100001000000000000
00000000000000000000000000011011000000010000000000
00000000000000000000000000110000000001010000000000
00000000000000000000000000000000000001010000000000
00000000000000000000000000000000000000000000000000
00000000000000000000000000000000000000000000000000
00000000000000000000000000000000000000000000000000
00000000000000000000000000000000000000000000000000
00000000000000000000000000000000000000000000000000
00000000000000000000000000000000000000000000000000
00000000001100001000000000000000000000000000000000
00000000010010001100000000000000000000000000000000
00000000011110000100000000000000000000000000000000
00000000011000011000000000000000000000000000000000
00000000001111001000000000000000000000000000000000
00000000000010001100000000000000000000000000000000
00000000000001110100000000000000000000000000000000
00000000000100100000000000000000000000000000000000
00000000000000000000000000000000000000000110000000
00000000000100000000000000000000000000000110000000
