P1
50 50
00000000000000000000000000000000000000000000000000
00000000000000000000000000000000000000000000000000
00000000000000000000000000100000000000000000000000
00000000000000000000000001010000000000000000000000
00000000000000000000000001001000000000000000000000
00000000000000000000000000110000000000000000000000
00000000000000000000000000000000000000000000000000
00000000000000000000000000000000000000000000000010
00000000000000000000000000000000000000000000000101
00000000000000000000000000000000000000000000000101
00000000000000000000000000000000000000000000000010
00000000000000000000000000000000000000000000000000
00000010000000000000000000000000000000000000000000
00000010000000000000000000000000000000000000000000
00000010000000000000000000000000000000000000000000
00000000000000000000000000000000000000000000000000
00000000000000000000000000000000000000000000000000
00000000000000000000000000000000000000000000000000
00000000000000000000000000000000000000000000000010
00000000000000000000000000000000000000000000000010
00000000000000000000000000000001100000000000000010
00000000000000000000000000000001100000100000000000
00000000000000000000000000000000000001010000000000
00000000000000000000000011100000000001010000000000
00000000000000000000000010110000000001110000000000
00000001000000000000000100101100000001100000000000
00000010100000000011000011111100000001100000000000
00000100100000000100100001101100000000101000000000
00000011000000000011000101000010000000110000000000
00000000000000000000000111111011000000100000000000
00000000000000000000000000101000100000100000000000
00000000000000000000000000101011000000000000000000
00000000000000000000000000111000000000011000000000
00000000000000000000000000000000000000000000000000
00000000000000000000000000000000000000000000000000
00000000000000000000000000000000000000000000000000
00000000000000000000000000000000000000000000000000
00000000000000000000000000000000000000000000000000
00000000000000000000000000000000000000000000000000
00000000000000000000000000000000000000000000000000
00000000001100001100000000000000000000000000000000
00000000010010001100000000000000000000000000000000
00000000100010010100000000000000000000000000000000
00000000000001011100000000000000000000000000000000
00000000011011000000000000000000000000000000000000
00000000000000000100000000000000000000000000000000
00000000000011110100000000000000000000000000000000
00000000000001110000000000000000000000000000000000
00000000000000000000000000000000000000000110000000
00000000000000000000000000000000000000000110000000
