P1
50 50
00000000000000000000000000000000000001000000000000
00000000000000000000000000000000000010100000000000
00000000000000000000000000100000000000000000000000
00000000000000000000000001010000000000000000000000
00000000000000000000000001001000000000000000000000
00000000000000000000000000110000000000000000000000
00000000000000000000000000000000000000000000000000
00000000000000000000000000000000000000000000000010
00000000000000000000000000000000000000000000000101
00000000000000000000000000000000000000000000000101
00000000000000000000000000000000000000000000000010
00000000000000000000000000000000000000000000000000
00000000000000000000000000000000000000000000000000
00000111000000000000000000000000000000000000000000
00000000000000000000000000000000000000000000000000
00000000000000000000000000000000000000000000000000
00000000000000000000000000000000000000000000000000
00000000000000000000000000000000000000000000000000
00000000000000000000000000000000000000000000000000
00000000000000000000000000000000000000000000000111
00000000000000000000000000000001100000000000000000
00000000000000000000000000000001100000000000000000
00000000000000000000000000000000000000000000000000
00000000000000000000000000000000000000000000000000
00000000000000000000000000000000000000100000000000
00000001000000000000000001100000000001110000000000
00000010100000000000000001100000000010010000000000
00000100100000000001101100000000000011000000000000
00000011000000000110101111111100000001000000000000
00000000000000000001111110000100000000010000000000
00000000000000000001110000001100000000100000000000
00000000000000000000000001010000000000100000000000
00000000000000000000000001100000000101000000000000
00000000000000000000000011000000011010000000000000
00000000000000000000000000000000011100000000000000
00000000000000000000000000000000000000010000000000
00000000000000000000000000000000000010011000000000
00000000000000000000000000000000001101000000000000
00000000000000000000000000000000000100000000000000
00000000000000000000000000000000100110000000000000
00000000000011000000000000000000000000000000000000
00000000000111100001000000000000110000000000000000
00000000001110001011100000000000000000000000000000
00000000000000101100100000000000000000000000000000
00000000000000100110000000000000000000000000000000
00000000000000011100000000000000000000000000000000
00000000010000110000000000000000000000000000000000
00000000001110000000001000000000000000000000000000
00000000001110000000010000000000000000000110000000
00000000000000000000000000000000000000000110000000
