P1
50 50
00000000000000000000000000000000001100000000000000
00000000000000000000000000000000010010000000000000
00000000000000000000000000101000001101100000000000
00000000000000000000000001000000001101100000000000
00000000000000000000000000101000000010000000000000
00000000000000000000000000010000000000000000000000
00000000000000000000000000000000000000000000000000
00000000000000000000000000000000000000000000000010
00000000000000000000000000000000000000000000000101
00000000000000000000000000000000000000000000000101
00000000000000000000000000000000000000000000000010
00000000000000000000000000000000000000000000000000
00000010000000000000000000000000000000000000000000
00000010000000000000000000000000000000000000000000
00000010000000000000000000000000000000000000000000
00000000000000000000000000000000000000000000000000
00000000000000000000000000000000000000000000000000
00000000000000000000000000000000000000000000000000
00000000000000000000000000000000000000000000000010
00000000000000000000000000000000100100000000000010
00000000000000000000000000000001000000000000000010
00000000000000000000000000000001000100000000000000
00000000000000000000000000000000100000000000000000
00000000000000000000000000000000000000000000000000
00000000000000000000000000000000000000000000000000
00000001000000000010010000000000000000000000000000
00000010100000000010010000000000000000000000000000
00000100100000000011011000000000000000000000000000
00000011000000000000011100000000000000000000000000
00000000000000000000011000000000000000000000000000
00000000000000000000010000000000000000000000000000
00000000000000000000000000000000000000000000000000
00000000000000000000000000000000000000000000000000
00000000000000000000000000000000000001110000000000
00000000000000000000000000000000000010001000000000
00000000000000000000000000000000000000000100000000
00000000000000000000000000000000000100110110000000
00000000000000000000000000000000100110001100000000
00000000000000000000000000000000100001111000000000
00000000000000000000000000000000100000110000000000
00000000000000000000000000000000000000000000000000
00000000000000000000000000000110100000000000000000
00000000000000000000000000000111100000000000000000
00000000000000000000000000000000000000000000000000
00000000000011000000000000000000000000000000000000
00000000000100100000000000000000000000000000000000
00000000000011000111000000000000000000000000000000
00000000000000000111000000000000000000000000000000
00000000000000001000100011000000000000000110000000
00000000000000000111000011000000000000000110000000
