P1
50 50
00000000000000000000000000000000001100000000000000
00000000000000000000000001010000001001000000000000
00000000000000000000000001010000000111000000000000
00000000000000000000000000111000000010000000000000
00000000000000000000000000000000000000000000000000
00000000000000000000000000000000000000000000000000
00000000000000000000000000000000000000000000000000
00000000000000000000000000000000000000000000000000
00000000000000000000000000000000000000000000000011
00000000000000000000000000000000000000000000000110
00000000000000000000000000000000000000000000000000
00000000000000000000000000000000000000000000000000
00000000000000000000000000000000000000000000000000
00000111000000000000000000000000000000000000000000
00000000000000000000000000000000000000000000000000
00000000000000000000000000000000000000000000000000
00000000000000000000000000000000000000000000000000
00000000000000000000000000000000000000000000000000
00000000000000000000000000000000010000000000000000
00000000000000000000000000000001100100000000000111
00000000000000000000000000000001110011000000000000
00000000000000000000000000000000100111000000000000
00000000000000000000000000000000011110000000000000
00000000000000000000000000000000001100000000000000
00000000000000000000000000000000000000000000000000
00000000000000000000000000000000000000000000000000
00000011100000000011100000000000000000000000000000
00000010100000000000010000000000000000000000000000
00000011000000000001011000000000000000000000000000
00000000000000000000010000000000000000000000000000
00000000000000000000000000000000000000000000000000
00000000000000000000000000000000000000000000000000
00000000000000000000000000000000000000000000000000
00000000000000000000000000000000000001000000000000
00000000000000000000000000000000000001110000000000
00000000000000000000000000000000000000011000000000
00000000000000000000000000000000000011000000000000
00000000000000000000000000000001000011111100000000
00000000000000000000000000000000100000000000000000
00000000000000000000000000000011100000000000000000
00000000000000000000000000000000100000000000000000
00000000000000000000000000000010100000000000000000
00000000000000000000000000000011000000000000000000
00000000000000000000000000000000000000000000000000
00000000000011000000000000000000000000000000000000
00000000000100100000000000000000000000000000000000
11000000000011000000000000000000000000000000000000
00000000000000000111000000000000000100000000000000
00000000101000001011000011000000001010000110000000
11000000101000001001000011000000001010000110000000
