P1
50 50
00000000000000000000000000000000001001000000000000
00000000000000000000000000000000010001000000000000
00000000000000000000000000100000010000100000000000
00000000000000000000000001010000010000100000000000
00000000000000000000000001001000001000000000000000
00000000000000000000000000110000000111000000000000
00000000000000000000000000000000000000000000000000
00000000000000000000000000000000000000000000000010
00000000000000000000000000000000000000000000000101
00000000000000000000000000000000000000000000000101
00000000000000000000000000000000000000000000000010
00000000000000000000000000000000000000000000000000
00000000000000000000000000000000000000000000000000
00000111000000000000000000000000000000000000000000
00000000000000000000000000000000000000000000000000
00000000000000000000000000000000000000000000000000
00000000000000000000000000000000000000000000000000
00000000000000000000000000000000000000000000000000
00000000000000000000000000000000000000000000000000
00000000000000000000000000000000000000000000000111
00000000000000000000000000000001100000000000000000
00000000000000000000000000000001100000000000000000
00000000000000000000000000000000000000000000000000
00000000000000000000000000000000000000000000000000
00000000000000000000000000000000000000000000000000
00000001000000000010000000000000000000000000000000
00000010100000000101000000000000000000000000000000
00000100100000000100101000000000000000000000000000
00000011000000000001110010000000000000000000000000
00000000000000000000110010000000000000000000000000
00000000000000000000011000000000000000000000000000
00000000000000000000000000000000000000100000000000
00000000000000000000000000000000000000110000000000
00000000000000000000000000000000000001011000000000
00000000000000000000000000000000000011001110000000
00000000000000000000000000000000000101001001000000
00000000000000000000000000000000000111001001000000
00000000000000000000000000000000011000001001000000
00000000000000000000000000000001110101000110000000
00000000000000000000000000000000000011000000000000
00000000000000000000000000000010100000000000000000
00000000000000000000000000000011100000000000000000
00000000000000000000000000000100100000000000000000
00000000000000000000000000000011000000000000000000
00000000000011000000000000000000000000000000000000
00000000000100100111000000000000000000000000000000
00000000000011001000100000000000000000000000000000
00000000000000001000100000000000000000000000000000
00000000000000001000100011000000000000000110000000
00000000000000000111000011000000000000000110000000
