P1
50 50
01011000000101001000000000100101011100100001001001
10000000000001000010000001000000000010000000000000
00000000000000000000000000100000000011000000000000
10000000000000000000000000101000001000000001100000
10000000000000000000000000001000000000000000000001
00000000000000000000000000001000000000000001000001
00000000000010000000000000000000000000000000000000
00000000000000000000110000000000000000000000000001
10000000000000000000001000000000000000000000000001
00000000000000000000000000000000000000000001000001
10000000000000000000000000010000000000000000000100
00000000000000000000000000010100100000010000000001
10000000000000001010000000000100000000000000000101
10000111000000000000000000000000000000000000000000
00000000000001000000000000000000000000000000000000
00010000000000000000000010000000000000000000000000
00000000000011000000000000000000000000000000000000
10000000000000000000100000000001010000000000000001
10000000000000000000000000000000001000000000000000
10000000000000000000000000000000011000000000000101
00000000000000000000000000000000110111000000000001
10000000000100000000000000000000101100000000000000
10000000000000000000010000000000001110000000000001
10010000101011000000000000000000000000000000000001
00000000000000000000001100000000000000000000000001
00000001000000000010000000000000000000000000000000
10000001000000000000001100000000000100000000000000
10000111000000000011000000000000000000000000000000
00000000000000000000111000000000000000000000000000
00000000000000000000000000000010000000000000000000
00000000000000000000000000000010000000000000000000
01000000000000000000000000100000000000000000000001
10000000000000000000000000000000000000000000000001
10000000100000000000000000000000000000000000000001
00000000000000000000000000000000000011000000000000
00000000000000000000000000000000000001010000000000
00000000000000000000000000000000000001111000000000
00000000000000000000000000000001000010001000000000
00000000000000001000000000000101010000001000000001
00010001100000000000000011000011000010000000000001
00000000000000000000100000000000010000000000000001
00000000000000000000000000000011001010000000000000
00000000000000000000000000000010000000000000000000
10000000000000000000000000000000000010000000000000
00000000000010000100000010000000000000000000000000
10010000000011000000000000000000000000100000000000
10000000000001000000000000000000000000000000000001
10000000000000000001000000000000000000000000000000
10000000010000000000000000000000000100000000000000
11011001011100011110110111100000010110001111000001
