P1
50 50
00000000000000000000000000000000000011100000000000
00000000000000000000000000000000000100100000000000
00000000000000000000000000100000100101100000000000
00000000000000000000000001010001010101100000000000
00000000000000000000000001001000110011100000000000
00000000000000000000000000110000010000000000000000
00000000000000000000000000000000000100000000000000
00000000000000000000000000000000000100000000000010
00000000000000000000000000000000000000000000000101
00000000000000000000000000000000000000000000000101
00000000000000000000000000000000000000000000000010
00000000000000000000000000000000000000000000000000
00000000000000000000000000000000000000000000000000
00000111000000000000000000000000000000000000000000
00000000000000000000000000000000000000000000000000
00000000000000000000000000000000000000000000000000
00000000000000000000000000000000000000000000000000
00000000000000000000000000000000000000000000000000
00000000000000000000000000000000000000000000000000
00000000000000000000000000000000000000000000000111
00000000000000000000000000000001100000000000000000
00000000000000000000000000000001100000000000000000
00000000000000000000000000000000000000000000000000
00000000000000000000000000000000000000000000000000
00000000000000000000000000000000000000000000000000
00000001000000000010000000000000000000000000000000
00000010100000000010000000000000000000000000000000
00000100100000000010000000000000000000000000000000
00000011000000000000001110000000000000000000000000
00000000000000000000100010000000000000100000000000
00000000000000000001000010000000000001110000000000
00000000000000000001000100000000000011001000000000
00000000000000000000111000000000000000111000000000
00000000000000000000000000000000000000000000000000
00000000000000000000000000000000000000000000000000
00000000000000000000000000000000011000000001100000
00000000000000000000000000000000011100100010010000
00000000000000000000000000000000100010110001100000
00000000000000000000000000000000001100010000000000
00000000000000000000000000000000001001100000000000
00000000000000000000000000000000000000000000000000
00000000000000000000000000011100000000000000000000
00000000000000010000000000001100000000000000000000
00000000000010000010000000000110100000000000000000
00000000000100010101000000000011000000000000000000
00000000000101100000100000000001000000000000000000
00000000000100000101011000000000000000000000000000
00000000000101000001010110000000000000000000000000
00000000000011000000110101000000000000000110000000
00000000000000000000001000000000000000000110000000
