P1
50 50
00000000000000000000000000000000000011100000000000
00000000000000000000000000000000000100010000000000
00000000000000000000000000100000100100010000000000
00000000000000000000000001010001010100010000000000
00000000000000000000000001001000010010100000000000
00000000000000000000000000110000111011000000000000
00000000000000000000000000000000001000000000000000
00000000000000000000000000000000000000000000000010
00000000000000000000000000000000000000000000000101
00000000000000000000000000000000000000000000000101
00000000000000000000000000000000000000000000000010
00000000000000000000000000000000000000000000000000
00000010000000000000000000000000000000000000000000
00000010000000000000000000000000000000000000000000
00000010000000000000000000000000000000000000000000
00000000000000000000000000000000000000000000000000
00000000000000000000000000000000000000000000000000
00000000000000000000000000000000000000000000000000
00000000000000000000000000000000000000000000000010
00000000000000000000000000000000000000000000000010
00000000000000000000000000000001100000000000000010
00000000000000000000000000000001100000000000000000
00000000000000000000000000000000000000000000000000
00000000000000000000000000000000000000000000000000
00000000000000000000000000000000000000000000000000
00000001000000000000000000000000000000000000000000
00000010100000000111000000000000000000000000000000
00000100100000000000000100000000000000000000000000
00000011000000000000000110000000000000000000000000
00000000000000000000000011000000000001110000000000
00000000000000000001100110000000000010010000000000
00000000000000000001011100000000000010001000000000
00000000000000000000111000000000000001111000000000
00000000000000000000010000000000000000010000000000
00000000000000000000000000000000000000000000000000
00000000000000000000000000000000010100000001100000
00000000000000000000000000000000100101110010010000
00000000000000000000000000000000000011110001100000
00000000000000000000000000000000011110010000000000
00000000000000000000000000000000001100100000000000
00000000000000000000000000001000000000000000000000
00000000000000000000000000010100000000000000000000
00000000000000000000000000010000000000000000000000
00000000000000001010000000001000000000000000000000
00000000000101100011000000000100100000000000000000
00000000001100101001110000000011000000000000000000
00000000001101100011011100000000000000000000000000
00000000000101000011000110000000000000000000000000
00000000000011000000110100000000000000000110000000
00000000000000000000011000000000000000000110000000
