P1
50 50
00000000000000000000000000000000000000000000000000
00000000000000000000000000000000000000000000000000
00000000000000000000000000100000000000000000000000
00000000000000000000000001010000000000000000000000
00000000000000000000000001001000000000000000000000
00000000000000000000000000110000000000000000000000
00000000000000000000000000000000000000000000000000
00000000000000000000000000000000000000000000000010
00000000000000000000000000000000000000000000000101
00000000000000000000000000000000000000000000000101
00000000000000000000000000000000000000000000000010
00000000000000000000000000000000000000000000000000
00000000000000000000000000000000000000000000000000
00000111000000000000000000000000000000000000000000
00000000000000000000000000000000000000000000000000
00000000000000000000000000000000000000000000000000
00000000000000000000000000000000000000000000000000
00000000000000000000000000000000000000000000000000
00000000000000000000000000000000000000000000000000
00000000000000000000000000000000000000000000000111
00000000000000000000000000000001100000000000000000
00000000000000000000000000000001100000100000000000
00000000000000000000000001000000000001010000000000
00000000000000000000000010110000000011011000000000
00000000000000000000000110001000000010010000000000
00000001000000000000000100000100000010000000000000
00000010100000000011000010000010000000000000000000
00000100100000000100100000000010000000000000000000
00000011000000000011000100000011000001100000000000
00000000000000000000000100001011000001100000000000
00000000000000000000000010001000100000000000000000
00000000000000000000000001101001000000010000000000
00000000000000000000000000101100000000000000000000
00000000000000000000000000010000000000000000000000
00000000000000000000000000000000000000000000000000
00000000000000000000000000000000000000000000000000
00000000000000000000000000000000000000000000000000
00000000000000000000000000000000000000000000000000
00000000000000000000000000000000000000000000000000
00000000000000000000000000000000000000000000000000
00000000001100001100000000000000000000000000000000
00000000011010010010000000000000000000000000000000
00000000000011110010000000000000000000000000000000
00000000010101010100000000000000000000000000000000
00000000000011100100000000000000000000000000000000
00000000000100001000000000000000000000000000000000
00000000000010010000000000000000000000000000000000
00000000000010011000000000000000000000000000000000
00000000000000100000000000000000000000000110000000
00000000000000000000000000000000000000000110000000
