P1
50 50
00000000000000000000000000000000000000000000000000
00000000000000000000000000000000010011100000000000
00000000000000000000000000100001100010010000000000
00000000000000000000000001010000110010100000000000
00000000000000000000000001001000010000000000000000
00000000000000000000000000110000001110000000000000
00000000000000000000000000000000000100000000000000
00000000000000000000000000000000000000000000000010
00000000000000000000000000000000000000000000000101
00000000000000000000000000000000000000000000000101
00000000000000000000000000000000000000000000000010
00000000000000000000000000000000000000000000000000
00000010000000000000000000000000000000000000000000
00000010000000000000000000000000000000000000000000
00000010000000000000000000000000000000000000000000
00000000000000000000000000000000000000000000000000
00000000000000000000000000000000000000000000000000
00000000000000000000000000000000000000000000000000
00000000000000000000000000000000000000000000000010
00000000000000000000000000000000000000000000000010
00000000000000000000000000000001100000000000000010
00000000000000000000000000000001100000000000000000
00000000000000000000000000000000000000000000000000
00000000000000000000000000000000000000000000000000
00000000000000000000000000000000000000000000000000
00000001000000000000000000000000000000000000000000
00000010100000000111000000000000000000000000000000
00000100100000000000000000000000000000000000000000
00000011000000000000001100000000000000000000000000
00000000000000000000100100000000000000000000000000
00000000000000000000111000000000000000000000000000
00000000000000000000111000000000000001110000000000
00000000000000000000000000000000000010010000000000
00000000000000000000000000000000000000010000000000
00000000000000000000000000000000000000000000000000
00000000000000000000000000000000000011000000000000
00000000000000000000000000000000010011000001110000
00000000000000000000000000000000101011000001000000
00000000000000000000000000000001000000000000000000
00000000000000000000000000000011001011100000000000
00000000000000000000000000000100001000000000000000
00000000000000000000000000001000000000000000000000
00000000000000000000000000000100010000000000000000
00000000000000000010000000000011100000000000000000
00000000000011111110000000000000000000000000000000
00000000000100111110000000000000000000000000000000
00000000000011000000000000000000000000000000000000
00000000000001100000111000000000000000000000000000
00000000000000000010100011000000000000000110000000
00000000000000000010000011000000000000000110000000
