P1
50 50
00000000000000000000000000000000000000000000000000
00000000000000000000000000000000000000000000000000
00000000000000000000000000100000000000000000000000
00000000000000000000000001010000000000000000000000
00000000000000000000000001001000000000000000000000
00000000000000000000000000110000000000000000000000
00000000000000000000000000000000000000000000000000
00000000000000000000000000000000000000000000000010
00000000000000000000000000000000000000000000000101
00000000000000000000000000000000000000000000000101
00000000000000000000000000000000000000000000000010
00000000000000000000000000000000000000000000000000
00000010000000000000000000000000000000000000000000
00000010000000000000000000000000000000000000000000
00000010000000000000000000000000000000000000000000
00000000000000000000000000000000000000000000000000
00000000000000000000000000000000000000000000000000
00000000000000000000000000000000000000000000000000
00000000000000000000000000000000000000000000000010
00000000000000000000000000000000000000000000000010
00000000000000000000000000000001100000000000000010
00000000000000000000000000000001100000000000000000
00000000000000000000000000000000000000000000000000
00000000000000000000000000000000000000100000000000
00000000000000000000000000000000000011011000000000
00000001000000000000000000110000000011011000000000
00000010100000000011000110111000000111010000000000
00000100100000000011000010000100000110111000000000
00000011000000000011000010101010000000000000000000
00000000000000000000000010000010000000000000000000
00000000000000000000000110100010000000000000000000
00000000000000000000000110000100001100110000000000
00000000000000000000000011110000001110100000000000
00000000000000000000000011100000010001000000000000
00000000000000000000000000000000001011000000000000
00000000000000000000000000000000000110000000000000
00000000000000000000000000000000000010101000000000
00000000000000000000000000000000001010010000000000
00000000000000000000000000000000001010000000000000
00000000000000000000000000000000000000000000000000
00000000000000000011000000000000000000000000000000
00000000001101100110110000000000000000000000000000
00000000001100010110110000000000000000000000000000
00000000000011100010100000000000000000000000000000
00000000000001010111000000000000000000000000000000
00000000000110110111000000000000000000000000000000
00000000001100000000000000000000000000000000000000
00000000010000000000000000000000000000000000000000
00000000001000100000000000000000000000000110000000
00000000000110000000000000000000000000000110000000
