P1
50 50
00000000000000000000000000000000000011100000000000
00000000000000000000000000000000000100001000000000
00000000000000000000000000100000000000001000000000
00000000000000000000000001010000001000001000000000
00000000000000000000000001001000011000110000000000
00000000000000000000000000110000011011000000000000
00000000000000000000000000000000011110000000000000
00000000000000000000000000000000000000000000000010
00000000000000000000000000000000000000000000000101
00000000000000000000000000000000000000000000000101
00000000000000000000000000000000000000000000000010
00000000000000000000000000000000000000000000000000
00000010000000000000000000000000000000000000000000
00000010000000000000000000000000000000000000000000
00000010000000000000000000000000000000000000000000
00000000000000000000000000000000000000000000000000
00000000000000000000000000000000000000000000000000
00000000000000000000000000000000000000000000000000
00000000000000000000000000000000000000000000000010
00000000000000000000000000000000000000000000000010
00000000000000000000000000000001100000000000000010
00000000000000000000000000000001100000000000000000
00000000000000000000000000000000000000000000000000
00000000000000000000000000000000000000000000000000
00000000000000000000000000000000000000000000000000
00000001000000000000000000000000000000000000000000
00000010100000000111000000000000000000000000000000
00000100100000000000000110000000000000000000000000
00000011000000000000000101000000000001110000000000
00000000000000000000100001100000000001001000000000
00000000000000000001100011000000000010001000000000
00000000000000000001000010000000000010101100000000
00000000000000000000111100000000000001101100000000
00000000000000000000011000000000000000111000000000
00000000000000000000010000000000000000010000000000
00000000000000000000000000000000001000000001100000
00000000000000000000000000000000011100010010010000
00000000000000000000000000000000010000011001100000
00000000000000000000000000000000111000000000000000
00000000000000000000000000000000000000000000000000
00000000000000000000000000000000000000000000000000
00000000000000000000000000011000000000000000000000
00000000000000000010000000011000000000000000000000
00000000000111000111000000001110000000000000000000
00000000000111000001000000000101000000000000000000
00000000000100011110001000000101000000000000000000
00000000000000101110001110000000000000000000000000
00000000000100000011010001000000000000000000000000
00000000000110000001000110000000000000000110000000
00000000000000000001001100000000000000000110000000
