P1
50 50
00000000000000000000000000000000000011100000000000
00000000000000000000000000000000000100100000000000
00000000000000000000000000100001000100000000000000
00000000000000000000000001010001011101100000000000
00000000000000000000000001001000110001000000000000
00000000000000000000000000110000000000000000000000
00000000000000000000000000000000001010000000000000
00000000000000000000000000000000000100000000000010
00000000000000000000000000000000000000000000000101
00000000000000000000000000000000000000000000000101
00000000000000000000000000000000000000000000000010
00000000000000000000000000000000000000000000000000
00000010000000000000000000000000000000000000000000
00000010000000000000000000000000000000000000000000
00000010000000000000000000000000000000000000000000
00000000000000000000000000000000000000000000000000
00000000000000000000000000000000000000000000000000
00000000000000000000000000000000000000000000000000
00000000000000000000000000000000000000000000000010
00000000000000000000000000000000000000000000000010
00000000000000000000000000000001100000000000000010
00000000000000000000000000000001100000000000000000
00000000000000000000000000000000000000000000000000
00000000000000000000000000000000000000000000000000
00000000000000000000000000000000000000000000000000
00000001000000000000000000000000000000000000000000
00000010100000000111000000000000000000000000000000
00000100100000000000000000000000000000000000000000
00000011000000000000001100000000000000000000000000
00000000000000000000000110000000000000000000000000
00000000000000000001111100000000000001110000000000
00000000000000000000111000000000000001001000000000
00000000000000000000010000000000000001011000000000
00000000000000000000000000000000000000000000000000
00000000000000000000000000000000000000000000000000
00000000000000000000000000000000000001000001100000
00000000000000000000000000000000111100100001100000
00000000000000000000000000000000000011100001100000
00000000000000000000000000000010010100100000000000
00000000000000000000000000000000001001100000000000
00000000000000000000000000001001000000000000000000
00000000000000000000000000001000000000000000000000
00000000000000110000000000001000100000000000000000
00000000000011110000000000000100000000000000000000
00000000000011010111000000000011100000000000000000
00000000000101000110000000000000000000000000000000
00000000000110000111010000000000000000000000000000
00000000000011000001011010000000000000000000000000
00000000000001000000010101000000000000000110000000
00000000000000000000000101000000000000000110000000
