P1
50 50
00000000000000000000000000000000000000000000000000
00000000000000000000000000000000101001100000000000
00000000000000000000000000100000100101100000000000
00000000000000000000000001010000100000100000000000
00000000000000000000000001001000010001000000000000
00000000000000000000000000110000001000000000000000
00000000000000000000000000000000000110000000000000
00000000000000000000000000000000000000000000000010
00000000000000000000000000000000000000000000000101
00000000000000000000000000000000000000000000000101
00000000000000000000000000000000000000000000000010
00000000000000000000000000000000000000000000000000
00000000000000000000000000000000000000000000000000
00000111000000000000000000000000000000000000000000
00000000000000000000000000000000000000000000000000
00000000000000000000000000000000000000000000000000
00000000000000000000000000000000000000000000000000
00000000000000000000000000000000000000000000000000
00000000000000000000000000000000000000000000000000
00000000000000000000000000000000000000000000000111
00000000000000000000000000000001100000000000000000
00000000000000000000000000000001100000000000000000
00000000000000000000000000000000000000000000000000
00000000000000000000000000000000000000000000000000
00000000000000000000000000000000000000000000000000
00000001000000000010000000000000000000000000000000
00000010100000000010000000000000000000000000000000
00000100100000000010000000000000000000000000000000
00000011000000000000001100000000000000000000000000
00000000000000000001000100000000000000000000000000
00000000000000000000111000000000000000000000000000
00000000000000000000010000000000000000110000000000
00000000000000000000000000000000000011010000000000
00000000000000000000000000000000000011100000000000
00000000000000000000000000000000000001010000000000
00000000000000000000000000000000000001000000100000
00000000000000000000000000000000001001000000100000
00000000000000000000000000000000110001010000100000
00000000000000000000000000000000110001100110000000
00000000000000000000000000000001011011000000000000
00000000000000000000000000000110100000000000000000
00000000000000000000000000000110110000000000000000
00000000000000000000000000000100110000000000000000
00000000000000000000000000000011000000000000000000
00000000000011000111000000000000000000000000000000
00000000000100111000000000000000000000000000000000
00000000000011000000010000000000000000000000000000
00000000000000100000010000000000000000000000000000
00000000000000010000010011000000000000000110000000
00000000000000000111000011000000000000000110000000
