P1
50 50
00000000000000000000000000000000000000000000000000
00000000000000000000000000000000000000000000000000
00000000000000000000000000100000000000000000000000
00000000000000000000000001010000000000000000000000
00000000000000000000000001001000000000000000000000
00000000000000000000000000110000000000000000000000
00000000000000000000000000000000000000000000000000
00000000000000000000000000000000000000000000000010
00000000000000000000000000000000000000000000000101
00000000000000000000000000000000000000000000000101
00000000000000000000000000000000000000000000000010
00000000000000000000000000000000000000000000000000
00000000000000000000000000000000000000000000000000
00000111000000000000000000000000000000000000000000
00000000000000000000000000000000000000000000000000
00000000000000000000000000000000000000000000000000
00000000000000000000000000000000000000000000000000
00000000000000000000000000000000000000000000000000
00000000000000000000000000000000000000000000000000
00000000000000000000000000000000000000000000000111
00000000000000000000000000000001100000000000000000
00000000000000000000000000000001100000000000000000
00000000000000000000000000000000000001110000000000
00000000000000000000000000000000000000000000000000
00000000000000000000000001000000000001010000000000
00000001000000000000000110110000000000010000000000
00000010100000000011000110101100000000111000000000
00000100100000000100100001010000000000000000000000
00000011000000000011000110001101000000101000000000
00000000000000000000000110001000100001000000000000
00000000000000000000000000001111000011100000000000
00000000000000000000000000000010000000100000000000
00000000000000000000000000101000010011110000000000
00000000000000000000000000100000010000000000000000
00000000000000000000000000000000000000000000000000
00000000000000000000000000000000000000000000000000
00000000000000000000000000000000000000000000000000
00000000000000000000000000000000000000000000000000
00000000000000000000000000000000000000000000000000
00000000000000000100100000000000000000000000000000
00000000001100000000000000000000000000000000000000
00000000001100001000000000000000000000000000000000
00000000010010011100000000000000000000000000000000
00000000001100011000001000000000000000000000000000
00000000000111000010010000000000000000000000000000
00000000000001001110000000000000000000000000000000
00000000000001100111000000000000000000000000000000
00000000001000000000000000000000000000000000000000
00000000000110000000000000000000000000000110000000
00000000001110000000000000000000000000000110000000
